<?xml version="1.0" standalone="no"?>
<!DOCTYPE svg PUBLIC "-//W3C//DTD SVG 1.1//EN" "http://www.w3.org/Graphics/SVG/1.1/DTD/svg11.dtd" >
<svg xmlns="http://www.w3.org/2000/svg">
<metadata></metadata>
<defs>
<font id="merriweatheritalic" horiz-adv-x="0" >
<font-face units-per-em="2048" ascent="1638" descent="-410" />
<missing-glyph horiz-adv-x="485" />
<glyph />
<glyph unicode="&#xd;" />
<glyph />
<glyph />
<glyph unicode="&#x9;" />
<glyph unicode="&#xa;" />
<glyph />
<glyph />
<glyph />
<glyph />
<glyph />
<glyph />
<glyph />
<glyph unicode=" "  horiz-adv-x="485" />
<glyph unicode="&#x09;" horiz-adv-x="485" />
<glyph unicode="&#xa0;" horiz-adv-x="485" />
<glyph unicode="!" horiz-adv-x="687" d="M136 87q0 45 23 83.5t60 61t77 22.5q62 0 92.5 -30t30.5 -78q0 -13 -1 -19q-6 -44 -31 -78t-62 -52.5t-77 -18.5q-50 0 -81 29.5t-31 79.5zM254 490l136 1288h249l-244 -1288h-141z" />
<glyph unicode="&#x22;" horiz-adv-x="1007" d="M250 966l77 721h230l-165 -721h-142zM731 966l77 721h230l-165 -721h-142z" />
<glyph unicode="#" horiz-adv-x="1405" d="M111 365l9 130h224l64 401h-219l8 129h231l53 332h167l-51 -332h309l56 332h167l-54 -332h231l-8 -129h-243l-64 -401h226l-9 -130h-238l-57 -365h-162l51 365h-310l-62 -365h-164l58 365h-213zM513 495h309l64 401h-309z" />
<glyph unicode="$" horiz-adv-x="1205" d="M105 65l46 280h129l22 -185q45 -37 112 -57t134 -20q72 0 142 27.5t116.5 86t46.5 146.5q0 76 -34 135t-88.5 103.5t-139.5 97.5q-117 74 -182.5 124t-112.5 127t-47 182q0 118 56 210t152.5 147.5t215.5 68.5l30 183h181l-31 -185q90 -9 157.5 -31t105.5 -48l-47 -247 h-119l-36 165q-33 26 -93.5 42.5t-118.5 16.5q-59 0 -120.5 -25.5t-103 -81t-41.5 -141.5q0 -77 35.5 -135t90.5 -101t146 -99q110 -68 177 -120.5t113.5 -127.5t46.5 -173q0 -125 -59 -221t-161 -154t-230 -73l-34 -212h-180l34 211q-105 9 -192.5 34t-118.5 50z" />
<glyph unicode="%" horiz-adv-x="1911" d="M198 1055q0 106 54.5 204.5t149.5 159.5t210 61q143 0 211 -79.5t68 -215.5q0 -111 -51.5 -212.5t-146 -164.5t-215.5 -63q-89 0 -152.5 40t-95.5 110.5t-32 159.5zM372 1057q0 -97 34 -153t101 -56q68 0 113.5 53.5t66.5 130t21 145.5q0 95 -30.5 148t-93.5 53 q-69 0 -117 -51t-71.5 -126t-23.5 -144zM394 0l947 1530h161l-947 -1530h-161zM1035 374q0 106 54.5 204.5t149.5 160t210 61.5q143 0 211 -79.5t68 -216.5q0 -111 -51.5 -212.5t-146 -164.5t-216.5 -63q-89 0 -152 40t-95 110.5t-32 159.5zM1209 376q0 -97 33.5 -153 t100.5 -56q69 0 114.5 53.5t66.5 130t21 145.5q0 95 -30.5 148t-93.5 53q-70 0 -118 -51t-71 -126t-23 -144z" />
<glyph unicode="&#x26;" horiz-adv-x="1545" d="M50 367q0 97 46.5 171t121 129t184.5 112q-38 88 -63.5 189.5t-25.5 180.5q0 119 60 210t164.5 140.5t231.5 49.5q119 0 193 -39.5t106.5 -103t32.5 -137.5q0 -102 -57.5 -181t-141 -136t-224.5 -135l-64 -36q190 -338 413 -535q36 53 50.5 125.5t14.5 169.5 q0 71 -22 139l-40 1q-41 0 -81 -11.5t-68 -26.5v138q18 18 57.5 33.5t97.5 15.5q39 0 111 -11q33 -5 69 -9t67 -4q81 0 127 37t60 125h78q0 -150 -53.5 -233.5t-168.5 -83.5q-28 0 -55 3q5 -33 5 -69q0 -125 -42.5 -228t-120.5 -181q48 -36 88 -55q41 -15 89.5 -24.5 t88.5 -10.5l-11 -86q-53 -13 -93.5 -16.5t-87.5 -3.5q-63 0 -125 20.5t-114 60.5q-166 -79 -380 -79q-137 0 -254.5 41t-190.5 128t-73 216zM260 372q0 -93 45 -155.5t119 -93t164 -30.5q173 0 281 38q-94 87 -162 169t-116 155t-116 188l-22 37q-92 -67 -142.5 -141 t-50.5 -167zM499 1176q0 -85 20.5 -164.5t50.5 -146.5q103 54 173.5 105.5t113.5 120.5t43 157q0 83 -34 140t-122 57q-75 0 -130.5 -35.5t-85 -96.5t-29.5 -137z" />
<glyph unicode="'" horiz-adv-x="527" d="M241 966l77 721h230l-165 -721h-142z" />
<glyph unicode="(" horiz-adv-x="855" d="M202 505q0 104 15 219q35 262 155.5 481t252.5 359t202 178l89 -60q-57 -36 -155 -158t-192.5 -317t-135.5 -434q-20 -151 -20 -261q0 -201 45.5 -363t105.5 -263.5t106 -140.5l-109 -65h-17q-56 38 -135 139.5t-143 277.5t-64 408z" />
<glyph unicode=")" horiz-adv-x="856" d="M-41 -254q57 36 155 158t192.5 317t135.5 434q20 151 20 261q0 201 -45.5 363t-105.5 263.5t-106 140.5l109 65h17q56 -38 135 -139.5t143 -277.5t64 -408q0 -103 -15 -219q-35 -262 -155.5 -481t-252.5 -359t-202 -178z" />
<glyph unicode="*" horiz-adv-x="1366" d="M276 982l324 131l111 37l-103 37l-298 131l116 167l245 -203l79 -75l-11 112l-7 335l194 -1l-77 -334l-33 -112l94 75l291 204l77 -168l-323 -131l-112 -38l104 -36l298 -131l-116 -167l-246 203l-80 77l11 -114l7 -335l-194 1l77 334l33 114l-93 -77l-291 -204z" />
<glyph unicode="+" horiz-adv-x="1364" d="M252 692l18 160h225l138 -11l13 165l27 230h180l-26 -230l-29 -164l115 10h254l-18 -160h-255l-112 7q-1 -48 -6 -98l-4 -66l-28 -241h-180l27 241l26 164l-141 -7h-224z" />
<glyph unicode="," horiz-adv-x="527" d="M-8 -422l3 21q76 41 129 123t53 190q0 64 -28 116.5t-67 68.5l1 45l158 124q79 -35 119 -117.5t40 -181.5q0 -108 -47.5 -203.5t-126.5 -164t-171 -101.5z" />
<glyph unicode="-" horiz-adv-x="1267" d="M233 692l18 160h837l-18 -160h-837z" />
<glyph unicode="." horiz-adv-x="527" d="M85 85q0 46 23 84.5t60 61.5t77 23q61 0 91.5 -29.5t30.5 -77.5q0 -49 -24 -87.5t-63.5 -60t-82.5 -21.5q-50 0 -81 29t-31 78z" />
<glyph unicode="/" horiz-adv-x="854" d="M-132 -362l861 1959h177l-863 -1959h-175z" />
<glyph unicode="0" horiz-adv-x="1278" d="M131 451q0 197 83 360t223.5 257t305.5 94q218 0 316 -123.5t98 -342.5q0 -188 -79.5 -351.5t-218.5 -262t-309 -98.5q-145 0 -239 62t-137 167.5t-43 237.5zM343 466q0 -162 57 -267t172 -105q122 0 206 86t125 220t41 277q0 177 -57 276.5t-178 99.5q-134 0 -216 -93.5 t-116 -227.5t-34 -266z" />
<glyph unicode="1" horiz-adv-x="918" d="M109 0l10 88l199 25l110 802q-120 -30 -250 -52l-15 97q96 21 210 79t208 123l88 -21l-144 -1027l213 -26l-10 -88h-619z" />
<glyph unicode="2" horiz-adv-x="1170" d="M35 80q318 157 515.5 339.5t197.5 365.5q0 118 -50.5 178.5t-164.5 60.5q-91 0 -170.5 -43t-157.5 -108l-54 91q75 78 194.5 138t264.5 60q364 0 364 -338q0 -191 -192 -375.5t-487 -332.5l545 48l97 150l103 -36l-80 -278h-907z" />
<glyph unicode="3" horiz-adv-x="1077" d="M24 -316l15 116q77 -11 130 -11q133 0 251.5 44.5t191 128.5t72.5 196q0 118 -68.5 180.5t-216.5 63.5l-141 -34l16 118q102 21 199.5 68t163 120t65.5 167t-54.5 136.5t-139.5 42.5q-91 0 -166.5 -33t-156.5 -92l-43 101q38 37 105.5 75.5t159 64.5t191.5 26 q89 0 163.5 -30.5t119.5 -93.5t45 -157q0 -87 -52 -166.5t-136.5 -140.5t-179.5 -94l31 1q175 0 249.5 -78.5t74.5 -209.5q0 -148 -105.5 -268t-274 -187t-346.5 -67q-66 0 -163 13z" />
<glyph unicode="4" horiz-adv-x="1251" d="M34 94q134 172 319.5 476.5t380.5 685.5h37l159 -91q-72 -134 -231.5 -370.5t-394.5 -573.5l-100 -120l502 28l51 403l198 59l-56 -446l249 15l-21 -160h-248l-47 -375h-194l49 375h-616z" />
<glyph unicode="5" horiz-adv-x="1108" d="M38 -329l14 92q36 -6 80 -6q149 0 284 58.5t217 160t82 223.5q0 96 -27.5 153.5t-85 83.5t-150.5 26q-101 0 -260 -54l-49 39l170 699h569l22 16h139l-58 -187h-534l-116 -424q48 13 111 21.5t112 8.5q112 0 200.5 -38t140.5 -118.5t52 -202.5q0 -173 -114.5 -302.5 t-295 -197.5t-370.5 -68q-84 0 -133 17z" />
<glyph unicode="6" horiz-adv-x="1244" d="M135 470q0 240 112 468.5t308 397t438 235.5l30 -87q-144 -55 -270.5 -158.5t-218.5 -233.5t-139 -263q58 62 151 104.5t207 42.5q122 0 203.5 -51t120 -138t38.5 -196q0 -158 -71.5 -298.5t-200.5 -226.5t-292 -86q-133 0 -227 64t-141.5 175.5t-47.5 250.5zM347 448 q0 -163 57.5 -261t190.5 -98q103 0 171.5 70t100.5 174t32 209q0 98 -24.5 167t-69 105t-103.5 36q-89 0 -154.5 -28t-103 -62.5t-70.5 -76.5q-27 -122 -27 -235z" />
<glyph unicode="7" horiz-adv-x="1096" d="M108 813l61 333h894l32 -43l-602 -1425l-212 67l655 1248h-610l-86 -184z" />
<glyph unicode="8" horiz-adv-x="1183" d="M105 334q0 153 102.5 272.5t283.5 199.5q-211 172 -211 361q0 109 60.5 196.5t167.5 137t240 49.5q110 0 195 -38.5t133 -111t48 -171.5q0 -135 -90 -236t-246 -180q118 -83 194 -193.5t76 -229.5q0 -128 -73 -221t-192 -141t-254 -48q-110 0 -209 38t-162 118t-63 198z M321 367q0 -83 29.5 -146.5t85.5 -98.5t133 -35q79 0 143 34.5t101 97t37 141.5q0 104 -74.5 195.5t-215.5 185.5q-110 -51 -173.5 -151t-65.5 -223zM474 1185q0 -93 59.5 -167t169.5 -152q102 46 162 138.5t60 209.5q0 115 -55.5 175.5t-142.5 60.5q-70 0 -128 -35 t-91.5 -95.5t-33.5 -134.5z" />
<glyph unicode="9" horiz-adv-x="1245" d="M132 572q0 143 66 279t193.5 223.5t302.5 87.5q133 0 226.5 -62.5t141.5 -171t48 -243.5q0 -250 -112 -481.5t-308 -399.5t-439 -235l-30 88q143 54 271 159t222.5 235.5t142.5 263.5q-61 -65 -157 -107.5t-208 -42.5q-123 0 -204 58t-118.5 150.5t-37.5 198.5zM337 616 q0 -101 28.5 -174.5t75.5 -112t102 -38.5q119 0 197 50.5t131 117.5q13 53 20 119t7 127q0 151 -58 249.5t-190 98.5q-102 0 -173 -68.5t-105.5 -170t-34.5 -198.5z" />
<glyph unicode=":" horiz-adv-x="527" d="M66 85q0 46 23 84.5t60 61.5t77 23q61 0 91.5 -29.5t30.5 -77.5q0 -49 -24 -87.5t-63.5 -60t-82.5 -21.5q-50 0 -81 29t-31 78zM159 894q0 46 23 84.5t60 61.5t77 23q61 0 91.5 -29.5t30.5 -77.5q0 -49 -24 -87.5t-63.5 -60t-82.5 -21.5q-50 0 -81 29t-31 78z" />
<glyph unicode=";" horiz-adv-x="527" d="M-26 -422l3 21q76 41 129 123t53 190q0 64 -28 116.5t-67 68.5l1 45l158 124q79 -35 119 -117.5t40 -181.5q0 -108 -47.5 -203.5t-126.5 -164t-171 -101.5zM161 894q0 46 23 84.5t60 61.5t77 23q61 0 91.5 -29.5t30.5 -77.5q0 -49 -24 -87.5t-63.5 -60t-82.5 -21.5 q-50 0 -81 29t-31 78z" />
<glyph unicode="&#x3c;" horiz-adv-x="1368" d="M195 686l16 128l1009 510l-24 -197l-792 -376l704 -376l-23 -199z" />
<glyph unicode="=" horiz-adv-x="1063" d="M80 338l18 158h815l-18 -158h-815zM150 848l18 158h815l-18 -158h-815z" />
<glyph unicode="&#x3e;" horiz-adv-x="1368" d="M250 179l24 197l792 376l-704 376l23 199l890 -510l-16 -128z" />
<glyph unicode="?" horiz-adv-x="1017" d="M260 721q0 85 73 154t212 136l23 11q66 31 105 53t77.5 56.5t69.5 84.5q9 37 9 85q0 111 -47 190t-129.5 119t-187.5 40q-42 0 -91 -7.5t-87 -25.5l29 143q22 22 83.5 38t123.5 16q174 0 281.5 -58.5t153.5 -153t46 -210.5q0 -125 -55 -219q-30 -53 -75 -96t-91.5 -73.5 t-115.5 -70.5q-14 -9 -42 -25q-59 -35 -97 -65t-61 -68.5t-23 -87.5q-1 -49 2.5 -97t9.5 -76l-129 -50l-17 1q-22 34 -36 107t-14 149zM293 85q0 46 22.5 84.5t59.5 61.5t78 23q61 0 91.5 -29.5t30.5 -77.5q0 -49 -24.5 -87.5t-63.5 -60t-82 -21.5q-50 0 -81 29t-31 78z" />
<glyph unicode="@" horiz-adv-x="1969" d="M117 334q0 353 146 629.5t394 429.5t542 153q202 0 353.5 -76t234.5 -220t83 -341q0 -265 -94 -467.5t-236.5 -312t-281.5 -109.5q-43 0 -63 24.5t-24.5 64.5t-4.5 115q0 78 29 204q-75 -177 -178 -299t-207 -122q-72 0 -136 46.5t-104 143t-40 237.5q0 155 61 307.5 t184 252t298 99.5q50 0 115.5 -14t103.5 -40l167 30q-29 -114 -62 -315.5t-47 -352.5q-7 -70 -7 -120q0 -45 5 -77q4 -39 17 -39q82 0 163.5 101t134 258t52.5 314q0 208 -84 336.5t-219.5 184t-300.5 55.5q-259 0 -449.5 -142.5t-290 -374t-99.5 -489.5q0 -366 164 -532 t466 -166q88 0 198 19.5t161 44.5l32 -86q-71 -54 -181 -85t-236 -31q-237 0 -407 83.5t-261 253.5t-91 425zM711 447q0 -125 32 -200t103 -75q64 0 151.5 124t158 294t85.5 289q-24 41 -80 64.5t-104 23.5q-129 0 -206 -77.5t-108.5 -194.5t-31.5 -248z" />
<glyph unicode="A" horiz-adv-x="1342" d="M-120 0l9 87l119 29l707 1406h205l253 -1403l156 -32l-7 -87h-515l5 87l156 29l-50 319h-567l-150 -318l160 -30l-6 -87h-475zM408 557h491l-104 676l-11 121z" />
<glyph unicode="B" horiz-adv-x="1295" d="M28 0l9 87l148 30l161 1281l-133 23l12 101h229q38 0 84.5 3t61.5 4q102 8 159 8q149 0 248.5 -44t147 -116t49.5 -159v-12q0 -150 -76 -246q-78 -100 -224 -150q84 -12 150.5 -56.5t104 -115.5t37.5 -158q0 -170 -90.5 -281t-242 -162t-340.5 -51q-30 0 -73.5 3t-59.5 4 q-79 7 -124 7h-238zM388 127q25 -10 80.5 -15t97.5 -5q194 0 303.5 83t109.5 267q0 137 -70 202.5t-223 65.5q-126 0 -224 -7zM479 852q44 -2 73 -2l100 1q100 0 179 35.5t125 109.5t46 185q0 83 -28 135.5t-91.5 78t-170.5 25.5q-34 0 -83 -2.5t-80 -8.5z" />
<glyph unicode="C" horiz-adv-x="1225" d="M92 650q0 260 101 462.5t271 314t370 111.5q118 0 200 -13t155 -33l38 -11l-66 -368h-122l-24 262q-31 21 -78.5 33t-128.5 12q-174 0 -286.5 -119t-163 -292.5t-50.5 -343.5q0 -145 34.5 -272.5t110.5 -208.5t192 -81q79 0 157.5 26t107.5 77q11 31 34 98t34 99l124 -1 l-40 -329l-25 -8q-96 -34 -198 -57.5t-234 -23.5q-178 0 -293 96t-167.5 247t-52.5 323z" />
<glyph unicode="D" horiz-adv-x="1434" d="M26 0l10 87l148 30l162 1281l-133 23l12 101h297q39 0 125 8q94 8 144 8q301 0 440.5 -168.5t139.5 -471.5q0 -259 -99 -470q-99 -210 -278 -330q-170 -114 -386 -114h-22q-63 2 -112 7q-42 4 -100 6.5t-99 2.5h-249zM390 132q40 -14 114 -22t132 -9q178 12 296 126.5 t173.5 287.5t55.5 368q0 201 -43 318t-136 169t-249 52q-42 0 -98.5 -6.5t-85.5 -14.5z" />
<glyph unicode="E" horiz-adv-x="1232" d="M25 0l11 87l149 29l160 1282l-133 23l12 101h934l-8 -312h-111l-47 189l-437 15l-72 -559l448 8l-13 -159l-447 17l-83 -604l547 24l119 211l109 -30l-88 -322h-1050z" />
<glyph unicode="F" horiz-adv-x="1164" d="M28 0l8 88l149 29l160 1281l-133 23l12 101h976l-23 -313h-125l-29 184l-472 19l-68 -558l471 9l-13 -161l-470 18l-82 -601l269 -31l-8 -88h-622z" />
<glyph unicode="G" horiz-adv-x="1345" d="M100 650q0 260 100.5 462.5t270.5 314t369 111.5q135 0 227 -16t176 -40l39 -11l-58 -297h-131l-22 183q-36 30 -94 46.5t-159 16.5q-176 0 -289 -118.5t-163.5 -291.5t-50.5 -344q0 -145 35.5 -273t113.5 -209.5t198 -81.5q197 0 289 91l57 397l-233 17l13 117h447 l-90 -630q-27 -3 -58.5 -12l-38.5 -11q-35 -11 -33 -10q-120 -36 -214 -56.5t-199 -20.5q-172 0 -285 96t-165 247.5t-52 322.5z" />
<glyph unicode="H" horiz-adv-x="1538" d="M28 0l10 87l147 30l161 1281l-133 23l12 101h491l-11 -101l-154 -23l-70 -554h649l70 554l-151 23l10 101h495l-12 -101l-138 -23l-161 -1280l152 -31l-9 -87h-518l8 88l164 30l74 596h-650l-75 -597l158 -29l-8 -88h-511z" />
<glyph unicode="I" horiz-adv-x="708" d="M28 0l9 87l148 30l161 1281l-133 23l12 101h490l-11 -101l-153 -23l-162 -1281l158 -29l-8 -88h-511z" />
<glyph unicode="J" horiz-adv-x="726" d="M-152 -256q87 25 163 80.5t127 125.5t66 136q39 181 65 388t55 516q26 271 42 408l-141 23l14 101h490l-11 -101l-155 -22q-18 -169 -23 -217q-63 -582 -91 -816.5t-47 -290.5q-60 -188 -201.5 -289.5t-316.5 -130.5z" />
<glyph unicode="K" horiz-adv-x="1366" d="M28 0l9 87l148 30l161 1281l-133 23l12 101h490l-11 -101l-154 -23l-89 -710l611 710l-118 23l12 101h420l-14 -101l-104 -23l-525 -569l85 -145q131 -223 153 -259q95 -156 134.5 -212.5t69.5 -74.5l130 -44l-14 -94h-278q-29 4 -76 83t-112 208l-31 61 q-99 191 -185 343l-182 -198l-48 -380l158 -29l-8 -88h-511z" />
<glyph unicode="L" horiz-adv-x="1182" d="M29 0l8 88l148 29l161 1281l-133 23l12 101h524l-11 -101l-188 -23l-161 -1281l464 11l139 332l119 -23l-96 -437h-986z" />
<glyph unicode="M" horiz-adv-x="1876" d="M-54 0l10 88l160 29l317 1281l-161 23l12 101h447l164 -1044l15 -167l65 167q71 172 233 536q161 361 222 508h424l-11 -101l-165 -23l-25 -1280l154 -30l-9 -88h-533l9 88l176 28l37 901l30 403l-137 -355l-471 -1068l-112 -15l-172 1059l-61 377l-72 -387l-212 -914 l187 -29l-9 -88h-512z" />
<glyph unicode="N" horiz-adv-x="1518" d="M32 0l8 87l136 28l170 1283l-147 23l17 101h348l464 -1099l71 -233l144 1208l-151 23l12 101h453l-10 -101l-145 -23l-203 -1398h-195l-470 1104l-62 222l-127 -1209l162 -29l-9 -88h-466z" />
<glyph unicode="O" horiz-adv-x="1383" d="M119 642q0 255 90 460.5t248.5 322.5t354.5 117q166 0 279 -87.5t167.5 -235.5t54.5 -331q0 -256 -90 -463.5t-248 -326t-355 -118.5q-166 0 -279 89t-167.5 239t-54.5 334zM327 672q0 -170 36 -299t108 -201t177 -72q127 0 230 97t162 269t59 387q0 172 -36 298.5 t-108 196t-177 69.5q-127 0 -230 -95.5t-162 -265.5t-59 -384z" />
<glyph unicode="P" horiz-adv-x="1239" d="M28 0l9 87l148 30l161 1281l-133 23l12 101h255q45 0 137 8q86 9 150 9q227 0 344 -100.5t117 -304.5q0 -186 -83 -319.5t-224 -202.5t-311 -69q-122 0 -170 4l-51 -430l200 -29l-8 -88h-553zM455 677q85 -14 165 -14q142 1 227.5 54t124.5 155.5t42 258.5v15 q0 86 -22 144q-24 63 -81.5 96.5t-159.5 33.5q-39 0 -98.5 -5.5t-101.5 -15.5z" />
<glyph unicode="Q" horiz-adv-x="1389" d="M115 643q0 255 90 460.5t248.5 322.5t354.5 117q166 0 279 -87.5t167.5 -235.5t54.5 -331q0 -234 -76 -428.5t-211.5 -318t-307.5 -152.5q5 -74 43 -111.5t96 -48.5t146 -11q44 0 106.5 12t104.5 31l2 -138q-40 -33 -120.5 -59t-162.5 -26q-97 0 -177 31t-127.5 94 t-47.5 153q0 30 6 65q-155 9 -260.5 99.5t-156.5 237t-51 324.5zM323 673q0 -170 36 -299t108 -201t177 -72q127 0 230 97t162 269t59 387q0 172 -36 298.5t-108 196t-177 69.5q-127 0 -230 -95.5t-162 -265.5t-59 -384z" />
<glyph unicode="R" horiz-adv-x="1352" d="M47 0l9 87l129 30l161 1281l-133 23l12 101h272q40 0 120 8t120 8q172 0 278 -38t155 -115.5t49 -201.5q0 -118 -44.5 -216.5t-129 -168.5t-203.5 -104q42 -36 95 -124t89 -168l41 -89q48 -106 72 -145t56.5 -54.5t98.5 -15.5l-5 -98h-233q-29 0 -54 23.5t-56.5 84 t-76.5 174.5q-49 124 -83.5 200.5t-75.5 132t-83 56.5l-183 -1l-63 -553l185 -29l-8 -88h-511zM460 789q66 -4 165 -4q39 0 50 1q112 8 188 60t113 134.5t37 183.5q0 90 -25 144.5t-91.5 82.5t-189.5 28q-25 0 -79 -4t-84 -10z" />
<glyph unicode="S" horiz-adv-x="1083" d="M54 65l42 282h120l25 -193q40 -27 103 -43.5t124 -16.5q72 0 144.5 27.5t121 87t48.5 147.5q0 72 -32 129.5t-84.5 102.5t-130.5 93q-101 63 -173 124t-119.5 143.5t-47.5 186.5q0 118 66 210.5t176.5 144.5t239.5 52q130 0 221.5 -25.5t143.5 -59.5l-47 -263h-109 l-28 180q-31 22 -85 36.5t-113 14.5q-64 0 -124.5 -24t-99.5 -74t-39 -123q0 -113 67 -194t191 -158q110 -70 174.5 -121.5t110 -127t45.5 -176.5q0 -137 -68 -239t-187 -156.5t-268 -54.5q-88 0 -172.5 13.5t-147.5 34.5t-88 40z" />
<glyph unicode="T" horiz-adv-x="1234" d="M83 1051l77 471h1148l-67 -471h-111l7 342l-321 21l-166 -1297l250 -23l-7 -94h-700l9 94l244 23l165 1297l-316 -20l-96 -341z" />
<glyph unicode="U" horiz-adv-x="1382" d="M127 1422l12 100h491l-11 -100l-153 -25l-104 -786q-11 -105 -11 -176q0 -168 73 -256t208 -88q169 0 269.5 135.5t130.5 399.5l103 771l-134 24l11 101h434l-12 -101l-124 -23l-104 -771q-30 -233 -106.5 -375.5t-200 -207t-298.5 -64.5q-144 0 -245.5 54.5t-154.5 155 t-56 238.5q0 86 8 165l107 805z" />
<glyph unicode="V" horiz-adv-x="1226" d="M71 1421l10 101h488l-10 -101l-152 -23l135 -947l27 -276l94 276l413 947l-136 24l10 100h415l-10 -100l-106 -23l-641 -1408l-178 -12l-236 1419z" />
<glyph unicode="W" horiz-adv-x="1788" d="M28 1421l12 101h473l-11 -101l-156 -19l117 -963l36 -264l57 199l343 906l-14 121l-119 20l11 101h483l-20 -101l-150 -21l104 -961l18 -264l74 227l406 996l-135 23l11 101h429l-15 -101l-121 -23l-599 -1408h-207l-115 1020l-387 -1020h-205l-197 1408z" />
<glyph unicode="X" horiz-adv-x="1297" d="M-63 0l11 88l121 28l499 651l-301 628l-138 26l10 101h522l-11 -101l-145 -23l200 -503l338 503l-140 23l12 101h471l-10 -101l-137 -23l-470 -621l332 -660l153 -29l-9 -88h-542l8 88l151 28l-234 526l-360 -525l149 -30l-8 -87h-472z" />
<glyph unicode="Y" horiz-adv-x="1178" d="M60 1421l10 101h498l-12 -101l-161 -23l226 -557l36 -127l72 126l341 558l-140 23l11 101h417l-11 -101l-101 -23l-523 -807l-61 -474l196 -29l-8 -88h-607l9 88l215 29l61 474l-363 807z" />
<glyph unicode="Z" horiz-adv-x="1192" d="M-5 89l811 1123l167 195l-570 -7l-97 -248l-121 24l57 346h942l25 -86l-813 -1136l-151 -192l635 25l128 255l123 -32l-93 -356h-1016z" />
<glyph unicode="[" horiz-adv-x="855" d="M177 -49q0 57 4 110q9 152 38.5 365t81.5 539q55 347 78 519q13 99 37.5 152.5t70 76.5t125.5 23q39 0 97 -10.5t104 -21.5t59 -15l-13 -88h-275l-223 -1656l138 -1q47 -1 137 -1l-11 -88q-87 -25 -143.5 -36t-129.5 -11q-65 0 -102.5 13t-55 44t-17.5 86z" />
<glyph unicode="\" horiz-adv-x="854" d="M122 1597l576 -1959h176l-577 1959h-175z" />
<glyph unicode="]" horiz-adv-x="855" d="M32 -133l13 88h275l223 1656l-137 1q-48 1 -138 1l11 88q87 25 143.5 36t129.5 11q65 0 102.5 -13t55 -44t17.5 -86q0 -57 -4 -110q-9 -152 -38.5 -365t-81.5 -539q-55 -347 -78 -519q-13 -99 -37.5 -152.5t-70 -76.5t-125.5 -23q-39 0 -97 10.5t-104 21.5t-59 15z" />
<glyph unicode="^" horiz-adv-x="1363" d="M185 413l392 1118h204l397 -1118h-161l-337 905l-336 -905h-159z" />
<glyph unicode="_" horiz-adv-x="1335" d="M-111 -338l20 151h1378l-20 -151h-1378z" />
<glyph unicode="`" horiz-adv-x="541" d="M48 1595l155 148l288 -432l-67 -60q-41 17 -120 79.5t-152.5 137t-103.5 127.5z" />
<glyph unicode="a" horiz-adv-x="1175" d="M82 412q0 163 79.5 339t228 294t342.5 118q46 0 99 -10t100 -25l121 34l-131 -973q-1 -8 -1 -21q0 -27 9 -41t22 -14q15 0 35 10t53 36l31 -54q-9 -17 -42.5 -47t-82 -54t-100.5 -24q-65 0 -99 32q-31 29 -30 89v14l7 66q-66 -85 -152 -143t-177 -58q-161 0 -236.5 116 t-75.5 316zM293 435q0 -312 142 -312q79 0 163.5 69.5t145.5 156.5l86 660q-49 31 -129 31q-133 0 -225 -95.5t-137.5 -236t-45.5 -273.5z" />
<glyph unicode="b" horiz-adv-x="1189" d="M123 -20l197 1504l-95 43l21 84l245 39l51 -27l-83 -621q54 69 132 115t170 46q112 0 188.5 -55t114 -152.5t37.5 -225.5q0 -164 -78.5 -339.5t-224 -293t-336.5 -117.5q-57 0 -123.5 13t-115.5 31zM343 142q53 -40 150 -40q129 0 219.5 97.5t134.5 240.5t44 277 q0 143 -44.5 222.5t-122.5 79.5q-83 0 -161.5 -57.5t-126.5 -129.5z" />
<glyph unicode="c" horiz-adv-x="882" d="M76 431q0 163 70 333.5t204.5 284.5t317.5 114q55 0 117 -13.5t104 -34.5l-59 -199q-4 3 -23 17q-103 83 -186 83q-99 0 -173.5 -65t-115.5 -190t-41 -301q0 -172 53.5 -255.5t149.5 -83.5q70 0 125 25t143 89l40 -82q-54 -64 -147.5 -118.5t-219.5 -54.5 q-112 0 -193 53.5t-123.5 155t-42.5 242.5z" />
<glyph unicode="d" horiz-adv-x="1182" d="M82 412q0 163 79.5 339t227.5 294t342 118q56 0 137 -18l51 337l-125 43l21 83l271 42l53 -27l-208 -1434q-2 -20 -2 -28q0 -48 24 -48q14 0 34 10t53 36l31 -53q-11 -18 -44.5 -48t-81 -54t-98.5 -24q-63 0 -94 33q-29 31 -29 96v9l-1 23q-55 -69 -135.5 -115 t-174.5 -46q-109 0 -183.5 55t-111 152t-36.5 225zM293 425q0 -144 42 -223t115 -79q81 0 160.5 53.5t128.5 122.5l106 699q-50 42 -144 42q-133 0 -225.5 -97.5t-137.5 -240.5t-45 -277z" />
<glyph unicode="e" horiz-adv-x="1052" d="M85 430q5 189 84 358t213 272t295 103q94 0 158.5 -32.5t96 -89t31.5 -128.5q0 -143 -117 -244t-274.5 -153t-271.5 -56q-2 -26 -2 -41q0 -71 22 -139.5t70.5 -114t123.5 -45.5q82 0 170 36t168 111l47 -84q-32 -44 -93.5 -91t-144.5 -79.5t-174 -32.5q-136 0 -227.5 63 t-134.5 165q-40 96 -40 207v15zM305 570q88 4 193.5 45t180.5 114t75 167q-1 75 -34.5 112t-90.5 37q-93 0 -163 -78.5t-110 -189t-51 -207.5z" />
<glyph unicode="f" horiz-adv-x="700" d="M-209 -500l53 169q20 -9 76 -24q53 -14 85 -14h4q46 0 75 65t44 176l138 1139h-138l15 76l149 62l12 71q20 121 84.5 224.5t154 164.5t182.5 61q46 0 84.5 -5.5t73.5 -20.5l-59 -168q-30 21 -61.5 34.5t-77.5 13.5q-75 0 -119.5 -74t-61.5 -205l-12 -90h234l-17 -144 h-235l-133 -1061q-17 -136 -71 -240.5t-135.5 -163t-178.5 -59.5h-20q-39 0 -76 3q-46 4 -69 10z" />
<glyph unicode="g" horiz-adv-x="1156" d="M82 412q0 163 79.5 339t228 294t342.5 118q56 0 113 -12t105 -30l122 42l-192 -1240q-23 -148 -111 -245t-203.5 -141.5t-226.5 -44.5q-63 0 -126 10.5t-95 24.5l50 186q51 -24 124.5 -43.5t143.5 -19.5q87 0 131.5 17t66.5 59t36 129l45 275q-56 -65 -133.5 -107.5 t-168.5 -42.5q-109 0 -183.5 55t-111 152t-36.5 225zM293 425q0 -143 42 -222.5t115 -79.5q82 0 161 53.5t129 123.5l102 701q-51 39 -141 39q-133 0 -225 -97.5t-137.5 -241t-45.5 -276.5z" />
<glyph unicode="h" horiz-adv-x="1241" d="M117 0l193 1482l-119 43l17 83l272 42l52 -27l-94 -711q84 112 191 181.5t219 69.5q111 0 169.5 -70t58.5 -232q0 -65 -13.5 -149t-37.5 -207l-5 -28q-33 -191 -40 -290q-2 -38 3 -56.5t19 -18.5q17 0 40.5 12t65.5 43l31 -53q-10 -18 -47.5 -50.5t-90.5 -58t-109 -25.5 q-66 0 -98 32q-29 28 -29 86v15q3 48 11.5 106.5t25.5 154.5l12 69l7 37q22 115 35.5 205t13.5 164q0 67 -14.5 101t-38 43.5t-60.5 9.5q-76 0 -170 -70t-170 -178l-100 -755h-200z" />
<glyph unicode="i" horiz-adv-x="642" d="M139 1031l18 81l306 51l49 -24l-139 -950q-2 -12 -2 -31q0 -45 25 -45q17 0 42 14.5t64 51.5l32 -54q-14 -21 -50.5 -55.5t-88.5 -62t-108 -27.5q-127 0 -127 116l1 17q5 65 18 156.5t44 292.5q47 310 62 417zM328 1503q0 39 22 73.5t56 55.5t68 21q56 0 90 -32.5 t34 -79.5q0 -40 -21 -76t-56.5 -57.5t-75.5 -21.5q-48 0 -82.5 34.5t-34.5 82.5z" />
<glyph unicode="j" horiz-adv-x="647" d="M-211 -481l36 82q12 -5 35 -8.5t35 -3.5q239 0 290 476l98 915l-156 51l18 81l317 51l48 -24l-130 -1139q-20 -166 -82.5 -282.5t-157 -176t-209.5 -59.5q-49 0 -87 9.5t-55 27.5zM315 1503q0 39 22 73.5t56 55.5t68 21q56 0 90 -32.5t34 -79.5q0 -40 -21 -76 t-56.5 -57.5t-75.5 -21.5q-48 0 -82.5 34.5t-34.5 82.5z" />
<glyph unicode="k" horiz-adv-x="1081" d="M103 0l193 1482l-117 43l16 83l272 42l52 -27l-216 -1623h-200zM399 610l2 1h-2q49 38 86 64q92 67 146 114t104 115q25 33 34.5 62.5t13.5 54t6 33.5q9 52 49 80.5t87 28.5q44 0 75.5 -29t31.5 -73q0 -54 -36 -106q-60 -88 -173 -170.5t-246 -163.5l259 -403 q27 -41 59.5 -68t55.5 -27q21 0 51.5 15t60.5 44l34 -61q-21 -33 -61 -65.5t-92.5 -54t-105.5 -21.5q-45 0 -86 26.5t-72 82.5z" />
<glyph unicode="l" horiz-adv-x="607" d="M140 115q0 40 6 77l183 1290l-123 43l21 83l268 42l48 -27l-201 -1434q-2 -11 -2 -30q0 -22 6 -34t17 -12q18 0 42.5 13.5t64.5 51.5l31 -53q-12 -20 -48 -55t-87.5 -62.5t-106.5 -27.5q-62 0 -90.5 31.5t-28.5 103.5z" />
<glyph unicode="m" horiz-adv-x="1885" d="M133 0l130 963l-99 59l18 89l247 52l48 -24l-19 -212q85 105 192 170.5t214 65.5q100 0 156 -57.5t65 -190.5q81 110 185.5 179t210.5 69q105 0 166.5 -74t61.5 -228q0 -53 -9 -119.5t-27 -177.5q-4 -20 -10 -58q-18 -110 -27.5 -179.5t-14.5 -138.5l-1 -22q0 -53 22 -53 q18 0 41.5 13.5t66.5 51.5l31 -53q-14 -22 -50 -56t-87.5 -61.5t-107.5 -27.5q-64 0 -94 32q-28 29 -28 87v12q3 65 13 141t29 198l8 49q19 110 29.5 193.5t10.5 155.5q0 67 -13 100.5t-34 43t-54 9.5q-71 0 -158 -67t-162 -171q-10 -119 -31 -258l-64 -505h-203l56 443 q41 252 41 406q0 69 -12 102t-34 42.5t-62 9.5q-74 0 -168.5 -69t-169.5 -175l-103 -759h-200z" />
<glyph unicode="n" horiz-adv-x="1260" d="M133 0l130 963l-98 59l18 89l247 52l48 -24l-20 -212q85 105 192.5 170.5t214.5 65.5q110 0 168.5 -70t58.5 -232q0 -54 -10.5 -123.5t-29.5 -171.5q-9 -46 -11 -61q-20 -113 -30.5 -182t-13.5 -136q-1 -8 -1 -23q0 -26 5 -39t17 -13q30 0 87 46l31 -53 q-10 -17 -44.5 -47.5t-83 -54.5t-100.5 -24q-66 0 -98 32q-28 28 -28 87v15q3 55 13.5 123t29.5 172l6 35q1 7 11 59q22 119 33.5 198.5t11.5 148.5t-13.5 102t-36 42.5t-63.5 9.5q-74 0 -168.5 -69t-169.5 -175l-103 -759h-200z" />
<glyph unicode="o" horiz-adv-x="1145" d="M85 452q0 181 74 345t204.5 265t291.5 101q193 0 296.5 -124t103.5 -349q0 -181 -74 -345t-204.5 -264.5t-292.5 -100.5q-193 0 -296 123.5t-103 348.5zM299 463q0 -174 55 -267.5t165 -93.5q104 0 177 88.5t108.5 222.5t35.5 270q0 171 -56 264t-165 93 q-104 0 -176 -87.5t-108 -220.5t-36 -269z" />
<glyph unicode="p" horiz-adv-x="1162" d="M37 -520l203 1500l-109 52l18 79l258 52l47 -24l-14 -132q53 68 129 112t166 44q112 0 188.5 -55t114.5 -152.5t38 -225.5q0 -164 -78.5 -339.5t-224.5 -293t-337 -117.5q-60 0 -133 15l-71 -515h-195zM323 137q51 -35 144 -35q129 0 219.5 97.5t134.5 240.5t44 277 q0 143 -44.5 222.5t-122.5 79.5t-151.5 -50.5t-124.5 -118.5z" />
<glyph unicode="q" horiz-adv-x="1158" d="M82 412q0 163 79.5 339t227.5 294t342 118q51 0 110 -12t106 -29l95 11l-190 -1443q-1 -6 -1 -19q0 -23 6.5 -40t15.5 -17q17 0 42 14.5t66 51.5l31 -54q-13 -20 -50.5 -54.5t-90.5 -62t-109 -27.5q-62 0 -91 32q-26 30 -26 90v13l66 509q-55 -64 -132 -105t-166 -41 q-109 0 -183.5 55t-111 152t-36.5 225zM293 425q0 -144 42 -223t115 -79q79 0 155.5 50.5t127.5 117.5l94 720q-50 29 -126 29q-133 0 -225.5 -97.5t-137.5 -240.5t-45 -277z" />
<glyph unicode="r" horiz-adv-x="837" d="M133 0l122 962l-100 60l18 89l246 52l48 -24l-21 -229q25 50 75 108.5t124.5 101t161.5 42.5q48 0 61 -13l-45 -214q-28 15 -103 15q-82 0 -163.5 -55t-133.5 -175l-90 -720h-200z" />
<glyph unicode="s" horiz-adv-x="869" d="M40 39l37 153q41 -28 114 -52t154 -24q85 0 141 28t56 115q0 51 -24 93.5t-59.5 74.5t-92.5 74q-80 59 -144.5 145t-64.5 192q0 96 53.5 170t142.5 114.5t193 40.5q75 0 151.5 -12t104.5 -25l-38 -169q-7 11 -39 29.5t-81 32.5t-106 14q-73 0 -125 -30.5t-60 -103.5 q-1 -7 -1 -21q0 -64 43 -119.5t117 -112.5q69 -54 114 -99t77 -107.5t32 -140.5q0 -100 -54.5 -172.5t-146 -109.5t-199.5 -37q-90 0 -179 18t-116 41z" />
<glyph unicode="t" horiz-adv-x="735" d="M131 1015l20 88l123 47q30 34 66.5 108.5t68.5 157.5h98l-34 -261h260l-20 -140h-257l-83 -625q-17 -127 -17 -176q0 -38 7 -57.5t24.5 -27.5t52.5 -8q36 0 95.5 27.5t95.5 55.5l18 -78q-24 -30 -78.5 -64.5t-119.5 -58t-120 -23.5q-83 0 -133 41.5t-50 137.5 q0 40 13 137l90 719h-120z" />
<glyph unicode="u" horiz-adv-x="1210" d="M149 1023l18 89l249 51l48 -24l-69 -550q-3 -24 -5.5 -43t-4.5 -35q-11 -78 -15.5 -126t-4.5 -99q0 -97 35 -132.5t106 -35.5q66 0 136 46t122 114l116 877h199l-125 -964q-3 -19 -3 -34q0 -42 25 -42q17 0 40.5 14t65.5 52l31 -54q-13 -20 -50.5 -55t-90.5 -62.5 t-108 -27.5q-56 0 -86 29t-30 81q0 18 5 45l-1 9q-143 -166 -332 -166q-123 0 -190 63t-67 211q0 58 8.5 135t26.5 208l51 366z" />
<glyph unicode="v" horiz-adv-x="1058" d="M36 1058q10 15 39 40t71 45t88 20q49 0 77 -15.5t40.5 -44.5t17.5 -77l69 -667l12 -186l112 164q65 104 108 184.5t77.5 173t54.5 200.5q2 16 2 24q0 20 -4.5 37.5t-12.5 42.5q-13 37 -13 55q0 54 26.5 81.5t71.5 27.5q65 0 97.5 -52.5t32.5 -148.5q0 -85 -45.5 -197 t-106.5 -216t-145 -234l-230 -323l-153 -12l-59 375l-97 608q-8 56 -40 56h-2q-27 0 -59 -22z" />
<glyph unicode="w" horiz-adv-x="1701" d="M36 1058q11 16 40.5 40.5t72 44.5t89.5 20q50 0 79 -15.5t41.5 -44.5t17.5 -77l53 -682l12 -186l77 172l347 825h179l64 -812l16 -185l108 165q31 47 79 144t88 213t46 215q1 26 -3 50t-13 51q-5 15 -8.5 30.5t-3.5 27.5q0 54 26.5 81.5t70.5 27.5q67 0 96.5 -51 t29.5 -159q0 -123 -79.5 -288.5t-196.5 -349.5l-203 -323l-188 -11l-39 374l-33 377l-8 142l-48 -143l-191 -405l-166 -334l-172 -12l-60 375l-87 608q-11 56 -41 56h-2q-27 0 -60 -22z" />
<glyph unicode="x" horiz-adv-x="1009" d="M-25 0l434 590l-184 383q-15 31 -27.5 44t-29.5 13q-18 0 -37.5 -12.5t-31.5 -29.5l-38 56q10 18 39 46t72 50.5t93 22.5q64 0 95 -24.5t49 -79.5l111 -346l294 442h216l-446 -599l199 -384q14 -30 25.5 -44t25.5 -14q17 0 40.5 14t63.5 51l36 -56q-9 -18 -45.5 -53 t-88 -62.5t-105.5 -27.5q-42 0 -67.5 12.5t-40 34.5t-27.5 58l-128 349l-283 -434h-214z" />
<glyph unicode="y" horiz-adv-x="1072" d="M-126 -478l47 160q4 -2 27 -13t61.5 -19.5t81.5 -8.5q49 0 111.5 29.5t127.5 98t116 177.5h-96l-172 1017q-5 30 -14.5 43t-25.5 13q-15 0 -32 -7t-49 -34l-29 60q11 17 44.5 47t79.5 54t94 24q70 0 98.5 -34t36.5 -103l41 -346l46 -387l20 -272l155 310q26 63 59 131 q46 99 72 163.5t43.5 141.5t17.5 161q0 25 -17 63q-9 24 -13 37.5t-4 29.5q0 53 27 78.5t72 25.5q130 0 130 -191q0 -92 -28.5 -190t-68 -183t-103.5 -207l-34 -66q-239 -480 -387 -661q-48 -68 -140.5 -119t-220.5 -51q-32 0 -87.5 9t-86.5 19z" />
<glyph unicode="z" horiz-adv-x="1024" d="M-4 39l642 788l143 156l-411 1q-58 0 -94 -48t-47 -120h-83q0 54 8.5 123.5t26 127.5t44.5 76q18 11 33.5 16.5t47.5 5.5q89 0 321 -16q189 -13 259 -13q26 0 44.5 5.5t39.5 21.5l57 -60l-650 -807l-126 -139h409q69 0 118.5 46.5t59.5 115.5h83q-1 -51 -12 -120 t-32 -126.5t-48 -75.5q-14 -9 -40 -14.5t-61 -5.5q-85 0 -309 18q-189 15 -253 15q-21 0 -45.5 -5t-43.5 -17l-14 -11z" />
<glyph unicode="{" horiz-adv-x="1020" d="M152 714l18 124q127 31 192 65q60 31 65 63l77 518q16 102 41.5 155t71 75t125.5 22q40 0 97.5 -10.5t103.5 -21.5t59 -15q-2 -11 -7 -43.5t-6 -44.5h-276l-96 -631q-6 -38 -30.5 -67.5t-67.5 -56.5q-18 -11 -72 -36.5t-73 -33.5q108 -57 142 -92q42 -44 42 -93 q0 -10 -1 -16l-95 -630h275q-3 -20 -7 -48.5t-5 -40.5q-86 -25 -143.5 -36t-131.5 -11q-64 0 -101 13t-54 44t-16 86q1 18 38.5 275.5t51.5 351.5q0 16 -13.5 33.5t-38.5 33.5q-32 21 -76 39t-89 29z" />
<glyph unicode="|" horiz-adv-x="854" d="M359 -186v1966h175v-1966h-175z" />
<glyph unicode="}" horiz-adv-x="1020" d="M55 -143q2 11 7 43.5t6 44.5h276l96 631q6 38 30.5 67.5t67.5 56.5q18 11 72 36.5t73 33.5q-108 57 -142 92q-42 44 -42 93q0 10 1 16l95 630h-275q3 20 7 48.5t5 40.5q86 25 143.5 36t131.5 11q64 0 101 -13t54 -44t16 -86q-1 -18 -38.5 -275.5t-51.5 -351.5 q0 -16 13.5 -33.5t38.5 -33.5q32 -21 76 -39t89 -29l-18 -124q-127 -31 -192 -65q-60 -31 -65 -63l-77 -518q-16 -102 -41.5 -155t-71 -75t-125.5 -22q-40 0 -97.5 10.5t-103.5 21.5t-59 15z" />
<glyph unicode="~" horiz-adv-x="1137" d="M150 849q17 50 63 98.5t111.5 80t137.5 31.5q39 0 73 -13.5t60 -31.5t66 -50q46 -39 77.5 -57.5t66.5 -18.5q123 0 202 117l72 -75q-15 -54 -60.5 -103t-112 -78.5t-139.5 -29.5q-55 0 -99 24.5t-99 70.5q-48 39 -79 57.5t-67 18.5q-123 0 -201 -116z" />
<glyph unicode="&#xa2;" horiz-adv-x="1056" d="M134 431q0 144 55.5 297t163 269t254.5 152l52 209h150l-49 -196q49 -4 100 -16.5t87 -30.5l-59 -199q-4 3 -23 17q-103 83 -186 83q-99 0 -173.5 -65t-115.5 -190t-41 -301q0 -172 53.5 -255.5t149.5 -83.5q70 0 125 25t143 89l40 -82q-46 -55 -125 -105.5t-183 -63.5 l-37 -199h-150l38 205q-129 29 -199 143.5t-70 297.5z" />
<glyph unicode="&#xa3;" horiz-adv-x="1369" d="M-14 53q0 5 2 21q6 35 44 72.5t97 61.5t124 24q25 36 46.5 110t34.5 148q16 91 42 253h-177l18 133h180l17 104q23 148 101 277.5t196 208.5t257 79q96 0 156 -16t108 -66l-113 -172q-6 15 -41 42.5t-89 49t-117 21.5q-86 0 -157 -95.5t-103 -323.5q-4 -29 -18 -109h321 l-17 -133h-328l-8 -52q-19 -131 -42.5 -215t-53 -143t-80.5 -136q46 -12 125 -41q86 -31 146.5 -46.5t125.5 -15.5q157 0 224 55.5t67 173.5q0 39 -23.5 87.5t-49.5 71.5l140 131q62 -49 100 -123t38 -155q-1 -142 -101.5 -248.5t-374.5 -106.5q-107 0 -208 25.5t-240 74.5 l-60 21q-40 -51 -104.5 -86t-124.5 -35q-34 0 -57 16t-23 57z" />
<glyph unicode="&#xa5;" horiz-adv-x="1483" d="M210 1422l11 100h505l-11 -100l-175 -17l231 -427l41 -112l67 119l300 420l-138 17l11 100h467l-11 -99l-136 -28l-422 -533h340l-15 -132h-413l-26 -223h413l-15 -131h-414l-30 -258l223 -30l-9 -88h-623l8 88l219 30l31 258h-410l15 131h410l27 223h-411l14 132h345 l-301 542z" />
<glyph unicode="&#xa8;" horiz-adv-x="809" d="M59 1503q0 39 20.5 73.5t54.5 55.5t71 21q55 0 89.5 -32.5t34.5 -79.5q0 -40 -21 -76t-56.5 -57.5t-76.5 -21.5q-47 0 -81.5 34.5t-34.5 82.5zM481 1501q0 39 20 74.5t54 56.5t72 21q55 0 89 -32.5t34 -79.5q0 -40 -21 -76t-56 -57.5t-76 -21.5q-47 0 -81.5 34t-34.5 81z " />
<glyph unicode="&#xa9;" horiz-adv-x="1768" d="M177 806q0 205 102 378.5t275.5 274.5t378.5 101t379 -101t276 -274.5t102 -378.5q0 -206 -102 -379.5t-276 -274.5t-379 -101t-378.5 101t-275.5 274.5t-102 379.5zM297 806q0 -176 84.5 -325t230.5 -236t321 -87t321 87t231 236t85 325t-85 324.5t-231 236t-321 87.5 t-321 -87.5t-230.5 -236t-84.5 -324.5zM542 806q0 121 52 221.5t149 160t226 59.5q68 0 136 -11t98 -27v-206h-75l-54 120q-44 39 -145 39q-63 0 -115.5 -34t-84 -103.5t-31.5 -169.5q0 -130 39.5 -217.5t101 -129t126.5 -41.5t121.5 17.5t98.5 41.5l28 -68 q-46 -38 -127 -65t-166 -27q-117 0 -202.5 59t-130.5 159t-45 222z" />
<glyph unicode="&#xab;" horiz-adv-x="1866" d="M241 530l22 160l693 396l39 -117l-508 -354l413 -350l-72 -113zM916 530l22 160l693 396l39 -117l-508 -354l413 -350l-72 -113z" />
<glyph unicode="&#xad;" horiz-adv-x="1267" d="M233 692l18 160h837l-18 -160h-837z" />
<glyph unicode="&#xae;" horiz-adv-x="1768" d="M177 806q0 205 102 378.5t275.5 274.5t378.5 101t379 -101t276 -274.5t102 -378.5q0 -206 -102 -379.5t-276 -274.5t-379 -101t-378.5 101t-275.5 274.5t-102 379.5zM297 806q0 -176 84.5 -325t230.5 -236t321 -87t321 87t231 236t85 325t-85 324.5t-231 236t-321 87.5 t-321 -87.5t-230.5 -236t-84.5 -324.5zM572 375v74l83 20v665l-83 22v84h144l36 -1q15 0 63 2q105 4 139 4q150 0 232 -62.5t85 -168.5q0 -94 -50.5 -159.5t-183.5 -89.5q50 -28 82 -71.5t70 -112.5q25 -47 43 -74t40 -42q24 -12 66 -12v-78h-162q-22 0 -41.5 29t-49.5 92 q-31 64 -55.5 107t-61.5 83.5t-84 61.5h-86v-279l101 -20v-74h-327zM798 837q40 -8 144 -8q49 0 88 22.5t60.5 60t21.5 81.5q0 82 -49 121.5t-136 39.5h-30q-57 0 -99 -10v-307z" />
<glyph unicode="&#xb4;" horiz-adv-x="559" d="M50 1312l317 431l144 -138q-19 -35 -94 -113.5t-161 -149.5t-141 -92z" />
<glyph unicode="&#xb8;" horiz-adv-x="479" d="M2 -437l16 151q12 -6 39 -10t52 -4q84 0 133 67.5t50 181.5q0 45 -9 81l49 4l54 -4q15 -20 22.5 -59t7.5 -86q0 -115 -37 -193.5t-101 -117.5t-145 -39q-40 0 -77 8t-54 20z" />
<glyph unicode="&#xbb;" horiz-adv-x="1866" d="M126 269l508 354l-413 350l72 113l587 -378l-22 -160l-693 -396zM802 269l508 354l-413 350l72 113l587 -378l-22 -160l-693 -396z" />
<glyph unicode="&#x192;" horiz-adv-x="1058" d="M193 1003l7 79l219 59l8 62q11 140 86.5 251.5t177.5 173.5t189 62q108 0 140 -17l-11 -173q-21 11 -68 21.5t-110 10.5q-62 0 -103.5 -16.5t-70 -70.5t-37.5 -160l-17 -144h306l-12 -138h-306l-172 -1359h-182l172 1359h-216z" />
<glyph unicode="&#x2c6;" horiz-adv-x="795" d="M50 1286l329 365h178l190 -365l-76 -58l-229 271l-333 -270z" />
<glyph unicode="&#x2da;" horiz-adv-x="722" d="M88 1486q0 101 52 169t132.5 100t166.5 32q130 0 202.5 -60t72.5 -168q0 -101 -49.5 -170t-128.5 -102.5t-167 -33.5q-136 0 -208.5 62t-72.5 171zM232 1506q0 -45 20 -83t54.5 -60t77.5 -22q85 0 136.5 45.5t51.5 151.5q0 70 -41.5 114.5t-107.5 44.5q-83 0 -137 -46 t-54 -145z" />
<glyph unicode="&#x2dc;" horiz-adv-x="816" d="M49 1482q22 44 61 83t87.5 62.5t98.5 23.5q48 0 81.5 -20.5t73.5 -59.5q32 -31 53.5 -45.5t49.5 -14.5q34 0 61.5 16t44.5 34.5t48 58.5l59 -92q-17 -51 -54.5 -92t-89 -65t-107.5 -24q-60 0 -94.5 20.5t-70.5 59.5q-30 31 -52 45.5t-56 14.5q-31 0 -71.5 -27t-74.5 -63z " />
<glyph unicode="&#x400;" horiz-adv-x="1233" d="M25 0l11 87l149 29l160 1282l-133 23l12 101h934l-8 -312h-111l-47 189l-437 15l-72 -559l448 8l-13 -159l-447 17l-83 -604l547 24l119 211l109 -30l-88 -322h-1050zM424 1880l135 121l263 -342l-68 -48q-51 19 -121 63.5t-129 100t-80 105.5z" />
<glyph unicode="&#x401;" horiz-adv-x="1233" d="M25 0l11 87l149 29l160 1282l-133 23l12 101h934l-8 -312h-111l-47 189l-437 15l-72 -559l448 8l-13 -159l-447 17l-83 -604l547 24l119 211l109 -30l-88 -322h-1050zM456 1840q0 39 21.5 73.5t55 55.5t67.5 21q55 0 89 -33t34 -80q0 -40 -21.5 -75t-56.5 -56.5 t-75 -21.5q-46 0 -80 34.5t-34 81.5zM875 1842q0 38 22.5 72.5t56.5 55t67 20.5q55 0 88.5 -32.5t33.5 -79.5q0 -40 -21 -75.5t-56 -57t-76 -21.5q-47 0 -81 34.5t-34 83.5z" />
<glyph unicode="&#x402;" horiz-adv-x="1594" d="M83 1055l82 467h1285l-68 -467h-126l3 350l-413 15l-79 -637q81 35 185.5 61.5t210.5 26.5q221 0 300.5 -108.5t79.5 -252.5q0 -111 -56.5 -231.5t-160.5 -202t-240 -81.5q-48 0 -72 6l7 93q13 -2 43.5 1t50.5 8q69 14 115.5 69.5t68.5 127.5t22 135q0 150 -56.5 227 t-197.5 77q-77 0 -152.5 -17.5t-160.5 -44.5l-68 -558l200 -32l-12 -87h-588l12 87l191 32l159 1301l-331 -15l-105 -350h-129z" />
<glyph unicode="&#x403;" horiz-adv-x="1078" d="M4 0l11 87l172 30l158 1281l-184 26l12 98h935l-39 -471h-140l-17 352l-367 9l-160 -1294l317 -31l-9 -87h-689zM538 1659l276 342l126 -121q-24 -52 -84.5 -107t-131 -99t-121.5 -63z" />
<glyph unicode="&#x404;" horiz-adv-x="1225" d="M92 650q0 260 101 462.5t271 314t370 111.5q118 0 200 -13t155 -33l38 -11l-66 -368h-122l-24 262q-31 21 -78.5 33t-128.5 12q-144 0 -245.5 -83t-160 -213t-81.5 -280l611 19l-34 -171l-84 4q-159 7 -279.5 15t-224.5 23q-2 -44 -2 -64q0 -146 34.5 -275t110 -210.5 t192.5 -81.5q79 0 157.5 26t107.5 77q11 31 34 98t34 99l124 -1l-40 -329l-25 -8q-96 -34 -198 -57.5t-234 -23.5q-178 0 -293 96t-167.5 247t-52.5 323z" />
<glyph unicode="&#x405;" horiz-adv-x="1083" d="M54 65l42 282h120l25 -193q40 -27 103 -43.5t124 -16.5q72 0 144.5 27.5t121 87t48.5 147.5q0 72 -32 129.5t-84.5 102.5t-130.5 93q-101 63 -173 124t-119.5 143.5t-47.5 186.5q0 118 66 210.5t176.5 144.5t239.5 52q130 0 221.5 -25.5t143.5 -59.5l-47 -263h-109 l-28 180q-31 22 -85 36.5t-113 14.5q-64 0 -124.5 -24t-99.5 -74t-39 -123q0 -113 67 -194t191 -158q110 -70 174.5 -121.5t110 -127t45.5 -176.5q0 -137 -68 -239t-187 -156.5t-268 -54.5q-88 0 -172.5 13.5t-147.5 34.5t-88 40z" />
<glyph unicode="&#x406;" horiz-adv-x="708" d="M28 0l9 87l148 30l161 1281l-133 23l12 101h490l-11 -101l-153 -23l-162 -1281l158 -29l-8 -88h-511z" />
<glyph unicode="&#x407;" horiz-adv-x="708" d="M28 0l9 87l148 30l161 1281l-133 23l12 101h490l-11 -101l-153 -23l-162 -1281l158 -29l-8 -88h-511zM203 1840q0 39 21.5 73.5t55 55.5t67.5 21q55 0 89 -33t34 -80q0 -40 -21.5 -75t-56.5 -56.5t-75 -21.5q-46 0 -80 34.5t-34 81.5zM622 1842q0 38 22.5 72.5t56.5 55 t67 20.5q55 0 88.5 -32.5t33.5 -79.5q0 -40 -21 -75.5t-56 -57t-76 -21.5q-47 0 -81 34.5t-34 83.5z" />
<glyph unicode="&#x408;" horiz-adv-x="726" d="M-152 -256q87 25 163 80.5t127 125.5t66 136q39 181 65 388t55 516q26 271 42 408l-141 23l14 101h490l-11 -101l-155 -22q-18 -169 -23 -217q-63 -582 -91 -816.5t-47 -290.5q-60 -188 -201.5 -289.5t-316.5 -130.5z" />
<glyph unicode="&#x409;" horiz-adv-x="1874" d="M-57 37l45 208q12 -16 51 -35.5t81 -19.5q76 0 156.5 145.5t145 393.5t93.5 540l13 121l-217 32l13 100h1084l-12 -100l-181 -25l-71 -567q113 24 220 24q218 0 334 -91t116 -258q0 -166 -77.5 -284t-210 -177.5t-296.5 -59.5q-14 0 -108 6q-99 8 -175 10h-266l8 88 l162 29l163 1295h-360l-17 -151q-32 -302 -107 -596.5t-184.5 -487.5t-236.5 -193q-57 0 -90 11.5t-76 41.5zM1055 115q84 -21 193 -21q110 0 191 45t125 130.5t44 204.5q0 124 -82.5 188.5t-225.5 64.5q-103 0 -171 -15z" />
<glyph unicode="&#x40a;" horiz-adv-x="1988" d="M28 0l10 87l147 30l161 1281l-133 23l12 101h491l-11 -101l-154 -23l-70 -554h649l70 554l-151 23l10 101h495l-12 -101l-138 -23l-71 -568q110 24 220 24q218 0 334 -91t116 -258q0 -166 -77.5 -284t-210.5 -177.5t-296 -59.5q-15 0 -111 6q-128 10 -185 10h-255l8 88 l164 30l74 596h-650l-75 -597l158 -29l-8 -88h-511zM1243 115q84 -21 194 -21q109 0 190.5 45t125.5 130.5t44 204.5q0 124 -82.5 188.5t-225.5 64.5q-104 0 -171 -15z" />
<glyph unicode="&#x40b;" horiz-adv-x="1551" d="M83 1056l77 466h1247l-68 -467h-126l3 350l-380 9l-81 -567q75 38 164.5 57t176.5 19q113 0 188.5 -26.5t117.5 -96t42 -195.5q0 -49 -8 -119l-46 -369l134 -30l-11 -87h-475l9 87l138 30l28 221q11 88 16 143.5t5 98.5q0 76 -20.5 119t-69.5 63t-139 20q-66 0 -145 -16 t-122 -37l-88 -612l186 -30l-9 -87h-593l9 87l209 30l179 1297l-336 -17l-96 -341h-116z" />
<glyph unicode="&#x40c;" horiz-adv-x="1326" d="M28 0l9 87l148 30l161 1281l-133 23l12 101h488l-11 -101l-155 -23l-76 -604h158l467 599l-155 29l12 100h463l-12 -100l-146 -25l-505 -622q52 -37 108 -127.5t134 -240.5q69 -133 111 -201t74 -79l86 -27l-12 -100h-230q-29 0 -64 45.5t-68.5 111.5t-85.5 179 q-53 115 -87.5 184t-71 116.5t-68.5 47.5h-122l-71 -567l158 -29l-8 -88h-508zM482 1933q0 26 1.5 43.5t7.5 36.5h178q28 0 28 -46q0 -20 -3 -43q-2 -28 -2 -39q0 -69 38.5 -104t139.5 -35q70 0 109 23t55.5 63t23.5 102q5 36 15 57.5t31 21.5h147q0 -11 -2 -33 q-19 -168 -125 -250.5t-267 -82.5q-105 0 -190 31t-135 95.5t-50 159.5z" />
<glyph unicode="&#x40d;" horiz-adv-x="1599" d="M28 0l10 87l147 30l161 1281l-133 23l12 101h485l-11 -101l-154 -23l-126 -1002l125 165l699 732l13 105l-133 23l12 101h485l-12 -101l-154 -23l-161 -1281l158 -29l-8 -88h-505l9 87l148 30l126 1001l-106 -141l-719 -760l-12 -100l157 -29l-8 -88h-505zM666 1880 l135 121l263 -342l-68 -48q-51 19 -121 63.5t-129 100t-80 105.5z" />
<glyph unicode="&#x40e;" horiz-adv-x="1218" d="M106 1421l12 101h494l-10 -100l-166 -25l210 -732l37 -183l67 185l333 730l-153 24l12 101h412l-12 -100l-104 -25l-523 -1058q-6 -11 -18 -37q-46 -94 -87.5 -160t-108 -115.5t-154.5 -49.5q-49 0 -92 10.5t-73 27.5l18 157h146q62 0 102 10.5t69 40.5t50 88l-339 1086z M434 1933q0 26 1.5 43.5t7.5 36.5h178q28 0 28 -46q0 -20 -3 -43q-2 -28 -2 -39q0 -69 38.5 -104t139.5 -35q70 0 109 23t55.5 63t23.5 102q5 36 15 57.5t31 21.5h147q0 -11 -2 -33q-19 -168 -125 -250.5t-267 -82.5q-105 0 -190 31t-135 95.5t-50 159.5z" />
<glyph unicode="&#x40f;" horiz-adv-x="1506" d="M28 0l9 87l148 30l161 1281l-134 23l13 101h488l-11 -101l-151 -23l-162 -1281h618l162 1281l-149 23l10 101h492l-12 -101l-138 -23l-160 -1280l151 -31l-9 -87h-560l-81 -341h-129l25 341h-581z" />
<glyph unicode="&#x410;" horiz-adv-x="1342" d="M-120 0l9 87l119 29l707 1406h205l253 -1403l156 -32l-7 -87h-515l5 87l156 29l-50 319h-567l-150 -318l160 -30l-6 -87h-475zM408 557h491l-104 676l-11 121z" />
<glyph unicode="&#x411;" horiz-adv-x="1241" d="M2 0l10 87l175 30l158 1280l-156 25l12 100h1015l-26 -367h-130l-40 256l-482 1l-63 -505q40 9 107 16.5t129 7.5q216 0 330.5 -98.5t114.5 -277.5q0 -163 -73.5 -293t-207 -204t-307.5 -74q-15 0 -111 6q-128 10 -185 10h-270zM377 113q37 -10 75 -14.5t116 -4.5 q120 0 206.5 56t131.5 154t45 222q0 137 -82 207.5t-223 70.5q-52 0 -103 -4t-82 -11z" />
<glyph unicode="&#x412;" horiz-adv-x="1295" d="M28 0l9 87l148 30l161 1281l-133 23l12 101h229q38 0 84.5 3t61.5 4q102 8 159 8q149 0 248.5 -44t147 -116t49.5 -159q3 -158 -75.5 -258.5t-224.5 -149.5q84 -12 150.5 -56.5t104 -115.5t37.5 -158q0 -170 -90.5 -281t-242 -162t-340.5 -51q-30 0 -73.5 3t-59.5 4 q-79 7 -124 7h-238zM388 127q25 -10 80.5 -15t97.5 -5q194 0 303.5 83t109.5 267q0 137 -70 202.5t-223 65.5q-126 0 -224 -7zM479 852q44 -2 73 -2l100 1q100 0 179 35.5t125 109.5t46 185q0 83 -28 135.5t-91.5 78t-170.5 25.5q-34 0 -83 -2.5t-80 -8.5z" />
<glyph unicode="&#x413;" horiz-adv-x="1078" d="M4 0l11 87l172 30l158 1281l-184 26l12 98h935l-39 -471h-140l-17 352l-367 9l-160 -1294l317 -31l-9 -87h-689z" />
<glyph unicode="&#x414;" horiz-adv-x="1342" d="M-54 -342q7 76 23.5 234t24.5 231l1 -2v2h137q48 50 119 185t145 379t115 582l15 128l-217 25l13 100h1040l-12 -100l-143 -26l-161 -1273h185l-3 -114l4 -4q-14 -79 -30 -155t-20 -94q-6 -24 -22 -98h-126l3 67q7 107 7 175q0 56 -6 100h-868q-20 -54 -51 -170t-40 -172 h-133zM304 123h537l164 1288h-354l-17 -154q-34 -294 -96.5 -534.5t-126.5 -394t-107 -205.5z" />
<glyph unicode="&#x415;" horiz-adv-x="1232" d="M25 0l11 87l149 29l160 1282l-133 23l12 101h934l-8 -312h-111l-47 189l-437 15l-72 -559l448 8l-13 -159l-447 17l-83 -604l547 24l119 211l109 -30l-88 -322h-1050z" />
<glyph unicode="&#x416;" horiz-adv-x="2018" d="M-30 0l12 87l82 30q34 11 94 77t171 202q134 164 222.5 260t152.5 127l-390 615l-146 24l12 100h464l-12 -100l-151 -25l349 -603h126l76 604l-134 23l12 101h481l-11 -101l-153 -23l-77 -604h146l484 603l-147 24l13 101h462l-13 -100l-149 -26l-526 -611 q54 -27 113.5 -116t146.5 -247q78 -140 125 -212t87 -93l91 -30l-12 -87h-256q-29 0 -63.5 45t-67.5 110.5t-86 179.5q-52 114 -87.5 184t-72 117.5t-68.5 47.5h-134l-71 -567l158 -29l-8 -88h-501l9 87l148 30l71 567h-110q-33 0 -81.5 -48t-100.5 -118t-134 -187 q-79 -113 -127 -177.5t-92.5 -109t-73.5 -44.5h-253z" />
<glyph unicode="&#x417;" horiz-adv-x="1156" d="M10 68l88 331h104v-237q42 -23 113 -36.5t167 -13.5q105 0 186.5 43.5t127.5 129.5t46 208q0 116 -69.5 174.5t-237.5 58.5l-146 -11l14 128h122q82 0 158 40.5t124.5 124.5t48.5 207q0 102 -54.5 154.5t-156.5 52.5q-95 0 -161 -23.5t-90 -66.5l-46 -162h-120l21 301 q22 1 56.5 8.5t70.5 16.5q81 20 139 31t117 11q140 0 238 -35.5t147.5 -100.5t49.5 -155q0 -128 -50.5 -220.5t-128 -145.5t-163.5 -72q173 -4 257 -87t84 -217q0 -156 -87 -273.5t-236 -180.5t-329 -63q-131 0 -234 24.5t-170 55.5z" />
<glyph unicode="&#x418;" horiz-adv-x="1599" d="M28 0l10 87l147 30l161 1281l-133 23l12 101h485l-11 -101l-154 -23l-126 -1002l125 165l699 732l13 105l-133 23l12 101h485l-12 -101l-154 -23l-161 -1281l158 -29l-8 -88h-505l9 87l148 30l126 1001l-106 -141l-719 -760l-12 -100l157 -29l-8 -88h-505z" />
<glyph unicode="&#x419;" horiz-adv-x="1599" d="M28 0l10 87l147 30l161 1281l-133 23l12 101h485l-11 -101l-154 -23l-126 -1002l125 165l699 732l13 105l-133 23l12 101h485l-12 -101l-154 -23l-161 -1281l158 -29l-8 -88h-505l9 87l148 30l126 1001l-106 -141l-719 -760l-12 -100l157 -29l-8 -88h-505zM543 1933 q0 26 1.5 43.5t7.5 36.5h178q28 0 28 -46q0 -20 -3 -43q-2 -28 -2 -39q0 -69 38.5 -104t139.5 -35q70 0 109 23t55.5 63t23.5 102q5 36 15 57.5t31 21.5h147q0 -11 -2 -33q-19 -168 -125 -250.5t-267 -82.5q-105 0 -190 31t-135 95.5t-50 159.5z" />
<glyph unicode="&#x41a;" horiz-adv-x="1326" d="M28 0l9 87l148 30l161 1281l-133 23l12 101h488l-11 -101l-155 -23l-76 -604h158l467 599l-155 29l12 100h463l-12 -100l-146 -25l-505 -622q52 -37 108 -127.5t134 -240.5q69 -133 111 -201t74 -79l86 -27l-12 -100h-230q-29 0 -64 45.5t-68.5 111.5t-85.5 179 q-53 115 -87.5 184t-71 116.5t-68.5 47.5h-122l-71 -567l158 -29l-8 -88h-508z" />
<glyph unicode="&#x41b;" horiz-adv-x="1351" d="M-56 36l46 210q12 -16 49.5 -35t79.5 -19q75 0 152 134q81 140 147 391.5t96 551.5l13 121l-216 32l12 100h1085l-12 -100l-181 -25l-160 -1280l153 -31l-9 -86h-518l8 88l162 29l163 1295h-360l-17 -151q-28 -258 -87.5 -517t-141.5 -445q-65 -150 -140 -232.5 t-157 -82.5q-57 0 -90.5 11.5t-76.5 40.5z" />
<glyph unicode="&#x41c;" horiz-adv-x="1876" d="M-54 0l10 88l160 29l317 1281l-161 23l12 101h447l164 -1044l15 -167l65 167q71 172 233 536q161 361 222 508h424l-11 -101l-165 -23l-25 -1280l154 -30l-9 -88h-533l9 88l176 28l37 901l30 403l-137 -355l-471 -1068l-112 -15l-172 1059l-61 377l-72 -387l-212 -914 l187 -29l-9 -88h-512z" />
<glyph unicode="&#x41d;" horiz-adv-x="1538" d="M28 0l10 87l147 30l161 1281l-133 23l12 101h491l-11 -101l-154 -23l-70 -554h649l70 554l-151 23l10 101h495l-12 -101l-138 -23l-161 -1280l152 -31l-9 -87h-518l8 88l164 30l74 596h-650l-75 -597l158 -29l-8 -88h-511z" />
<glyph unicode="&#x41e;" horiz-adv-x="1383" d="M119 642q0 255 90 460.5t248.5 322.5t354.5 117q166 0 279 -87.5t167.5 -235.5t54.5 -331q0 -256 -90 -463.5t-248 -326t-355 -118.5q-166 0 -279 89t-167.5 239t-54.5 334zM327 672q0 -170 36 -299t108 -201t177 -72q127 0 230 97t162 269t59 387q0 172 -36 298.5 t-108 196t-177 69.5q-127 0 -230 -95.5t-162 -265.5t-59 -384z" />
<glyph unicode="&#x41f;" horiz-adv-x="1492" d="M28 0l10 87l146 30l161 1272l-167 33l12 100h1330l-9 -100l-154 -25l-162 -1281l158 -29l-8 -87h-510l9 87l147 30l162 1281h-604l-161 -1281l159 -30l-8 -87h-511z" />
<glyph unicode="&#x420;" horiz-adv-x="1239" d="M28 0l9 87l148 30l161 1281l-133 23l12 101h255q45 0 137 8q86 9 150 9q227 0 344 -100.5t117 -304.5q0 -186 -83 -319.5t-224 -202.5t-311 -69q-122 0 -170 4l-51 -430l200 -29l-8 -88h-553zM455 677q85 -14 165 -14q142 1 227.5 54t124.5 155.5t42 258.5 q2 96 -21.5 159t-81.5 96.5t-160 33.5q-39 0 -98.5 -5.5t-101.5 -15.5z" />
<glyph unicode="&#x421;" horiz-adv-x="1225" d="M92 650q0 260 101 462.5t271 314t370 111.5q118 0 200 -13t155 -33l38 -11l-66 -368h-122l-24 262q-31 21 -78.5 33t-128.5 12q-174 0 -286.5 -119t-163 -292.5t-50.5 -343.5q0 -145 34.5 -272.5t110.5 -208.5t192 -81q79 0 157.5 26t107.5 77q11 31 34 98t34 99l124 -1 l-40 -329l-25 -8q-96 -34 -198 -57.5t-234 -23.5q-178 0 -293 96t-167.5 247t-52.5 323z" />
<glyph unicode="&#x422;" horiz-adv-x="1234" d="M83 1051l77 471h1148l-67 -471h-111l7 342l-321 21l-166 -1297l250 -23l-7 -94h-700l9 94l244 23l165 1297l-316 -20l-96 -341z" />
<glyph unicode="&#x423;" horiz-adv-x="1218" d="M106 1421l12 101h494l-10 -100l-166 -25l210 -732l37 -183l67 185l333 730l-153 24l12 101h412l-12 -100l-104 -25l-523 -1058q-6 -11 -18 -37q-46 -94 -87.5 -160t-108 -115.5t-154.5 -49.5q-49 0 -92 10.5t-73 27.5l18 157h146q62 0 102 10.5t69 40.5t50 88l-339 1086z " />
<glyph unicode="&#x424;" horiz-adv-x="1458" d="M57 663q0 180 79.5 328.5t232.5 242t365 113.5l15 111l-171 26l12 101h539l-12 -101l-177 -26l-14 -109q295 -15 413 -134t118 -312q0 -178 -81 -329.5t-235 -250t-363 -119.5l-16 -124l170 -32l-12 -95h-538l12 100l177 28l15 119q-292 15 -410.5 140t-118.5 323z M258 681q0 -152 76.5 -257t264.5 -126l124 959q-269 -28 -367 -192t-98 -384zM790 298q258 29 362 193t104 401q0 149 -77 246.5t-265 118.5z" />
<glyph unicode="&#x425;" horiz-adv-x="1297" d="M-63 0l11 88l121 28l499 651l-301 628l-138 26l10 101h522l-11 -101l-145 -23l200 -503l338 503l-140 23l12 101h471l-10 -101l-137 -23l-470 -621l332 -660l153 -29l-9 -88h-542l8 88l151 28l-234 526l-360 -525l149 -30l-8 -87h-472z" />
<glyph unicode="&#x426;" horiz-adv-x="1552" d="M-16 0l10 87l191 30l159 1280l-133 24l12 101h490l-11 -100l-154 -25l-160 -1270h603l155 1270l-130 25l12 100h464l-12 -100l-141 -24l-159 -1270h250q-16 -95 -44.5 -238.5t-47.5 -231.5h-126l3 69q7 110 7 178q0 61 -5 95h-1233z" />
<glyph unicode="&#x427;" horiz-adv-x="1283" d="M80 1421l12 101h476l-11 -101l-138 -27l-26 -210q-11 -90 -16 -144.5t-5 -97.5q0 -76 20 -119t69 -63t138 -20q67 0 146.5 16.5t123.5 37.5l76 604l-154 23l12 101h491l-11 -101l-134 -23l-161 -1281l139 -30l-9 -87h-512l10 87l168 30l70 560q-76 -39 -167 -58.5 t-179 -19.5q-113 0 -188 26.5t-117 96t-42 195.5q0 49 8 119l45 361z" />
<glyph unicode="&#x428;" horiz-adv-x="2085" d="M29 0l10 87l147 30l161 1281l-133 24l12 100h487l-12 -100l-164 -25l-158 -1281h498l161 1281l-133 25l12 100h482l-11 -100l-154 -25l-162 -1281h482l160 1281l-131 25l12 100h479l-11 -100l-153 -24l-157 -1270l181 -28l-12 -100h-1893z" />
<glyph unicode="&#x429;" horiz-adv-x="2109" d="M29 0l10 87l147 30l161 1281l-133 24l12 100h482l-12 -100l-164 -25l-158 -1281h503l161 1281l-133 25l12 100h478l-11 -100l-154 -24l-159 -1282h488l160 1281l-131 25l12 100h474l-11 -100l-153 -24l-159 -1281h261q-21 -129 -93 -459h-126l4 82q7 101 7 165 q0 54 -6 95h-1769z" />
<glyph unicode="&#x42a;" horiz-adv-x="1524" d="M136 1051l82 471h834l-10 -101l-155 -23l-61 -491q40 9 107 16.5t129 7.5q216 0 330.5 -98.5t114.5 -277.5q0 -163 -73.5 -293t-207.5 -204t-308 -74q-13 0 -117 6q-136 10 -193 10h-262l11 87l165 30l163 1295l-315 -7l-104 -354h-130zM728 113q36 -10 74.5 -14.5 t115.5 -4.5q121 0 207.5 56t131.5 154t45 222q0 137 -82 207.5t-223 70.5q-53 0 -103.5 -4t-81.5 -11z" />
<glyph unicode="&#x42b;" horiz-adv-x="1918" d="M28 0l9 87l148 30l161 1281l-133 23l12 101h490l-11 -101l-153 -23l-162 -1281l158 -29l-8 -88h-511zM736 0l9 87l148 30l161 1280l-133 24l12 101h490l-11 -101l-154 -23l-72 -569l1 1q110 24 221 24q218 0 333.5 -91t115.5 -258q0 -166 -77.5 -284t-210 -177.5 t-296.5 -59.5q-15 0 -111 6q-126 10 -184 10h-242zM1097 115q84 -21 195 -21q109 0 190.5 45t125.5 130.5t44 204.5q0 124 -83 188.5t-225 64.5q-104 0 -171 -15h-1z" />
<glyph unicode="&#x42c;" horiz-adv-x="1210" d="M28 0l9 87l148 30l161 1280l-133 24l12 101h490l-11 -101l-154 -23l-72 -569l1 1q110 24 221 24q218 0 333.5 -91t115.5 -258q0 -166 -77.5 -284t-210 -177.5t-296.5 -59.5q-15 0 -111 6q-126 10 -184 10h-242zM389 115q84 -21 195 -21q109 0 190.5 45t125.5 130.5 t44 204.5q0 124 -83 188.5t-225 64.5q-104 0 -171 -15h-1z" />
<glyph unicode="&#x42d;" horiz-adv-x="1222" d="M45 346l124 11l60 -166q75 -99 271 -99q122 0 229 77t180 222.5t94 342.5q-104 -15 -226 -23t-283 -15l-81 -4l-34 171l631 -20q1 14 1 41q0 151 -38.5 273t-122.5 195t-214 73q-100 0 -162 -29.5t-106 -80.5l-63 -165h-133l50 309q26 1 52.5 8t63.5 19q78 25 148.5 38.5 t175.5 13.5q179 0 308.5 -81t198 -227.5t68.5 -340.5q0 -258 -107.5 -467t-289.5 -327t-396 -118q-82 0 -139.5 13t-121.5 36q-40 15 -66.5 22t-54.5 7z" />
<glyph unicode="&#x42e;" horiz-adv-x="2042" d="M28 0l9 87l148 30l161 1281l-133 23l12 101h490l-11 -101l-153 -23l-70 -555h311q33 205 128 364t237.5 247t312.5 88q166 0 279 -87.5t167.5 -235.5t54.5 -331q0 -256 -90 -463.5t-248 -326t-355 -118.5q-163 0 -274.5 85.5t-167.5 230.5t-59 323q-1 47 2 105h-313 l-77 -607l158 -29l-8 -88h-511zM985 672q0 -170 36 -299t108 -201t177 -72q127 0 230 97t162 269t59 387q0 172 -36 298.5t-108 196t-177 69.5q-127 0 -230 -95.5t-162 -265.5t-59 -384z" />
<glyph unicode="&#x42f;" horiz-adv-x="1317" d="M-86 0l11 86l74 30q34 8 77.5 66.5t121.5 182.5q85 137 142.5 216t113.5 113q-108 39 -169 128.5t-61 206.5q0 152 70.5 267t205.5 178.5t323 63.5q50 0 138 -8t139 -8h247l-11 -100l-154 -25l-160 -1280l157 -30l-8 -87h-501l10 87l147 30l72 558q-26 -2 -187 -2 q-40 -1 -90 -1q-50 -40 -105 -129t-136 -240q-81 -153 -130 -228t-83 -75h-254zM434 1069q0 -88 41 -152t115 -97.5t171 -33.5q103 0 153 6l74 606q-15 1 -39 6q-42 8 -81.5 12.5t-92.5 4.5q-180 0 -260.5 -92.5t-80.5 -259.5z" />
<glyph unicode="&#x430;" horiz-adv-x="1175" d="M82 412q0 163 79.5 339t228 294t342.5 118q46 0 99 -10t100 -25l121 34l-131 -973q-1 -8 -1 -21q0 -27 9 -41t22 -14q15 0 35 10t53 36l31 -54q-9 -17 -42.5 -47t-82 -54t-100.5 -24q-64 0 -98.5 32.5t-30.5 102.5l7 66q-66 -85 -152 -143t-177 -58q-161 0 -236.5 116 t-75.5 316zM293 435q0 -312 142 -312q79 0 163.5 69.5t145.5 156.5l86 660q-49 31 -129 31q-133 0 -225 -95.5t-137.5 -236t-45.5 -273.5z" />
<glyph unicode="&#x431;" horiz-adv-x="1115" d="M75 514q0 336 121.5 591t309.5 391.5t380 136.5q15 0 26.5 8.5t22.5 25.5l63 98h102l-38 -230q-4 -30 -11 -45t-23.5 -21.5t-48.5 -6.5q-173 0 -310 -53.5t-247 -202t-170 -418.5q66 142 181 233.5t263 91.5q184 0 268 -109.5t84 -304.5q0 -190 -74.5 -354t-206 -262.5 t-293.5 -98.5q-133 0 -222.5 72t-133 192t-43.5 266zM280 467q0 -168 56 -269.5t163 -101.5q117 0 192.5 85t109 211t33.5 253q0 164 -46.5 251t-153.5 87q-104 0 -185 -82t-125.5 -203.5t-43.5 -230.5z" />
<glyph unicode="&#x432;" horiz-adv-x="1105" d="M83 450q0 229 97.5 387t238.5 235.5t268 77.5q106 0 176 -27t102.5 -70t32.5 -92q0 -105 -62 -179t-206 -126q91 1 150.5 -32.5t87 -88.5t27.5 -117q0 -118 -60 -218t-179 -159.5t-288 -59.5q-101 0 -189.5 57t-142 164t-53.5 248zM293 458l1 -73q0 -77 25.5 -142.5 t75.5 -105t120 -39.5q77 0 138.5 33.5t96.5 96t35 145.5q0 94 -48 152t-158 58q-15 0 -55 -4l-225 -34q-6 -29 -6 -87zM317 649l142 24q159 27 238 80.5t79 151.5q0 61 -36 93t-117 32q-51 0 -120.5 -43.5t-123.5 -129.5t-62 -208z" />
<glyph unicode="&#x433;" horiz-adv-x="841" d="M40 245q0 89 38.5 155t97 112.5t158.5 110.5q10 7 19 13t16 10q107 70 151 133t44 141q0 46 -29 79t-81 33q-57 0 -111.5 -14t-93 -32t-49.5 -29l-22 99q51 40 131.5 73.5t184.5 33.5q85 0 151 -27t103 -77.5t37 -119.5q0 -88 -40 -156t-96 -115t-145 -106l-59 -40 q-75 -54 -113 -86.5t-61 -72t-23 -91.5q0 -67 40 -111t125 -44q49 0 85.5 9.5t63 23.5t67.5 42q9 6 16 11t13 9l31 -97q-52 -59 -151.5 -97t-193.5 -38q-85 0 -155 36.5t-109.5 97t-39.5 131.5z" />
<glyph unicode="&#x434;" horiz-adv-x="1162" d="M105 420q0 187 81.5 351.5t220 263.5t299.5 99q93 0 161 -37q-14 230 -90.5 346t-221.5 116q-55 0 -109 -15t-116 -57l-58 69q74 63 172.5 94.5t183.5 31.5q256 0 353.5 -203.5t97.5 -504.5q0 -236 -61.5 -464t-199.5 -381t-354 -153q-116 0 -197 58t-121.5 158 t-40.5 228zM313 455q0 -102 12 -177t53.5 -125.5t122.5 -50.5q193 0 280.5 229.5t88.5 650.5q-34 24 -75.5 35t-94.5 11q-96 0 -186 -76.5t-145.5 -208t-55.5 -288.5z" />
<glyph unicode="&#x435;" horiz-adv-x="1052" d="M85 430q5 189 84 358t213 272t295 103q94 0 158.5 -32.5t96 -89t31.5 -128.5q0 -143 -117 -244t-274.5 -153t-271.5 -56q-2 -26 -2 -41q0 -71 22 -139.5t70.5 -114t123.5 -45.5q82 0 170 36t168 111l47 -84q-32 -44 -93.5 -91t-144.5 -79.5t-174 -32.5q-136 0 -227.5 63 t-134.5 165.5t-40 221.5zM305 570q88 4 193.5 45t180.5 114t75 167q-1 75 -34.5 112t-90.5 37q-93 0 -163 -78.5t-110 -189t-51 -207.5z" />
<glyph unicode="&#x436;" horiz-adv-x="1832" d="M-38 15l70 189l108 -111q51 0 114 72t107 202.5t44 296.5q0 169 -42 249.5t-111 80.5q-50 0 -86.5 -20.5t-97.5 -81.5l-43 53q136 201 287 201q87 0 153 -54t102.5 -155.5t36.5 -240.5q0 -20 -2 -58h214l59 498h200l-59 -498h208q33 139 104 255t171 184.5t214 68.5 q46 0 77 -8.5t53 -26.5l-70 -189l-109 111q-51 0 -113.5 -72t-106.5 -202.5t-44 -296.5q0 -169 41.5 -249.5t111.5 -80.5q50 0 86 20.5t98 81.5l42 -53q-136 -201 -287 -201q-87 0 -153 54t-102.5 155.5t-36.5 240.5q0 58 7 108h-203l-64 -539l-199 1l63 538h-214 q-27 -150 -98 -277.5t-175 -204t-225 -76.5q-46 0 -77 8.5t-53 26.5z" />
<glyph unicode="&#x437;" horiz-adv-x="1033" d="M23 71l72 191l110 -114q43 -31 83 -41t99 -10q164 0 240 69t76 187q0 89 -57.5 138.5t-197.5 49.5l-111 -21l24 133l63 6q100 11 166.5 48.5t98.5 89.5t32 108q0 68 -47.5 105t-159.5 37q-87 0 -136 -18t-72 -42l-63 -178h-113l36 297q39 0 70 5.5t79 17.5 q62 16 114.5 24t130.5 8q172 0 267.5 -63t95.5 -176q0 -59 -42 -120.5t-111 -110.5t-146 -74q139 -6 217.5 -70.5t78.5 -169.5q0 -117 -70.5 -206.5t-189.5 -138t-262 -48.5q-126 0 -214 25t-161 62z" />
<glyph unicode="&#x438;" horiz-adv-x="1210" d="M149 1023l18 89l249 51l48 -24l-69 -550q-3 -24 -5.5 -43t-4.5 -35q-11 -78 -15.5 -126t-4.5 -99q0 -97 35 -132.5t106 -35.5q66 0 136 46t122 114l116 877h199l-125 -964q-3 -19 -3 -34q0 -42 25 -42q17 0 40.5 14t65.5 52l31 -54q-13 -20 -50.5 -55t-90.5 -62.5 t-108 -27.5q-56 0 -86 29t-30 81q0 18 5 45l-1 9q-143 -166 -332 -166q-123 0 -190 63t-67 211q0 58 8.5 135t26.5 208l51 366z" />
<glyph unicode="&#x439;" horiz-adv-x="1210" d="M149 1023l18 89l249 51l48 -24l-69 -550q-3 -24 -5.5 -43t-4.5 -35q-11 -78 -15.5 -126t-4.5 -99q0 -97 35 -132.5t106 -35.5q66 0 136 46t122 114l116 877h199l-125 -964q-3 -19 -3 -34q0 -42 25 -42q17 0 40.5 14t65.5 52l31 -54q-13 -20 -50.5 -55t-90.5 -62.5 t-108 -27.5q-56 0 -86 29t-30 81q0 18 5 45l-1 9q-143 -166 -332 -166q-123 0 -190 63t-67 211q0 58 8.5 135t26.5 208l51 366zM308 1555q0 26 1.5 43.5t7.5 36.5h177q28 0 28 -46q0 -20 -3 -43q-2 -28 -2 -39q0 -59 39 -89.5t139 -30.5q70 0 109 20.5t55.5 56.5t23.5 92 q5 36 15 57.5t31 21.5h147q0 -11 -2 -33q-19 -158 -125 -236.5t-267 -78.5q-104 0 -189 29.5t-135 89.5t-50 149z" />
<glyph unicode="&#x43a;" horiz-adv-x="1113" d="M133 0l130 963l-98 59l18 89l247 52l55 -25l-67 -499h133q82 66 140 123t121 139q11 12 21.5 38.5t10.5 51.5q0 9 -4 27q-5 17 -5 34q0 32 20 56.5t52 38t66 13.5q40 0 67 -20.5t27 -61.5q0 -69 -51.5 -142.5t-123 -138.5t-186.5 -157l-65 -53q35 -44 112 -167 q85 -135 140.5 -209t97.5 -83l74 -36l-12 -92h-192q-40 0 -79 39.5t-72.5 97t-80.5 150.5q-45 87 -73 136t-59.5 82.5t-62.5 33.5h-29l-72 -539h-200z" />
<glyph unicode="&#x43b;" horiz-adv-x="1140" d="M-52 8l50 223q8 -6 59.5 -20t67.5 -14q24 0 46 33q56 78 109 303t83 472l-179 29l13 102h817l-112 -948q-1 -10 -1 -26q0 -50 23 -50q30 0 87 46l31 -53q-10 -17 -48 -47.5t-89.5 -54.5t-102.5 -24q-60 0 -94 26t-34 81q0 9 2 27l115 894h-316q-34 -290 -90.5 -544 t-109.5 -335q-31 -48 -60 -78t-73 -48t-107 -18q-18 0 -51 9t-36 15z" />
<glyph unicode="&#x43c;" horiz-adv-x="1623" d="M-70 8l50 223q7 -6 73 -20t83 -14q68 154 112 327.5t83 377.5q13 69 21 103l-178 29l12 102h454l135 -669l33 -205l76 205l312 669h247l3 -907q3 -43 12 -80t22 -37q31 0 87 46l32 -54q-10 -16 -46 -46.5t-86 -54.5t-101 -24q-62 0 -92.5 30.5t-31.5 101.5l7 578l18 336 l-151 -334l-338 -706h-88l-157 702l-68 314l-64 -316q-41 -202 -77 -332.5t-80 -224.5q-34 -73 -84 -108.5t-144 -35.5q-18 0 -50.5 8.5t-35.5 15.5z" />
<glyph unicode="&#x43d;" horiz-adv-x="1303" d="M133 0l130 963l-99 59l18 89l248 52l55 -25l-66 -491h497l61 489h195l-110 -948q-1 -10 -1 -26q0 -50 23 -50q30 0 87 46l31 -53q-10 -17 -45 -47.5t-84.5 -54.5t-100.5 -24q-59 0 -94 26t-35 81q0 8 2 26l56 416h-498l-70 -528h-200z" />
<glyph unicode="&#x43e;" horiz-adv-x="1145" d="M85 452q0 181 74 345t204.5 265t291.5 101q193 0 296.5 -124t103.5 -349q0 -181 -74 -345t-204.5 -264.5t-292.5 -100.5q-193 0 -296 123.5t-103 348.5zM299 463q0 -174 55 -267.5t165 -93.5q104 0 177 88.5t108.5 222.5t35.5 270q0 171 -56 264t-165 93 q-104 0 -176 -87.5t-108 -220.5t-36 -269z" />
<glyph unicode="&#x43f;" horiz-adv-x="1260" d="M133 0l130 963l-98 59l18 89l247 52l48 -24l-20 -212q85 105 192.5 170.5t214.5 65.5q110 0 168.5 -70t58.5 -232q0 -54 -10.5 -123.5t-29.5 -171.5q-9 -46 -11 -61q-20 -113 -30.5 -182t-13.5 -136q-1 -8 -1 -23q0 -26 5 -39t17 -13q30 0 87 46l31 -53 q-10 -17 -44.5 -47.5t-83 -54.5t-100.5 -24q-66 0 -98 32t-28 102q3 55 13.5 123t29.5 172l6 35q1 7 11 59q22 119 33.5 198.5t11.5 148.5t-13.5 102t-36 42.5t-63.5 9.5q-74 0 -168.5 -69t-169.5 -175l-103 -759h-200z" />
<glyph unicode="&#x440;" horiz-adv-x="1162" d="M37 -520l203 1500l-109 52l18 79l258 52l47 -24l-14 -132q53 68 129 112t166 44q112 0 188.5 -55t114.5 -152.5t38 -225.5q0 -164 -78.5 -339.5t-224.5 -293t-337 -117.5q-60 0 -133 15l-71 -515h-195zM323 137q51 -35 144 -35q129 0 219.5 97.5t134.5 240.5t44 277 q0 143 -44.5 222.5t-122.5 79.5t-151.5 -50.5t-124.5 -118.5z" />
<glyph unicode="&#x441;" horiz-adv-x="882" d="M76 431q0 163 70 333.5t204.5 284.5t317.5 114q55 0 117 -13.5t104 -34.5l-59 -199q-4 3 -23 17q-103 83 -186 83q-99 0 -173.5 -65t-115.5 -190t-41 -301q0 -172 53.5 -255.5t149.5 -83.5q70 0 125 25t143 89l40 -82q-54 -64 -147.5 -118.5t-219.5 -54.5 q-112 0 -193 53.5t-123.5 155t-42.5 242.5z" />
<glyph unicode="&#x442;" horiz-adv-x="1885" d="M133 0l130 963l-99 59l18 89l247 52l48 -24l-19 -212q85 105 192 170.5t214 65.5q100 0 156 -57.5t65 -190.5q81 110 185.5 179t210.5 69q105 0 166.5 -74t61.5 -228q0 -53 -9 -119.5t-27 -177.5q-4 -20 -10 -58q-18 -110 -27.5 -179.5t-14.5 -138.5l-1 -22q0 -53 22 -53 q18 0 41.5 13.5t66.5 51.5l31 -53q-14 -22 -50 -56t-87.5 -61.5t-107.5 -27.5q-64 0 -94.5 31.5t-27.5 99.5q3 65 13 141t29 198l8 49q19 110 29.5 193.5t10.5 155.5q0 67 -13 100.5t-34 43t-54 9.5q-71 0 -158 -67t-162 -171q-10 -119 -31 -258l-64 -505h-203l56 443 q41 252 41 406q0 69 -12 102t-34 42.5t-62 9.5q-74 0 -168.5 -69t-169.5 -175l-103 -759h-200z" />
<glyph unicode="&#x443;" horiz-adv-x="1072" d="M-126 -478l47 160q4 -2 27 -13t61.5 -19.5t81.5 -8.5q49 0 111.5 29.5t127.5 98t116 177.5h-96l-172 1017q-5 30 -14.5 43t-25.5 13q-15 0 -32 -7t-49 -34l-29 60q11 17 44.5 47t79.5 54t94 24q70 0 98.5 -34t36.5 -103l41 -346l46 -387l20 -272l155 310q26 63 59 131 q46 99 72 163.5t43.5 141.5t17.5 161q0 25 -17 63q-9 24 -13 37.5t-4 29.5q0 53 27 78.5t72 25.5q130 0 130 -191q0 -92 -28.5 -190t-68 -183t-103.5 -207l-34 -66q-239 -480 -387 -661q-48 -68 -140.5 -119t-220.5 -51q-32 0 -87.5 9t-86.5 19z" />
<glyph unicode="&#x444;" horiz-adv-x="1682" d="M82 412q0 163 75.5 339t217 294t327.5 118q59 0 134 -28l53 347l-124 43l21 83l264 42h1l52 -27l-81 -554q48 43 106.5 68.5t126.5 25.5q113 0 189 -55t113.5 -152.5t37.5 -225.5q0 -163 -74 -338.5t-213.5 -293.5t-322.5 -118q-53 0 -120 20l-45 -309q-2 -20 -2 -26 q0 -26 8 -38.5t20 -12.5q18 0 42 14t65 52l31 -54q-12 -20 -48.5 -54.5t-88 -62t-106.5 -27.5q-60 0 -98.5 28.5t-38.5 85.5q0 13 1 20l72 473q-51 -48 -118.5 -78.5t-145.5 -30.5q-109 0 -183.5 55t-111 152t-36.5 225zM293 425q0 -144 42 -223t115 -79q70 0 136.5 36.5 t114.5 86.5l113 741q-50 54 -143 54q-123 0 -208.5 -98t-127.5 -241t-42 -277zM885 137q49 -36 131 -36q120 0 203.5 98t124.5 241.5t41 276.5q0 143 -45 222.5t-122 79.5q-59 0 -116 -29.5t-103 -74.5z" />
<glyph unicode="&#x445;" horiz-adv-x="1009" d="M-25 0l434 590l-184 383q-15 31 -27.5 44t-29.5 13q-18 0 -37.5 -12.5t-31.5 -29.5l-38 56q10 18 39 46t72 50.5t93 22.5q64 0 95 -24.5t49 -79.5l111 -346l294 442h216l-446 -599l199 -384q14 -30 25.5 -44t25.5 -14q17 0 40.5 14t63.5 51l36 -56q-9 -18 -45.5 -53 t-88 -62.5t-105.5 -27.5q-42 0 -67.5 12.5t-40 34.5t-27.5 58l-128 349l-283 -434h-214z" />
<glyph unicode="&#x446;" horiz-adv-x="1210" d="M149 1023l18 89l249 51l48 -24l-69 -550q-3 -24 -5.5 -43t-4.5 -35q-11 -78 -15.5 -126t-4.5 -99q0 -97 35 -132.5t106 -35.5q66 0 136 46t122 114l116 877h199l-125 -964q-3 -19 -3 -34q0 -42 25 -42q17 0 40.5 14t65.5 52l31 -54q-13 -19 -46.5 -51t-75.5 -56 q-6 -5 -33 -19q-38 -21 -57 -38.5t-19 -45.5q0 -13 4.5 -26.5t10 -26t7.5 -16.5q15 -31 22.5 -54t7.5 -49q0 -50 -39 -100t-100 -87t-121 -52l-55 64q44 18 84 57.5t40 81.5q0 26 -15 60q-10 24 -14.5 42.5t-4.5 45.5q0 75 88 140q-49 25 -49 94q0 19 5 46l-1 9 q-143 -166 -332 -166q-123 0 -190 63t-67 211q0 58 8.5 135t26.5 208l51 366z" />
<glyph unicode="&#x447;" horiz-adv-x="1167" d="M83 1023l17 89l249 51l55 -25l-33 -273q-16 -131 -16 -191q0 -67 18.5 -98.5t60.5 -41.5t128 -10q66 0 120 11t88 30l70 571h185l-99 -948q-1 -7 -1 -20q0 -26 8 -41t21 -15q30 0 87 46l31 -53q-10 -17 -45.5 -47.5t-85 -54.5t-99.5 -24q-60 0 -94.5 27t-34.5 83 q0 7 2 25l40 333q-142 -66 -312 -66q-99 0 -159 19.5t-91.5 75.5t-31.5 162q0 48 8 122l23 198z" />
<glyph unicode="&#x448;" horiz-adv-x="1820" d="M149 1023l18 89l249 51l48 -24l-69 -550l-6 -43q-2 -14 -8.5 -68.5t-10.5 -104.5t-4 -87q0 -97 35 -132.5t105 -35.5q69 0 141.5 49.5t124.5 120.5q2 55 9.5 118.5t21.5 173.5l77 575h199l-78 -569l-10 -80q-11 -77 -15.5 -123.5t-4.5 -96.5q0 -97 35 -132.5t106 -35.5 q67 0 137.5 46.5t121.5 114.5l116 876h199l-125 -964q-3 -19 -3 -34q0 -42 25 -42q17 0 40.5 14t65.5 52l31 -54q-13 -20 -50.5 -55t-90.5 -62.5t-108 -27.5q-56 0 -86 29t-30 81q0 18 5 45l-1 10q-143 -167 -333 -167q-107 0 -170 45.5t-80 149.5q-149 -195 -356 -195 q-123 0 -189.5 63t-66.5 211q0 56 10 144t24 199l51 366z" />
<glyph unicode="&#x449;" horiz-adv-x="1817" d="M149 1023l18 89l249 51l48 -24l-69 -550l-6 -43q-2 -14 -8.5 -68.5t-10.5 -104.5t-4 -87q0 -97 35 -132.5t105 -35.5q69 0 141.5 49.5t124.5 120.5q2 55 9.5 118.5t21.5 173.5l77 575h199l-78 -569l-10 -80q-11 -77 -15.5 -123.5t-4.5 -96.5q0 -97 35 -132.5t106 -35.5 q67 0 137.5 46.5t121.5 114.5l116 876h199l-125 -964q-3 -19 -3 -34q0 -42 25 -42q17 0 40.5 14t65.5 52l31 -54q-12 -19 -49 -53t-81 -59q-14 -8 -26 -14q-38 -21 -57 -38.5t-19 -45.5q0 -13 4.5 -26.5t10 -26t7.5 -16.5q15 -31 22.5 -54t7.5 -49q0 -50 -39 -100t-100 -87 t-121 -52l-55 64q44 18 84 57.5t40 81.5q0 26 -15 60q-10 24 -14.5 42.5t-4.5 45.5q0 40 24 75.5t64 64.5q-48 26 -48 94q0 19 5 46l-1 10q-143 -167 -333 -167q-107 0 -170 45.5t-80 149.5q-149 -195 -356 -195q-123 0 -189.5 63t-66.5 211q0 56 10 144t24 199l51 366z" />
<glyph unicode="&#x44a;" horiz-adv-x="1243" d="M100 816q0 54 8.5 123.5t26 127.5t44.5 76q31 20 100 20q52 0 105.5 -4.5t145.5 -14.5q55 -6 110 -11t93 -5q23 0 58 10t56 25q7 5 22.5 -4t28.5 -24.5t13 -26.5q0 -5 -4 -9q-136 -127 -221 -262t-114 -293q65 103 150 154.5t212 51.5q118 0 179.5 -82t61.5 -227 q0 -113 -64.5 -220.5t-178 -175.5t-252.5 -68q-100 0 -175.5 46.5t-117.5 131.5t-42 197q0 200 73 354.5t208 281.5l-270 2q-59 1 -92 -21.5t-65 -66.5q-27 -38 -35 -86h-64zM558 381q0 -121 32.5 -206t109.5 -85q81 0 144 44.5t97.5 119t34.5 162.5q0 61 -7.5 100.5 t-37.5 66.5t-91 27q-43 0 -98.5 -26t-105.5 -73t-78 -107v-23z" />
<glyph unicode="&#x44b;" horiz-adv-x="1504" d="M111 319q0 82 18 168l95 476l-98 59l18 89l248 52l54 -25l-100 -560q26 35 74 74.5t116.5 68.5t147.5 29q125 0 185.5 -76.5t60.5 -223.5q0 -104 -67 -215t-183 -184.5t-253 -73.5q-147 0 -231.5 86.5t-84.5 255.5zM304 295q0 -92 37.5 -148.5t104.5 -56.5q79 0 142 49 t98 124.5t35 152.5q0 61 -7.5 100.5t-37.5 66.5t-91 27q-43 0 -96 -26t-100 -73.5t-74 -108.5l-3 -19q-8 -50 -8 -88zM1044 101q0 24 2 37l128 1017h199l-126 -964q-2 -12 -2 -32q0 -44 25 -44q17 0 40.5 14t65.5 52l31 -54q-12 -20 -50 -55t-91 -62.5t-108 -27.5 q-58 0 -86 31t-28 88z" />
<glyph unicode="&#x44c;" horiz-adv-x="1019" d="M126 319q0 82 18 168l95 476l-98 59l18 89l248 52l54 -25l-100 -560q26 35 74 74.5t116.5 68.5t147.5 29q125 0 185.5 -76.5t60.5 -223.5q0 -104 -67 -215t-183 -184.5t-253 -73.5q-147 0 -231.5 86.5t-84.5 255.5zM319 295q0 -92 37.5 -148.5t104.5 -56.5q79 0 142 49 t98 124.5t35 152.5q0 61 -7.5 100.5t-37.5 66.5t-91 27q-43 0 -96 -26t-100 -73.5t-74 -108.5l-3 -19q-8 -50 -8 -88z" />
<glyph unicode="&#x44d;" horiz-adv-x="1011" d="M24 91l27 202h111q1 -1 7 -80q6 -80 7 -81q98 -38 206 -38q162 0 251.5 125.5t116.5 312.5q-115 -11 -235.5 -17t-139.5 -7q15 0 -83 -4l-34 151h502q1 10 1 29q0 125 -36 210t-97.5 126t-138.5 41q-66 0 -110 -12.5t-80 -39.5l-67 -146h-103l32 260q45 21 149.5 35.5 t201.5 14.5q140 0 243 -55t159.5 -164t56.5 -267q0 -212 -83 -373.5t-219.5 -249t-291.5 -87.5q-122 0 -210 31.5t-143 82.5z" />
<glyph unicode="&#x44e;" horiz-adv-x="1689" d="M133 0l130 963l-99 59l18 89l248 52l55 -25l-66 -491h233q34 143 112 260.5t190.5 186.5t244.5 69q193 0 296.5 -124t103.5 -349q0 -181 -74 -345t-204.5 -264.5t-292.5 -100.5q-194 0 -296.5 125t-102.5 356q0 33 3 66h-229l-70 -527h-200zM843 463q0 -174 55 -267.5 t165 -93.5q104 0 177 88.5t108.5 222.5t35.5 270q0 171 -56 264t-165 93q-104 0 -176 -87.5t-108 -220.5t-36 -269z" />
<glyph unicode="&#x44f;" horiz-adv-x="1202" d="M-31 0l12 100l78 27q38 9 73 41.5t64.5 74.5t71.5 109q62 101 100 145q-103 31 -154 102.5t-51 171.5q0 188 138 283t375 95q89 0 197 -8q63 -5 98 -5h90q-17 -152 -54.5 -486.5t-54.5 -491.5q0 -43 25 -43q17 0 40.5 14t64.5 52l31 -54q-12 -20 -49.5 -55t-91 -62.5 t-108.5 -27.5q-113 0 -113 120q0 7 17.5 162t24.5 212l-263 1q-36 -37 -67 -93.5t-78 -154.5q-37 -78 -61 -123t-50.5 -75.5t-53.5 -30.5h-251zM366 795q0 -99 64.5 -153.5t203.5 -54.5h48q105 0 125 4l54 439q-56 6 -206 6q-134 0 -211.5 -52t-77.5 -189z" />
<glyph unicode="&#x450;" horiz-adv-x="1052" d="M85 430q5 189 84 358t213 272t295 103q94 0 158.5 -32.5t96 -89t31.5 -128.5q0 -143 -117 -244t-274.5 -153t-271.5 -56q-2 -26 -2 -41q0 -71 22 -139.5t70.5 -114t123.5 -45.5q82 0 170 36t168 111l47 -84q-32 -44 -93.5 -91t-144.5 -79.5t-174 -32.5q-136 0 -227.5 63 t-134.5 165.5t-40 221.5zM257 1595l155 148l288 -432l-67 -60q-41 17 -120 79.5t-152.5 137t-103.5 127.5zM305 570q88 4 193.5 45t180.5 114t75 167q-1 75 -34.5 112t-90.5 37q-93 0 -163 -78.5t-110 -189t-51 -207.5z" />
<glyph unicode="&#x451;" horiz-adv-x="1052" d="M85 430q5 189 84 358t213 272t295 103q94 0 158.5 -32.5t96 -89t31.5 -128.5q0 -143 -117 -244t-274.5 -153t-271.5 -56q-2 -26 -2 -41q0 -71 22 -139.5t70.5 -114t123.5 -45.5q82 0 170 36t168 111l47 -84q-32 -44 -93.5 -91t-144.5 -79.5t-174 -32.5q-136 0 -227.5 63 t-134.5 165.5t-40 221.5zM305 570q88 4 193.5 45t180.5 114t75 167q-1 75 -34.5 112t-90.5 37q-93 0 -163 -78.5t-110 -189t-51 -207.5zM323 1503q0 39 20.5 73.5t54.5 55.5t71 21q55 0 89.5 -32.5t34.5 -79.5q0 -40 -21 -76t-56.5 -57.5t-76.5 -21.5q-47 0 -81.5 34.5 t-34.5 82.5zM745 1501q0 39 20 74.5t54 56.5t72 21q55 0 89 -32.5t34 -79.5q0 -40 -21 -76t-56 -57.5t-76 -21.5q-47 0 -81.5 34t-34.5 81z" />
<glyph unicode="&#x452;" horiz-adv-x="1239" d="M117 0l168 1291h-166l14 108h166l11 83l-119 43l17 83l272 42l52 -27l-30 -224h293l-14 -108h-293l-50 -379q84 112 191 181.5t219 69.5t169.5 -70.5t57.5 -202.5q0 -18 -46 -376.5t-64 -492.5q-33 -254 -135.5 -387t-255.5 -133q-83 0 -92 9l5 101q47 0 104 20 q82 28 125 138t63 278q15 127 52.5 466.5t37.5 352.5q0 75 -25.5 106t-86.5 31q-76 0 -170 -70t-170 -178l-100 -755h-200z" />
<glyph unicode="&#x453;" horiz-adv-x="841" d="M40 245q0 89 38.5 155t97 112.5t158.5 110.5q10 7 19 13t16 10q107 70 151 133t44 141q0 46 -29 79t-81 33q-57 0 -111.5 -14t-93 -32t-49.5 -29l-22 99q51 40 131.5 73.5t184.5 33.5q85 0 151 -27t103 -77.5t37 -119.5q0 -88 -40 -156t-96 -115t-145 -106l-59 -40 q-75 -54 -113 -86.5t-61 -72t-23 -91.5q0 -67 40 -111t125 -44q49 0 85.5 9.5t63 23.5t67.5 42q9 6 16 11t13 9l31 -97q-52 -59 -151.5 -97t-193.5 -38q-85 0 -155 36.5t-109.5 97t-39.5 131.5zM423 1312l317 431l144 -138q-19 -35 -94 -113.5t-161 -149.5t-141 -92z" />
<glyph unicode="&#x454;" horiz-adv-x="1014" d="M76 452q0 193 82.5 358.5t228.5 264t326 98.5q94 0 180 -14t127 -37l-33 -262h-101l-33 149q-28 26 -68.5 39t-105.5 13q-154 0 -245.5 -109t-125.5 -279h527l-34 -170l-90 5q-269 12 -422 30q-2 -26 -2 -76q0 -122 34.5 -204.5t94 -123t133.5 -40.5q109 0 218 38l49 158 h114l-24 -200q-67 -50 -163.5 -81.5t-217.5 -31.5q-225 0 -337 124t-112 351z" />
<glyph unicode="&#x455;" horiz-adv-x="869" d="M40 39l37 153q41 -28 114 -52t154 -24q85 0 141 28t56 115q0 51 -24 93.5t-59.5 74.5t-92.5 74q-80 59 -144.5 145t-64.5 192q0 96 53.5 170t142.5 114.5t193 40.5q75 0 151.5 -12t104.5 -25l-38 -169q-7 11 -39 29.5t-81 32.5t-106 14q-73 0 -125 -30.5t-60 -103.5 q-1 -7 -1 -21q0 -64 43 -119.5t117 -112.5q69 -54 114 -99t77 -107.5t32 -140.5q0 -100 -54.5 -172.5t-146 -109.5t-199.5 -37q-90 0 -179 18t-116 41z" />
<glyph unicode="&#x456;" horiz-adv-x="642" d="M139 1031l18 81l306 51l49 -24l-139 -950q-2 -12 -2 -31q0 -45 25 -45q17 0 42 14.5t64 51.5l32 -54q-14 -21 -50.5 -55.5t-88.5 -62t-108 -27.5q-127 0 -127 116l1 17q5 65 18 156.5t44 292.5q47 310 62 417zM328 1503q0 39 22 73.5t56 55.5t68 21q56 0 90 -32.5 t34 -79.5q0 -40 -21 -76t-56.5 -57.5t-75.5 -21.5q-48 0 -82.5 34.5t-34.5 82.5z" />
<glyph unicode="&#x457;" horiz-adv-x="642" d="M114 1503q0 39 20.5 73.5t54.5 55.5t71 21q55 0 89.5 -32.5t34.5 -79.5q0 -40 -21 -76t-56.5 -57.5t-76.5 -21.5q-47 0 -81.5 34.5t-34.5 82.5zM139 1031l18 81l306 51l49 -24l-139 -950q-2 -12 -2 -31q0 -45 25 -45q17 0 42 14.5t64 51.5l32 -54q-14 -21 -50.5 -55.5 t-88.5 -62t-108 -27.5q-127 0 -127 116l1 17q5 65 18 156.5t44 292.5q47 310 62 417zM536 1501q0 39 20 74.5t54 56.5t72 21q55 0 89 -32.5t34 -79.5q0 -40 -21 -76t-56 -57.5t-76 -21.5q-47 0 -81.5 34t-34.5 81z" />
<glyph unicode="&#x458;" horiz-adv-x="647" d="M-211 -481l36 82q12 -5 35 -8.5t35 -3.5q239 0 290 476l98 915l-156 51l18 81l317 51l48 -24l-130 -1139q-20 -166 -82.5 -282.5t-157 -176t-209.5 -59.5q-49 0 -87 9.5t-55 27.5zM315 1503q0 39 22 73.5t56 55.5t68 21q56 0 90 -32.5t34 -79.5q0 -40 -21 -76 t-56.5 -57.5t-75.5 -21.5q-48 0 -82.5 34.5t-34.5 82.5z" />
<glyph unicode="&#x459;" horiz-adv-x="1604" d="M-52 8l50 223q8 -6 59.5 -20t67.5 -14q31 0 64 62q51 95 98 306t76 440l-179 29l13 102h817l-69 -582l4 4q14 28 65.5 74t129 82t165.5 36q120 0 178 -85.5t58 -224.5q0 -100 -65 -208.5t-178 -181.5t-250 -73q-93 0 -168.5 45.5t-118.5 130.5t-43 197q0 20 4 64l65 593 h-316l-13 -110q-27 -224 -81 -457t-106 -312q-31 -48 -60 -78t-73 -48t-107 -18q-18 0 -51 9t-36 15zM922 313q0 -101 34.5 -162t114.5 -61q79 0 142 49t98 124.5t35 152.5q0 61 -7.5 100.5t-37 66.5t-91.5 27q-44 0 -101 -27.5t-107 -77t-76 -112.5q-4 -36 -4 -80z" />
<glyph unicode="&#x45a;" horiz-adv-x="1789" d="M133 0l130 963l-99 59l18 89l248 52l55 -25l-66 -491h519l54 489h198l-68 -582l4 4q14 28 65.5 74t128.5 82t165 36q121 0 179 -85.5t58 -224.5q0 -100 -65 -208.5t-178 -181.5t-250 -73q-92 0 -164.5 44.5t-114 127.5t-41.5 194q0 39 4 71l12 114h-522l-70 -528h-200z M1099 313q0 -101 34.5 -162t114.5 -61q79 0 142 49t98 124.5t35 152.5q0 61 -7.5 100.5t-37.5 66.5t-91 27q-45 0 -101.5 -27.5t-106.5 -77t-76 -112.5q-4 -36 -4 -80z" />
<glyph unicode="&#x45b;" horiz-adv-x="1241" d="M117 0l165 1269h-139l1 108h152l14 105l-119 43l17 83l272 42l52 -27l-33 -246h218l-1 -108h-231l-47 -357q84 112 191 181.5t219 69.5q111 0 169.5 -70t58.5 -232q0 -65 -13.5 -149t-37.5 -207l-5 -28q-33 -191 -40 -290q-2 -38 3 -56.5t19 -18.5q17 0 40.5 12t65.5 43 l31 -53q-10 -18 -47.5 -50.5t-90.5 -58t-109 -25.5q-66 0 -98.5 31.5t-28.5 101.5q3 48 11.5 106.5t25.5 154.5l12 69l7 37q22 115 35.5 205t13.5 164q0 67 -14.5 101t-38 43.5t-60.5 9.5q-76 0 -170 -70t-170 -178l-100 -755h-200z" />
<glyph unicode="&#x45c;" horiz-adv-x="1113" d="M133 0l130 963l-98 59l18 89l247 52l55 -25l-67 -499h133q82 66 140 123t121 139q11 12 21.5 38.5t10.5 51.5q0 9 -4 27q-5 17 -5 34q0 32 20 56.5t52 38t66 13.5q40 0 67 -20.5t27 -61.5q0 -69 -51.5 -142.5t-123 -138.5t-186.5 -157l-65 -53q35 -44 112 -167 q85 -135 140.5 -209t97.5 -83l74 -36l-12 -92h-192q-40 0 -79 39.5t-72.5 97t-80.5 150.5q-45 87 -73 136t-59.5 82.5t-62.5 33.5h-29l-72 -539h-200zM581 1312l317 431l144 -138q-19 -35 -94 -113.5t-161 -149.5t-141 -92z" />
<glyph unicode="&#x45d;" horiz-adv-x="1210" d="M149 1023l18 89l249 51l48 -24l-69 -550q-3 -24 -5.5 -43t-4.5 -35q-11 -78 -15.5 -126t-4.5 -99q0 -97 35 -132.5t106 -35.5q66 0 136 46t122 114l116 877h199l-125 -964q-3 -19 -3 -34q0 -42 25 -42q17 0 40.5 14t65.5 52l31 -54q-13 -20 -50.5 -55t-90.5 -62.5 t-108 -27.5q-56 0 -86 29t-30 81q0 18 5 45l-1 9q-143 -166 -332 -166q-123 0 -190 63t-67 211q0 58 8.5 135t26.5 208l51 366zM287 1595l155 148l288 -432l-67 -60q-41 17 -120 79.5t-152.5 137t-103.5 127.5z" />
<glyph unicode="&#x45e;" horiz-adv-x="1072" d="M-126 -478l47 160q4 -2 27 -13t61.5 -19.5t81.5 -8.5q49 0 111.5 29.5t127.5 98t116 177.5h-96l-172 1017q-5 30 -14.5 43t-25.5 13q-15 0 -32 -7t-49 -34l-29 60q11 17 44.5 47t79.5 54t94 24q70 0 98.5 -34t36.5 -103l41 -346l46 -387l20 -272l155 310q26 63 59 131 q46 99 72 163.5t43.5 141.5t17.5 161q0 25 -17 63q-9 24 -13 37.5t-4 29.5q0 53 27 78.5t72 25.5q130 0 130 -191q0 -92 -28.5 -190t-68 -183t-103.5 -207l-34 -66q-239 -480 -387 -661q-48 -68 -140.5 -119t-220.5 -51q-32 0 -87.5 9t-86.5 19zM241 1555q0 26 1.5 43.5 t7.5 36.5h177q28 0 28 -46q0 -20 -3 -43q-2 -28 -2 -39q0 -59 39 -89.5t139 -30.5q70 0 109 20.5t55.5 56.5t23.5 92q5 36 15 57.5t31 21.5h147q0 -11 -2 -33q-19 -158 -125 -236.5t-267 -78.5q-104 0 -189 29.5t-135 89.5t-50 149z" />
<glyph unicode="&#x45f;" horiz-adv-x="1251" d="M149 1023l18 89l249 51l48 -24l-69 -550q-3 -24 -5.5 -43t-4.5 -35q-11 -78 -15.5 -126t-4.5 -99q0 -97 35 -132.5t106 -35.5q66 0 136 46t122 114l116 877h199l-125 -964q-3 -19 -3 -34q0 -42 25 -42q17 0 40.5 14t65.5 52l31 -54q-13 -20 -50.5 -55t-90.5 -62.5 t-108 -27.5q-56 0 -86 29t-30 81q0 18 5 45l-1 9q-143 -166 -332 -166q-123 0 -190 63t-67 211q0 58 8.5 135t26.5 208l51 366zM378 -431l27 10q41 14 62 30t21 49q0 20 -4 37.5t-5 22.5q-6 25 -9.5 43.5t-3.5 45.5q0 45 28 80.5t68.5 57t77.5 26.5l38 -48q-23 -14 -33 -32 t-10 -56q0 -14 4.5 -30t9.5 -32q9 -25 14.5 -46t5.5 -47q0 -72 -63 -110t-173 -65z" />
<glyph unicode="&#x462;" horiz-adv-x="1380" d="M2 984l57 271h456l22 153l-133 28l10 86h513l-11 -86l-172 -33l-22 -148h553l-72 -271h-108l12 152l-399 16l-57 -399q44 7 112 12.5t126 5.5q144 0 242 -42t146.5 -118t48.5 -178q0 -146 -72 -247t-201.5 -151.5t-303.5 -50.5q-15 0 -111 6q-128 10 -185 10h-260l12 100 l148 24l148 1030h-17l-302 -18l-64 -152h-116zM559 112q37 -9 75 -13.5t115 -4.5q116 0 199 40t125.5 110.5t42.5 160.5q0 69 -33.5 125.5t-98 90t-151.5 33.5q-45 0 -103.5 -4.5t-94.5 -10.5z" />
<glyph unicode="&#x463;" horiz-adv-x="1702" d="M133 0l130 963l-99 59l18 89l248 52l48 -24l-20 -211q85 105 192 170t215 65q110 0 168.5 -70t58.5 -232q0 -67 -37 -289q19 32 71.5 74t126.5 73t155 31q121 0 179 -85.5t58 -224.5q0 -100 -65 -208.5t-178.5 -181.5t-250.5 -73q-91 0 -164 43.5t-115 124t-42 186.5 q0 40 6 83l10 68q20 133 30 216.5t10 150.5q0 69 -13 102t-35.5 42.5t-63.5 9.5q-74 0 -168 -69t-170 -175l-103 -759h-200zM1020 307q0 -96 36 -156.5t115 -60.5t142 49t98 124.5t35 152.5q0 61 -7.5 100.5t-37.5 66.5t-91 27q-45 0 -101.5 -27.5t-106.5 -77t-76 -112.5 q-6 -43 -6 -86z" />
<glyph unicode="&#x472;" horiz-adv-x="1383" d="M119 642q0 255 90 460.5t248.5 322.5t354.5 117q166 0 279 -87.5t167.5 -235.5t54.5 -331q0 -256 -90 -463.5t-248 -326t-355 -118.5q-166 0 -279 89t-167.5 239t-54.5 334zM327 646q3 -163 40 -286t108 -191.5t173 -68.5q118 0 215.5 83.5t159 233.5t73.5 342 q-97 -114 -233 -114q-56 0 -102.5 19t-106.5 54q-45 26 -72.5 38.5t-54.5 12.5q-55 0 -104.5 -30t-95.5 -73v-20zM332 791q105 116 236 116q56 0 101 -18.5t104 -53.5q46 -27 73.5 -39.5t56.5 -12.5q39 0 75 18t58 36t62 55q-6 245 -87.5 385t-232.5 140q-115 0 -211 -79 t-157.5 -221t-77.5 -326z" />
<glyph unicode="&#x473;" horiz-adv-x="1145" d="M85 452q0 181 74 345t204.5 265t291.5 101q193 0 296.5 -124t103.5 -349q0 -181 -74 -345t-204.5 -264.5t-292.5 -100.5q-193 0 -296 123.5t-103 348.5zM298.5 462q-0.5 -9 0.5 -21q2 -162 58 -250.5t162 -88.5q113 0 188.5 102.5t109.5 261.5q-56 -46 -131 -46 q-41 0 -71 11t-49 27t-43 42q-30 32 -51.5 46t-54.5 14q-28 0 -55.5 -22t-62.5 -61q0 -6 -0.5 -15zM317 656q70 68 152 68q48 0 80 -20.5t73 -59.5q32 -31 53.5 -45.5t48.5 -14.5q36 0 56 17.5t41 52.5l19 29v19q-2 161 -58.5 249.5t-162.5 88.5q-116 0 -193.5 -109.5 t-108.5 -274.5z" />
<glyph unicode="&#x474;" horiz-adv-x="1292" d="M110 1421l12 101h506l-12 -101l-183 -23l198 -972l38 -251l72 250l297 847q31 92 82 148t106.5 79.5t107.5 23.5q34 0 63.5 -4t37.5 -8l-17 -138q-12 3 -28 3q-43 0 -92.5 -22t-97.5 -76.5t-80 -145.5l-428 -1147h-156l-304 1413z" />
<glyph unicode="&#x475;" horiz-adv-x="1044" d="M35 1057q10 15 39 40.5t71 45.5t88 20q50 0 78 -15.5t40.5 -44.5t17.5 -77l69 -667l12 -167l80 167l249 526q42 91 93 153.5t102.5 93t96.5 30.5q54 0 82 -14l-18 -157q-6 1 -18 1q-124 0 -249 -244l-393 -764h-153l-156 979q-4 29 -15 42.5t-25 13.5q-28 0 -62 -23z" />
<glyph unicode="&#x48a;" horiz-adv-x="1599" d="M28 0l10 87l147 30l161 1281l-133 23l12 101h485l-11 -101l-154 -23l-126 -1002l125 165l699 732l13 105l-133 23l12 101h485l-12 -101l-154 -23l-161 -1281l158 -29l-8 -88q-11 -64 -27 -131.5t-32 -127.5l-21 -83l-125 4l6 68q1 17 6 81t5 111q0 40 -5 78h-312l9 87 l148 30l126 1001l-106 -141l-719 -760l-12 -100l157 -29l-8 -88h-505zM558 1933q0 26 1.5 43.5t7.5 36.5h178q28 0 28 -46q0 -20 -3 -43q-2 -28 -2 -39q0 -69 38.5 -104t139.5 -35q70 0 109 23t55.5 63t23.5 102q5 36 15 57.5t31 21.5h147q0 -11 -2 -33 q-19 -168 -125 -250.5t-267 -82.5q-105 0 -190 31t-135 95.5t-50 159.5z" />
<glyph unicode="&#x48b;" horiz-adv-x="1210" d="M149 1023l18 89l249 51l48 -24l-69 -550q-3 -24 -5.5 -43t-4.5 -35q-11 -78 -15.5 -126t-4.5 -99q0 -97 35 -132.5t106 -35.5q66 0 136 46t122 114l116 877h199l-125 -964q-3 -19 -3 -34q0 -42 25 -42q17 0 40.5 14t65.5 52l31 -54q-12 -20 -46.5 -52t-76.5 -56l-32 -18 q-38 -21 -57 -38.5t-19 -45.5q0 -15 5.5 -30.5t16.5 -38.5q14 -30 21.5 -53.5t7.5 -49.5q0 -50 -39 -100t-100 -87t-121 -52l-54 64q44 18 84 57.5t40 81.5q0 26 -15 60q-10 23 -15 42t-5 46q0 39 24.5 74.5t64.5 65.5q-49 25 -49 94q0 19 5 46l-1 9q-143 -166 -332 -166 q-123 0 -190 63t-67 211q0 58 8.5 135t26.5 208l51 366zM317 1555q0 26 1.5 43.5t7.5 36.5h177q28 0 28 -46q0 -20 -3 -43q-2 -28 -2 -39q0 -59 39 -89.5t139 -30.5q70 0 109 20.5t55.5 56.5t23.5 92q5 36 15 57.5t31 21.5h147q0 -11 -2 -33q-19 -158 -125 -236.5 t-267 -78.5q-104 0 -189 29.5t-135 89.5t-50 149z" />
<glyph unicode="&#x48c;" horiz-adv-x="1167" d="M28 0l9 87l148 30l118 941h-151l13 108h152l29 231l-133 24l12 101h490l-11 -101l-154 -23l-29 -232h285l-13 -108h-286l-28 -228q110 24 221 24q218 0 333.5 -91t115.5 -258q0 -166 -77.5 -284t-210 -177.5t-296.5 -59.5q-15 0 -111 6q-126 10 -184 10h-242zM389 115 q84 -21 195 -21q109 0 190.5 45t125.5 130.5t44 204.5q0 124 -83 188.5t-225 64.5q-104 0 -171 -15h-1z" />
<glyph unicode="&#x48d;" horiz-adv-x="1057" d="M74 1027l16 108h175l45 347l-119 43l17 83l272 42l52 -27l-64 -488h367l-16 -108h-365l-61 -471l1 2q14 28 65.5 74t129 82t165.5 36q120 0 178 -85t58 -224q0 -100 -65 -209t-178 -182t-250 -73q-92 0 -167.5 45t-119.5 128t-44 193q0 29 5 71l80 613h-177zM366 310 q0 -99 35.5 -159.5t114.5 -60.5t142 49t98 124.5t35 152.5q0 61 -7.5 100.5t-37.5 66.5t-91 27q-45 0 -101.5 -27.5t-106.5 -77t-76 -112.5q-5 -47 -5 -83z" />
<glyph unicode="&#x48e;" horiz-adv-x="1239" d="M28 0l9 87l148 30l161 1281l-133 23l12 101h255q45 0 137 8q86 9 150 9q227 0 344 -100.5t117 -303.5q0 -171 -70.5 -298t-194.5 -202l165 -252l-90 -60l-173 265q-117 -45 -255 -45q-122 0 -170 4l-51 -430l200 -29l-8 -88h-553zM455 677q85 -14 165 -14q100 0 177 30 l-119 183l90 59l121 -187q65 58 95 156.5t30 239.5q0 92 -24 152t-81.5 92t-156.5 32q-40 0 -99.5 -5.5t-101.5 -15.5z" />
<glyph unicode="&#x48f;" horiz-adv-x="1162" d="M37 -520l203 1500l-109 52l18 79l258 52l47 -24l-14 -132q53 68 129 112t166 44q112 0 188.5 -55t114.5 -152.5t38 -225.5q0 -94 -28 -197.5t-81.5 -201.5t-127.5 -174l181 -210l-82 -71l-181 210q-147 -106 -321 -106q-60 0 -133 15l-71 -515h-195zM323 137 q51 -35 144 -35q116 0 205 84l-163 191l81 70l152 -177q60 92 91.5 213.5t31.5 233.5q0 143 -44.5 222.5t-122.5 79.5t-151.5 -50.5t-124.5 -118.5z" />
<glyph unicode="&#x490;" horiz-adv-x="1002" d="M-35 0l10 87l212 30l158 1279l-203 28l12 98h800l106 359h140l-79 -498l-576 29l-160 -1294l320 -31l-10 -87h-730z" />
<glyph unicode="&#x491;" horiz-adv-x="792" d="M79 1034l13 102h594l101 326h115l-63 -442h-441l-127 -1020h-185l124 1005z" />
<glyph unicode="&#x492;" horiz-adv-x="1078" d="M4 0l11 87l172 30l70 570h-172l1 109h185l74 602l-184 26l12 98h935l-39 -471h-140l-17 352l-367 9l-76 -616h390l-1 -109h-403l-70 -569l317 -31l-9 -87h-689z" />
<glyph unicode="&#x493;" horiz-adv-x="876" d="M42 428h161l-53 -428h185l53 428h269l12 108h-267l61 484l288 -1l10 -228h100l62 345h-767l-12 -102l131 -29l-58 -469h-163z" />
<glyph unicode="&#x494;" horiz-adv-x="1179" d="M4 0l11 87l172 30l158 1281l-184 26l12 98h935l-39 -468h-140l-17 349l-367 9l-76 -611q62 27 165 48.5t157 21.5q144 0 227 -44.5t116 -123t33 -191.5q0 -208 -66 -405.5t-189 -322.5t-285 -125q-24 0 -56.5 4.5t-45.5 10.5l14 117q17 -2 78 -2q106 0 185.5 90 t122 245.5t42.5 347.5q0 142 -57 205t-182 63q-71 0 -116.5 -8t-115.5 -27l-40 -11l-71 -577l238 -30l-9 -87h-610z" />
<glyph unicode="&#x495;" horiz-adv-x="1127" d="M124 1034l13 102h766l-61 -345h-100l-10 228l-289 1l-65 -521q53 61 138.5 103.5t169.5 42.5q190 0 268.5 -94t78.5 -263q0 -185 -77.5 -344t-212.5 -253.5t-301 -94.5q-24 0 -56.5 4.5t-45.5 10.5l14 117q17 -2 78 -2q110 0 201.5 61t145.5 179t54 280q0 99 -19 156 t-65 84t-130 27q-67 0 -138 -37.5t-116 -83.5l-49 -392h-185l124 1005z" />
<glyph unicode="&#x496;" horiz-adv-x="2018" d="M-30 0l12 87l82 30q34 11 94 77t171 202q134 164 222.5 260t152.5 127l-390 615l-146 24l12 100h464l-12 -100l-151 -25l349 -603h126l76 604l-134 23l12 101h481l-11 -101l-153 -23l-77 -604h146l484 603l-147 24l13 101h462l-13 -100l-149 -26l-526 -611 q54 -27 113.5 -116t146.5 -247q78 -140 125 -212t87 -93h102q-19 -122 -74 -375l-18 -84h-126l3 67q7 107 7 175q0 56 -6 100h-65q-29 0 -63.5 45t-67.5 110.5t-86 179.5q-52 114 -87.5 184t-72 117.5t-68.5 47.5h-134l-71 -567l158 -29l-8 -88h-501l9 87l148 30l71 567 h-110q-33 0 -81.5 -48t-100.5 -118t-134 -187q-79 -113 -127 -177.5t-92.5 -109t-73.5 -44.5h-253z" />
<glyph unicode="&#x497;" horiz-adv-x="1832" d="M-38 15l70 189l108 -111q51 0 114 72t107 202.5t44 296.5q0 169 -42 249.5t-111 80.5q-50 0 -86.5 -20.5t-97.5 -81.5l-43 53q136 201 287 201q87 0 153 -54t102.5 -155.5t36.5 -240.5q0 -20 -2 -58h214l59 498h200l-59 -498h208q33 139 104 255t171 184.5t214 68.5 q46 0 77 -8.5t53 -26.5l-70 -189l-109 111q-51 0 -113.5 -72t-106.5 -202.5t-44 -296.5q0 -169 41.5 -249.5t111.5 -80.5q50 0 86 20.5t98 81.5l42 -53q-88 -129 -181 -175q-35 -21 -51 -39.5t-16 -49.5q0 -15 5.5 -30.5t16.5 -38.5q14 -30 21.5 -53.5t7.5 -49.5 q0 -50 -39 -100t-100 -87t-121 -52l-54 64q44 18 84 57.5t40 81.5q0 26 -15 60q-10 23 -15 42t-5 46q0 70 70 131q-69 19 -120 77t-79 151t-28 214q0 58 7 108h-203l-64 -539l-199 1l63 538h-214q-27 -150 -98 -277.5t-175 -204t-225 -76.5q-46 0 -77 8.5t-53 26.5z" />
<glyph unicode="&#x498;" horiz-adv-x="1156" d="M10 68l88 331h104v-237q42 -23 113 -36.5t167 -13.5q105 0 186.5 43.5t127.5 129.5t46 208q0 116 -69.5 174.5t-237.5 58.5l-146 -11l14 128h122q82 0 158 40.5t124.5 124.5t48.5 207q0 102 -54.5 154.5t-156.5 52.5q-95 0 -161 -23.5t-90 -66.5l-46 -162h-120l21 301 q22 1 56.5 8.5t70.5 16.5q81 20 139 31t117 11q140 0 238 -35.5t147.5 -100.5t49.5 -155q0 -128 -50.5 -220.5t-128 -145.5t-163.5 -72q173 -4 257 -87t84 -217q0 -131 -62 -235.5t-171.5 -172.5t-250.5 -94q17 -46 17 -118q0 -115 -37 -193.5t-101 -117.5t-145 -39 q-40 0 -77 8t-54 20l16 151q12 -6 39 -10t52 -4q84 0 133 67.5t50 181.5q0 17 -2 41q-38 -2 -59 -2q-131 0 -234 24.5t-170 55.5z" />
<glyph unicode="&#x499;" horiz-adv-x="1033" d="M23 71l72 191l110 -114q43 -31 83 -41t99 -10q164 0 240 69t76 187q0 89 -57.5 138.5t-197.5 49.5l-111 -21l24 133l63 6q100 11 166.5 48.5t98.5 89.5t32 108q0 68 -47.5 105t-159.5 37q-87 0 -136 -18t-72 -42l-63 -178h-113l36 297q39 0 70 5.5t79 17.5 q62 16 114.5 24t130.5 8q172 0 267.5 -63t95.5 -176q0 -59 -42 -120.5t-111 -110.5t-146 -74q139 -6 217.5 -70.5t78.5 -169.5q0 -96 -47.5 -173.5t-131 -129.5t-190.5 -74q-36 -21 -54.5 -38.5t-18.5 -44.5q0 -15 5 -29t17 -41q15 -31 22.5 -54t7.5 -48q0 -50 -39 -100 t-100 -87t-121 -52l-55 63q44 18 84.5 58t40.5 82q0 26 -15 60q-10 23 -15 42t-5 46q0 67 72 127q-118 3 -202 27.5t-152 59.5z" />
<glyph unicode="&#x49a;" horiz-adv-x="1326" d="M28 0l9 87l148 30l161 1281l-133 23l12 101h488l-11 -101l-155 -23l-76 -604h158l467 599l-155 29l12 100h463l-12 -100l-146 -25l-505 -622q52 -36 106.5 -125t136.5 -245q65 -125 105.5 -191.5t71.5 -83.5h104q-8 -90 -40.5 -246t-52.5 -226h-126l3 67q7 107 7 175 q0 56 -6 100h-38q-29 0 -64 45.5t-68.5 111.5t-85.5 179q-53 115 -87.5 184t-71 116.5t-68.5 47.5h-122l-71 -567l158 -29l-8 -88h-508z" />
<glyph unicode="&#x49b;" horiz-adv-x="1113" d="M133 0l130 963l-98 59l18 89l247 52l55 -25l-67 -499h133q82 66 140 123t121 139q11 12 21.5 38.5t10.5 51.5q0 9 -4 27q-5 17 -5 34q0 32 20 56.5t52 38t66 13.5q40 0 67 -20.5t27 -61.5q0 -69 -51.5 -142.5t-123 -138.5t-186.5 -157l-65 -53q35 -44 112 -167 q85 -135 140.5 -209t97.5 -83l74 -36l-12 -92h-4q-40 -2 -74.5 -24t-34.5 -59q0 -13 4.5 -26.5t10 -26t7.5 -16.5q15 -31 22.5 -54t7.5 -49q0 -50 -39 -100t-100 -87t-121 -52l-55 64q44 18 84 57.5t40 81.5q0 26 -15 60q-10 24 -14.5 42.5t-4.5 45.5q0 86 102 143h-8 q-40 0 -79 39.5t-72.5 97t-80.5 150.5q-45 87 -73 136t-59.5 82.5t-62.5 33.5h-29l-72 -539h-200z" />
<glyph unicode="&#x49c;" horiz-adv-x="1478" d="M28 0l9 87l148 30l161 1281l-133 23l12 101h488l-11 -101l-155 -23l-76 -604h146l49 342h119l-49 -342h45l466 599l-154 29l12 100h463l-12 -100l-146 -25l-502 -618q54 -33 111 -124t142 -250q70 -133 112 -200t73 -78l72 -27l-12 -100h-230q-42 0 -92 85.5t-126 251.5 q-54 117 -88.5 185t-71 115t-67.5 47h-11l-44 -313h-119l44 313h-144l-71 -567l158 -29l-8 -88h-508z" />
<glyph unicode="&#x49d;" horiz-adv-x="1290" d="M133 0l130 963l-98 59l18 89l247 52l55 -25l-67 -499h111l30 239h133l-30 -239h42q72 64 126.5 128t112.5 153q31 43 31 81q0 8 -4 26q-1 3 -3 13t-2 21q0 48 41.5 73.5t97.5 25.5q39 0 66 -20.5t27 -61.5q0 -74 -52.5 -152t-125 -147t-187.5 -164l-32 -27 q35 -45 109 -168q83 -135 137.5 -209t95.5 -83l74 -36l-12 -92h-193q-40 0 -78 39.5t-70.5 97t-77.5 150.5q-48 97 -77.5 148.5t-60.5 79.5l-30 -245h-133l33 269h-112l-72 -539h-200z" />
<glyph unicode="&#x49e;" horiz-adv-x="1326" d="M28 0l9 87l148 30l119 947h-134l1 109h146l29 225l-133 23l12 101h488l-11 -101l-155 -23l-29 -225h160l-1 -109h-172l-34 -270h158l467 599l-155 29l12 100h463l-12 -100l-146 -25l-505 -622q52 -37 108 -127.5t134 -240.5q69 -133 111 -201t74 -79l86 -27l-12 -100 h-230q-29 0 -64 45.5t-68.5 111.5t-85.5 179q-53 115 -87.5 184t-71 116.5t-68.5 47.5h-122l-71 -567l158 -29l-8 -88h-508z" />
<glyph unicode="&#x49f;" horiz-adv-x="1081" d="M84 1202l18 108h171l23 172l-117 43l16 83l272 42l52 -27l-42 -313h200l-18 -108h-196l-160 -1202h-200l156 1202h-175zM399 610l2 1h-2q49 38 86 64q92 67 146 114t104 115q25 33 34.5 62.5t13.5 54t6 33.5q9 52 49 80.5t87 28.5q44 0 75.5 -29t31.5 -73q0 -54 -36 -106 q-60 -88 -173 -170.5t-246 -163.5l259 -403q27 -41 59.5 -68t55.5 -27q21 0 51.5 15t60.5 44l34 -61q-21 -33 -61 -65.5t-92.5 -54t-105.5 -21.5q-45 0 -86 26.5t-72 82.5z" />
<glyph unicode="&#x4a0;" horiz-adv-x="1607" d="M86 1041l79 481h828l-11 -101l-154 -23l-76 -604h157l467 599l-155 29l12 100h463l-12 -100l-146 -25l-502 -618q54 -33 112 -125t140 -249q72 -136 113.5 -201.5t72.5 -76.5l72 -27l-12 -100h-229q-29 0 -64 45.5t-68.5 111.5t-85.5 179q-54 118 -88.5 185.5t-71 115 t-68.5 47.5h-121l-71 -567l157 -29l-8 -88h-507l9 87l147 30l164 1294l-296 -7l-108 -363h-139z" />
<glyph unicode="&#x4a1;" horiz-adv-x="1332" d="M60 729l59 406h575l-67 -496h131q87 72 147.5 135t114.5 146q32 41 32 81q0 8 -4 26q-1 3 -3 13t-2 21q0 48 41.5 73.5t96.5 25.5q40 0 67 -20.5t27 -61.5q0 -70 -51.5 -144t-124 -139.5t-187.5 -156.5q5 4 -61 -49q41 -49 124 -171q92 -134 152 -207.5t101 -82.5l74 -36 l-12 -92h-193q-40 0 -81 39.5t-76.5 95.5t-89.5 152q-47 85 -78.5 135t-65 83.5t-64.5 33.5h-29l-72 -539h-200l140 1028l-205 -22l-90 -277h-126z" />
<glyph unicode="&#x4a2;" horiz-adv-x="1538" d="M28 0l10 87l147 30l161 1281l-133 23l12 101h491l-11 -101l-154 -23l-70 -554h649l70 554l-151 23l10 101h495l-12 -101l-138 -23l-161 -1280h164q-11 -87 -27.5 -168.5t-43.5 -206.5q-4 -19 -9 -40.5t-10 -44.5h-126l3 67q7 107 7 175q0 56 -6 100h-327l8 88l164 30 l74 596h-650l-75 -597l158 -29l-8 -88h-511z" />
<glyph unicode="&#x4a3;" horiz-adv-x="1303" d="M133 0l130 963l-99 59l18 89l248 52l55 -25l-66 -491h497l61 489h195l-110 -948q-1 -10 -1 -26q0 -50 23 -50q30 0 87 46l31 -53q-10 -16 -41.5 -44t-71.5 -50q-8 -5 -19 -10q-38 -21 -56.5 -38.5t-18.5 -45.5q0 -15 5.5 -30.5t16.5 -38.5q14 -30 21.5 -53.5t7.5 -49.5 q0 -50 -39 -100t-100 -87t-121 -52l-54 64q44 18 84 57.5t40 81.5q0 26 -15 60q-10 23 -15 42t-5 46q0 71 81 134q-59 25 -59 95q0 8 2 26l56 416h-498l-70 -528h-200z" />
<glyph unicode="&#x4a4;" horiz-adv-x="1907" d="M28 0l10 87l147 30l161 1281l-133 23l12 101h491l-11 -101l-154 -23l-70 -554h649l70 554l-151 23l10 101h920l-42 -471h-136l-18 352l-376 17l-164 -1302l156 -31l-9 -87h-522l8 88l164 30l74 596h-650l-75 -597l158 -29l-8 -88h-511z" />
<glyph unicode="&#x4a5;" horiz-adv-x="1587" d="M133 0l130 963l-99 59l18 89l248 52l55 -25l-66 -491h497l61 489h637l-61 -406h-125l-2 288l-268 2l-96 -832q-1 -10 -1 -26q0 -50 23 -50q30 0 87 46l31 -53q-10 -17 -45 -47.5t-84.5 -54.5t-100.5 -24q-59 0 -94 26t-35 81q0 8 2 26l56 416h-498l-70 -528h-200z" />
<glyph unicode="&#x4a6;" horiz-adv-x="2040" d="M28 0l10 87l146 30l161 1272l-167 33l12 100h1330l-9 -100l-154 -25l-75 -590q64 24 164 44t150 20q144 0 227.5 -44.5t117 -123t33.5 -190.5q0 -223 -68.5 -435t-193.5 -347t-287 -135q-24 0 -56.5 4.5t-45.5 10.5l14 117q17 -2 78 -2q106 0 187.5 98t126.5 268.5 t45 379.5q0 142 -58 205t-184 63q-71 0 -116 -7t-113 -25l-34 -9l-74 -583l158 -29l-8 -87h-510l9 87l147 30l162 1281h-604l-161 -1281l159 -30l-8 -87h-511z" />
<glyph unicode="&#x4a7;" horiz-adv-x="1667" d="M133 0l130 963l-98 59l18 89l247 52l48 -24l-20 -212q85 105 192.5 170.5t214.5 65.5q110 0 168.5 -70t58.5 -232q0 -75 -52 -430q-2 -11 -4 -29q66 69 146.5 112.5t173.5 43.5q106 0 163.5 -43.5t77.5 -113.5t20 -164q0 -137 -66 -292t-179.5 -261t-249.5 -106 q-42 0 -66 6l7 92l9 -1q99 0 173.5 76t114 195t39.5 243q0 116 -27.5 176t-102.5 60q-57 0 -117.5 -36.5t-133.5 -103.5q-10 -70 -19 -128t-16 -103l-9 -54h-205q42 212 73 427q45 313 45 422q0 69 -13.5 102t-36 42.5t-63.5 9.5q-74 0 -168.5 -69t-169.5 -175l-103 -759 h-200z" />
<glyph unicode="&#x4a8;" horiz-adv-x="1660" d="M118 640q0 253 97 458.5t270 322.5t390 117q68 0 117 -15.5t78.5 -35.5t65.5 -51l-56 -75q-17 23 -72 38.5t-159 15.5q-150 0 -263.5 -118t-174.5 -296t-61 -349q0 -157 41 -283.5t130.5 -202t228.5 -75.5q73 0 139 18q-111 82 -176 209t-65 285q0 228 83.5 392 t216.5 247.5t279 83.5q107 0 189.5 -47t128.5 -136t46 -209q0 -144 -56.5 -297t-158 -288.5t-231.5 -227.5q83 -37 180 -37q11 0 102 13l-11 -89q-31 -6 -84 -13.5t-75 -7.5q-133 0 -252 54q-140 -64 -284 -64q-187 0 -323.5 86.5t-208 237t-71.5 339.5zM860 629 q0 -141 49.5 -257.5t138.5 -189.5q100 67 172.5 174.5t110.5 236.5t38 260q0 190 -48 272t-143 82q-91 0 -163.5 -68.5t-113.5 -199t-41 -310.5z" />
<glyph unicode="&#x4a9;" horiz-adv-x="1321" d="M85 470q0 196 83.5 356t221.5 251t296 91q68 0 118 -17.5t69 -36.5l-45 -96q-22 16 -51.5 24t-85.5 8q-115 0 -204.5 -68.5t-140 -200.5t-50.5 -314q0 -171 68 -277t204 -106q75 0 131 8q-71 59 -106.5 143.5t-35.5 188.5q0 136 54 246t144.5 172.5t196.5 62.5 q85 0 150.5 -36.5t102.5 -104.5t37 -160q0 -159 -75 -290t-206 -216q62 -19 141 -19q57 0 94 5l-12 -93q-16 -4 -49.5 -7.5t-60.5 -3.5q-148 0 -261 44q-133 -47 -276 -47q-151 0 -252.5 64.5t-150.5 175.5t-49 253zM758 422q0 -196 112 -279q86 52 135.5 178t49.5 299 q0 90 -29.5 137.5t-85.5 47.5q-65 0 -106 -59.5t-58.5 -147t-17.5 -176.5z" />
<glyph unicode="&#x4aa;" horiz-adv-x="1225" d="M92 627q-5 266 95 474t272 322.5t375 114.5q118 0 200 -13t155 -33l38 -11l-66 -368h-122l-24 262q-31 21 -78.5 33t-128.5 12q-174 0 -286.5 -119t-163 -292.5t-50.5 -343.5q0 -145 34.5 -272.5t110.5 -208.5t192 -81q79 0 157.5 26t107.5 77q11 31 34 98t34 99l124 -1 l-40 -329q-3 -1 -22 -8q-80 -28 -158 -48.5t-179 -28.5q11 -44 11 -101q0 -115 -37 -193.5t-101 -117.5t-145 -39q-40 0 -77 8t-54 20l16 151q12 -6 39 -10t52 -4q84 0 133 67.5t50 181.5q0 23 -1 33q-169 5 -279.5 97.5t-163 237t-54.5 308.5z" />
<glyph unicode="&#x4ab;" horiz-adv-x="882" d="M76 431q0 163 70 333.5t204.5 284.5t317.5 114q55 0 117 -13.5t104 -34.5l-59 -199q-4 3 -23 17q-103 83 -186 83q-99 0 -173.5 -65t-115.5 -190t-41 -301q0 -172 53.5 -255.5t149.5 -83.5q70 0 125 25t143 89l40 -82q-49 -58 -134.5 -110.5t-199.5 -60.5 q-42 -28 -42 -65q0 -15 5 -29t17 -41q15 -31 22.5 -54t7.5 -48q0 -50 -39 -100t-100 -87t-121 -52l-55 63q44 18 84.5 58t40.5 82q0 26 -15 60q-10 23 -15 42t-5 46q0 73 82 135q-124 32 -191.5 146t-67.5 293z" />
<glyph unicode="&#x4ac;" horiz-adv-x="1234" d="M83 1051l77 471h1148l-67 -471h-111l7 342l-321 21l-166 -1297h267q-16 -101 -42 -239.5t-44 -219.5h-126l3 69q7 110 7 178q0 61 -5 95h-517l9 94l244 23l165 1297l-316 -20l-96 -341z" />
<glyph unicode="&#x4ad;" horiz-adv-x="1885" d="M133 0l130 963l-99 59l18 89l247 52l48 -24l-19 -212q85 105 192 170.5t214 65.5q100 0 156 -57.5t65 -190.5q81 110 185.5 179t210.5 69q105 0 166.5 -74t61.5 -228q0 -53 -9 -119.5t-27 -177.5q-4 -20 -10 -58q-18 -110 -27.5 -179.5t-14.5 -138.5l-1 -22q0 -53 22 -53 q18 0 41.5 13.5t66.5 51.5l31 -53q-15 -22 -49 -54.5t-77 -56.5l-20 -11q-40 -22 -59.5 -39.5t-19.5 -46.5q0 -15 5.5 -30.5t16.5 -38.5q14 -30 21.5 -53.5t7.5 -49.5q0 -50 -39 -100t-99.5 -87t-120.5 -52l-55 64q44 18 84 57.5t40 81.5q0 26 -15 60q-10 23 -15 42t-5 46 q0 72 85 137q-57 27 -53 117q3 65 13 141t29 198l8 49q19 110 29.5 193.5t10.5 155.5q0 67 -13 100.5t-34 43t-54 9.5q-71 0 -158 -67t-162 -171q-10 -119 -31 -258l-64 -505h-203l56 443q41 252 41 406q0 69 -12 102t-34 42.5t-62 9.5q-74 0 -168.5 -69t-169.5 -175 l-103 -759h-200z" />
<glyph unicode="&#x4ae;" horiz-adv-x="1178" d="M60 1421l10 101h498l-12 -101l-161 -23l226 -557l36 -127l72 126l341 558l-140 23l11 101h417l-11 -101l-101 -23l-523 -807l-61 -474l196 -29l-8 -88h-607l9 88l215 29l61 474l-363 807z" />
<glyph unicode="&#x4af;" horiz-adv-x="1193" d="M28 1038q11 17 44.5 47t79.5 54t94 24t74 -16.5t38.5 -44t23.5 -76.5l155 -723l20 -128l69 111l16 23q82 116 139 208.5t100 202t43 211.5q0 14 -5 30t-11 31q-9 24 -13 37t-4 29q0 53 29.5 78.5t76.5 25.5q129 0 129 -191q0 -105 -53.5 -227.5t-132 -240t-195.5 -273.5 l-45 -59q-81 -107 -89 -118l-69 -362q-2 -24 -2 -32q0 -23 5.5 -33.5t18.5 -10.5q17 0 40.5 14t65.5 53l31 -54q-13 -20 -50.5 -55t-90.5 -62.5t-108 -27.5q-58 0 -86.5 31t-28.5 87q0 17 3 37l86 428l-247 897q-10 33 -18 44.5t-22 11.5q-15 0 -32.5 -7.5t-49.5 -34.5z" />
<glyph unicode="&#x4b0;" horiz-adv-x="1177" d="M60 1421l10 101h498l-12 -101l-161 -23l226 -557l36 -127l72 126l341 558l-140 23l11 101h417l-11 -101l-101 -23l-504 -777h419l-17 -108h-431l-51 -396l196 -29l-8 -88h-607l9 88l215 29l51 396h-410l17 108h389l-349 777z" />
<glyph unicode="&#x4b1;" horiz-adv-x="1193" d="M28 1038q11 17 44.5 47t79.5 54t94 24t74 -16.5t38.5 -44t23.5 -76.5l155 -723l20 -128l69 111l16 23q82 116 139 208.5t100 202t43 211.5q0 14 -5 30t-11 31q-9 24 -13 37t-4 29q0 53 29.5 78.5t76.5 25.5q129 0 129 -191q0 -105 -53.5 -227.5t-132 -240t-195.5 -273.5 l-33 -43q-38 -48 -60 -79h354l-13 -108h-392l-59 -309q-2 -24 -2 -32q0 -23 5.5 -33.5t18.5 -10.5q17 0 40.5 14t65.5 53l31 -54q-13 -20 -50.5 -55t-90.5 -62.5t-108 -27.5q-58 0 -86.5 31t-28.5 87q0 17 3 37l73 362h-306l13 108h295l-236 855q-10 33 -18 44.5t-22 11.5 q-15 0 -32.5 -7.5t-49.5 -34.5z" />
<glyph unicode="&#x4b2;" horiz-adv-x="1297" d="M-63 0l11 88l121 28l499 651l-301 628l-138 26l10 101h522l-11 -101l-145 -23l200 -503l338 503l-140 23l12 101h471l-10 -101l-137 -23l-470 -621l332 -660h168q-19 -122 -74 -375l-18 -84h-126l3 67q7 107 7 175q0 56 -6 100h-352l8 88l151 28l-234 526l-360 -525 l149 -30l-8 -87h-472z" />
<glyph unicode="&#x4b3;" horiz-adv-x="1009" d="M-25 0l434 590l-184 383q-15 31 -27.5 44t-29.5 13q-18 0 -37.5 -12.5t-31.5 -29.5l-38 56q10 18 39 46t72 50.5t93 22.5q64 0 95 -24.5t49 -79.5l111 -346l294 442h216l-446 -599l199 -384q14 -30 25.5 -44t25.5 -14q17 0 40.5 14t63.5 51l36 -56q-10 -19 -46 -53.5 t-81 -58.5q-8 -5 -19 -10q-38 -21 -56.5 -38.5t-18.5 -45.5q0 -15 5.5 -30.5t16.5 -38.5q14 -30 21.5 -53.5t7.5 -49.5q0 -50 -39 -100t-100 -87t-121 -52l-54 64q44 18 84 57.5t40 81.5q0 26 -15 60q-10 23 -15 42t-5 46q0 39 23 73.5t62 63.5q-23 12 -37 33.5t-27 57.5 l-128 349l-283 -434h-214z" />
<glyph unicode="&#x4b4;" horiz-adv-x="1853" d="M107 1056l86 466h936l-41 -466h-126l-13 340h-198l-156 -1274h710l157 1274l-142 26l12 100h490l-12 -100l-159 -27l-155 -1266l235 -1q-15 -91 -42.5 -228t-50.5 -242h-126l4 82q7 101 7 165q0 54 -6 95h-1259l10 87l136 29l159 1280h-221l-106 -340h-129z" />
<glyph unicode="&#x4b5;" horiz-adv-x="1251" d="M149 1023l18 89l249 51l48 -24l-69 -550q-3 -24 -5.5 -43t-4.5 -35q-11 -78 -15.5 -126t-4.5 -99q0 -97 35 -132.5t106 -35.5q66 0 136 46t122 114l116 877h199l-125 -964q-3 -19 -3 -34q0 -42 25 -42q17 0 40.5 14t65.5 52l31 -54q-12 -20 -46.5 -52t-76.5 -56l-32 -18 q-38 -21 -57 -38.5t-19 -45.5q0 -15 5.5 -30.5t16.5 -38.5q14 -30 21.5 -53.5t7.5 -49.5q0 -50 -39 -100t-100 -87t-121 -52l-54 64q44 18 84 57.5t40 81.5q0 26 -15 60q-10 23 -15 42t-5 46q0 39 24.5 74.5t64.5 65.5q-49 25 -49 94q0 19 5 46l-1 9q-143 -166 -332 -166 q-123 0 -190 63t-67 211q0 58 8.5 135t26.5 208l51 366zM402 1424l19 152h512l-20 -152h-511z" />
<glyph unicode="&#x4b6;" horiz-adv-x="1283" d="M80 1421l12 101h476l-11 -101l-138 -27l-26 -210q-11 -90 -16 -144.5t-5 -97.5q0 -76 20 -119t69 -63t138 -20q67 0 146.5 16.5t123.5 37.5l76 604l-154 23l12 101h491l-11 -101l-134 -23l-161 -1280h280q-1 -7 -50.5 -203t-69.5 -270h-128q4 35 12 170.5t10 184.5h-436 l10 87l168 30l70 560q-76 -39 -167 -58.5t-179 -19.5q-113 0 -188 26.5t-117 96t-42 195.5q0 49 8 119l45 361z" />
<glyph unicode="&#x4b7;" horiz-adv-x="1167" d="M83 1023l17 89l249 51l55 -25l-33 -273q-16 -131 -16 -191q0 -67 18.5 -98.5t60.5 -41.5t128 -10q66 0 120 11t88 30l70 571h185l-99 -948q-1 -7 -1 -20q0 -26 8 -41t21 -15q30 0 87 46l31 -53q-9 -15 -37 -40.5t-63 -45.5l-32 -18q-38 -21 -57 -38.5t-19 -45.5 q0 -15 5.5 -30.5t16.5 -38.5q14 -30 21.5 -53.5t7.5 -49.5q0 -50 -39 -100t-100 -87t-121 -52l-54 64q44 18 84 57.5t40 81.5q0 26 -15 60q-10 23 -15 42t-5 46q0 73 82 135q-59 25 -59 97q0 7 2 25l40 333q-142 -66 -312 -66q-99 0 -159 19.5t-91.5 75.5t-31.5 162 q0 48 8 122l23 198z" />
<glyph unicode="&#x4b8;" horiz-adv-x="1283" d="M80 1421l12 101h476l-11 -101l-138 -27l-26 -210q-11 -90 -16 -144.5t-5 -97.5q0 -70 17 -112t57.5 -63.5t113.5 -25.5l36 290h106l-36 -288q59 7 115 21t88 30l76 604l-154 23l12 101h491l-11 -101l-134 -23l-161 -1281l139 -30l-9 -87h-512l10 87l168 30l70 560 q-91 -47 -204 -66l-30 -240h-105l28 228h-35q-113 0 -188 26.5t-117 96t-42 195.5q0 49 8 119l45 361z" />
<glyph unicode="&#x4b9;" horiz-adv-x="1171" d="M83 1023l17 89l249 51l55 -25l-31 -241q-18 -136 -18 -200q0 -62 14.5 -97.5t47.5 -52.5t91 -21l35 285h105l-35 -286q106 8 161 40l70 571h185l-99 -948q-1 -7 -1 -20q0 -26 8 -41t21 -15q30 0 87 46l31 -53q-10 -17 -45.5 -47.5t-85 -54.5t-99.5 -24q-60 0 -94.5 27 t-34.5 83q0 7 2 25l40 333q-80 -38 -163 -54l-29 -242h-105l28 230h-35q-107 0 -170.5 26.5t-92.5 87.5t-29 167q0 70 10 150l19 146z" />
<glyph unicode="&#x4ba;" horiz-adv-x="1283" d="M40 0l11 101l134 23l161 1281l-139 30l9 87h512l-10 -87l-168 -30l-70 -560q76 39 167 58.5t179 19.5q113 0 188 -26.5t117 -96t42 -195.5q0 -49 -8 -119l-45 -361l134 -24l-12 -101h-476l11 101l138 27l26 210q11 90 16 144.5t5 97.5q0 76 -20 119t-69 63t-138 20 q-67 0 -146.5 -16.5t-123.5 -37.5l-76 -604l154 -23l-12 -101h-491z" />
<glyph unicode="&#x4bb;" horiz-adv-x="1241" d="M117 0l193 1482l-119 43l17 83l272 42l52 -27l-94 -711q84 112 191 181.5t219 69.5q111 0 169.5 -70t58.5 -232q0 -65 -13.5 -149t-37.5 -207l-5 -28q-33 -191 -40 -290q-2 -38 3 -56.5t19 -18.5q17 0 40.5 12t65.5 43l31 -53q-10 -18 -47.5 -50.5t-90.5 -58t-109 -25.5 q-66 0 -98.5 31.5t-28.5 101.5q3 48 11.5 106.5t25.5 154.5l12 69l7 37q22 115 35.5 205t13.5 164q0 67 -14.5 101t-38 43.5t-60.5 9.5q-76 0 -170 -70t-170 -178l-100 -755h-200z" />
<glyph unicode="&#x4bc;" horiz-adv-x="1468" d="M12 936q0 25 11.5 65.5t28.5 74.5t32 43l160 -30q-15 -17 -34.5 -67.5t-19.5 -70.5q0 -39 32.5 -66t110.5 -29q43 201 147.5 356t249.5 240.5t308 85.5q125 0 214 -59t135.5 -171.5t46.5 -271.5q0 -84 -11.5 -164.5t-28.5 -125.5h-886q-5 -57 -5 -144q0 -167 48 -282.5 t128 -173t176 -57.5q105 0 178.5 31t116.5 80l64 148h110l-47 -292q-23 -1 -46.5 -6t-47.5 -11.5t-32 -8.5q-87 -25 -165 -39t-187 -14q-154 0 -265.5 76t-170 214t-58.5 322q0 79 9 152q-134 2 -218 50.5t-84 144.5zM520 856h691q28 128 28 214t-28 167t-88 133.5 t-150 52.5q-110 0 -202.5 -63t-158 -190.5t-92.5 -313.5z" />
<glyph unicode="&#x4bd;" horiz-adv-x="1250" d="M32 696q0 41 18.5 93.5t37.5 64.5l169 -35q-13 -14 -26.5 -57.5t-13.5 -68.5q0 -36 25.5 -64.5t85.5 -38.5q33 158 115 288.5t201.5 207.5t257.5 77q94 0 158.5 -32.5t96 -89t31.5 -128.5q0 -143 -117 -244t-274.5 -153t-271.5 -56q-2 -28 -2 -44q0 -71 22 -138.5 t70.5 -112t123.5 -44.5q82 0 169.5 35.5t168.5 110.5l47 -84q-32 -44 -93.5 -91t-144.5 -79.5t-175 -32.5q-136 0 -227 63t-134 165.5t-40 221.5q0 15 2 45q-127 12 -203.5 67.5t-76.5 153.5zM530 570q87 4 193 45t180.5 113.5t74.5 166.5q0 75 -33 112.5t-91 37.5 q-93 0 -163 -78.5t-110 -189t-51 -207.5z" />
<glyph unicode="&#x4be;" horiz-adv-x="1468" d="M12 936q0 25 11.5 65.5t28.5 74.5t32 43l160 -30q-15 -17 -34.5 -67.5t-19.5 -70.5q0 -39 32.5 -66t110.5 -29q43 201 147.5 356t249.5 240.5t308 85.5q125 0 214 -59t135.5 -171.5t46.5 -271.5q0 -84 -11.5 -164.5t-28.5 -125.5h-886q-5 -57 -5 -144q0 -167 48 -282.5 t128 -173t176 -57.5q105 0 178.5 31t116.5 80l64 148h110l-47 -292q-26 -1 -50 -6.5t-77 -19.5q-64 -19 -123.5 -31.5t-135.5 -18.5q10 -39 10 -95q0 -115 -37 -193.5t-101 -117.5t-145 -39q-40 0 -77 8t-54 20l16 151q12 -6 39 -10t52 -4q84 0 133 67.5t50 181.5 q0 20 -1 28q-147 6 -253.5 83t-162 213t-55.5 316q0 79 9 152q-134 2 -218 50.5t-84 144.5zM520 856h691q28 128 28 214t-28 167t-88 133.5t-150 52.5q-110 0 -202.5 -63t-158 -190.5t-92.5 -313.5z" />
<glyph unicode="&#x4bf;" horiz-adv-x="1250" d="M32 696q0 41 18.5 93.5t37.5 64.5l169 -35q-13 -14 -26.5 -57.5t-13.5 -68.5q0 -36 25.5 -64.5t85.5 -38.5q33 158 115 288.5t201.5 207.5t257.5 77q94 0 158.5 -32.5t96 -89t31.5 -128.5q0 -143 -117 -244t-274.5 -153t-271.5 -56q-2 -28 -2 -44q0 -71 22 -138.5 t70.5 -112t123.5 -44.5q82 0 169.5 35.5t168.5 110.5l47 -84q-42 -58 -127 -115t-189 -78q-27 -16 -42 -32.5t-15 -40.5q0 -15 5.5 -30.5t16.5 -38.5q14 -30 21.5 -53.5t7.5 -49.5q0 -50 -39 -100t-100 -87t-121 -52l-54 64q44 18 84 57.5t40 81.5q0 26 -15 60 q-10 23 -15 42t-5 46q0 67 71 127q-115 14 -192 79t-113 161.5t-33 205.5q0 15 2 45q-127 12 -203.5 67.5t-76.5 153.5zM530 570q87 4 193 45t180.5 113.5t74.5 166.5q0 75 -33 112.5t-91 37.5q-93 0 -163 -78.5t-110 -189t-51 -207.5z" />
<glyph unicode="&#x4c0;" horiz-adv-x="708" d="M28 0l9 87l148 30l161 1281l-133 23l12 101h490l-11 -101l-153 -23l-162 -1281l158 -29l-8 -88h-511z" />
<glyph unicode="&#x4c1;" horiz-adv-x="2018" d="M-30 0l12 87l82 30q34 11 94 77t171 202q134 164 222.5 260t152.5 127l-390 615l-146 24l12 100h464l-12 -100l-151 -25l349 -603h126l76 604l-134 23l12 101h481l-11 -101l-153 -23l-77 -604h146l484 603l-147 24l13 101h462l-13 -100l-149 -26l-526 -611 q54 -27 113.5 -116t146.5 -247q78 -140 125 -212t87 -93l91 -30l-12 -87h-256q-29 0 -63.5 45t-67.5 110.5t-86 179.5q-52 114 -87.5 184t-72 117.5t-68.5 47.5h-134l-71 -567l158 -29l-8 -88h-501l9 87l148 30l71 567h-110q-33 0 -81.5 -48t-100.5 -118t-134 -187 q-79 -113 -127 -177.5t-92.5 -109t-73.5 -44.5h-253zM805 1933q0 26 1.5 43.5t7.5 36.5h178q28 0 28 -46q0 -20 -3 -43q-2 -28 -2 -39q0 -69 38.5 -104t139.5 -35q70 0 109 23t55.5 63t23.5 102q5 36 15 57.5t31 21.5h147q0 -11 -2 -33q-19 -168 -125 -250.5t-267 -82.5 q-105 0 -190 31t-135 95.5t-50 159.5z" />
<glyph unicode="&#x4c2;" horiz-adv-x="1832" d="M-38 15l70 189l108 -111q51 0 114 72t107 202.5t44 296.5q0 169 -42 249.5t-111 80.5q-50 0 -86.5 -20.5t-97.5 -81.5l-43 53q136 201 287 201q87 0 153 -54t102.5 -155.5t36.5 -240.5q0 -20 -2 -58h214l59 498h200l-59 -498h208q33 139 104 255t171 184.5t214 68.5 q46 0 77 -8.5t53 -26.5l-70 -189l-109 111q-51 0 -113.5 -72t-106.5 -202.5t-44 -296.5q0 -169 41.5 -249.5t111.5 -80.5q50 0 86 20.5t98 81.5l42 -53q-136 -201 -287 -201q-87 0 -153 54t-102.5 155.5t-36.5 240.5q0 58 7 108h-203l-64 -539l-199 1l63 538h-214 q-27 -150 -98 -277.5t-175 -204t-225 -76.5q-46 0 -77 8.5t-53 26.5zM634 1555q0 26 1.5 43.5t7.5 36.5h177q28 0 28 -46q0 -20 -3 -43q-2 -28 -2 -39q0 -59 39 -89.5t139 -30.5q70 0 109 20.5t55.5 56.5t23.5 92q5 36 15 57.5t31 21.5h147q0 -11 -2 -33 q-19 -158 -125 -236.5t-267 -78.5q-104 0 -189 29.5t-135 89.5t-50 149z" />
<glyph unicode="&#x4c3;" horiz-adv-x="1363" d="M28 0l9 87l148 30l161 1281l-133 23l12 101h490l-11 -101l-154 -23l-75 -595q38 17 96 30.5t102 17.5l423 542l-155 29l12 100h463l-12 -100l-146 -25l-450 -555q134 -23 228 -105t143 -216.5t49 -314.5q0 -176 -81.5 -315t-220 -217t-304.5 -78q-23 0 -55 4.5t-45 10.5 l14 98q16 -2 76 -2q110 0 206 55.5t154.5 163.5t58.5 258q0 537 -398 537q-52 0 -88.5 -3.5t-82.5 -20.5l-73 -580l158 -29l-8 -88h-511z" />
<glyph unicode="&#x4c4;" horiz-adv-x="1167" d="M133 0l130 963l-98 59l18 89l247 52l55 -25l-73 -544q39 19 106 19q102 83 169 150.5t125 156.5q32 41 32 81q0 8 -4 26q-1 3 -3 13t-2 21q0 48 41.5 73.5t96.5 25.5q40 0 67 -20.5t27 -61.5q0 -69 -50.5 -142t-122 -137.5t-185.5 -156.5l-47 -38q128 -24 231.5 -109.5 t162.5 -206t59 -244.5q0 -125 -74.5 -228t-201.5 -161.5t-277 -58.5q-23 0 -55 4.5t-45 10.5l14 98q16 -2 76 -2q98 0 181 31.5t134 98t51 166.5q0 124 -56.5 240.5t-155 189.5t-215.5 73l-36 1q-9 1 -27 1q-8 0 -28 -2l-67 -506h-200z" />
<glyph unicode="&#x4c5;" horiz-adv-x="1316" d="M-57 37l45 208q12 -16 51 -35.5t81 -19.5q76 0 156.5 145.5t145 393.5t93.5 540l13 121l-217 32l13 100h1084l-12 -100l-181 -25l-160 -1282l153 -28l-2 -4h1q-7 -95 -72 -200t-162.5 -186t-195.5 -111l-46 53q48 30 105 93t97 136t40 132h-292l8 88l162 29l163 1295 h-360l-17 -151q-32 -302 -107 -596.5t-184.5 -487.5t-236.5 -193q-57 0 -90 11.5t-76 41.5z" />
<glyph unicode="&#x4c6;" horiz-adv-x="1140" d="M-52 8l50 223q8 -6 59.5 -20t67.5 -14q24 0 46 33q56 78 109 303t83 472l-179 29l13 102h817l-112 -948q-1 -10 -1 -26q0 -50 23 -50q30 0 87 46l31 -53q0 -97 -66.5 -207t-170.5 -196.5t-207 -117.5l-43 52q45 28 99.5 86.5t95.5 128t48 128.5q-58 1 -91 26.5t-33 80.5 q0 7 2 27l115 894h-316q-34 -290 -90.5 -544t-109.5 -335q-31 -48 -60 -78t-73 -48t-107 -18q-18 0 -51 9t-36 15z" />
<glyph unicode="&#x4c7;" horiz-adv-x="1551" d="M28 0l9 87l148 30l161 1281l-133 23l12 101h490l-11 -101l-153 -23l-70 -554h667l11 112q28 298 45 442l-141 23l14 101h490l-11 -101l-155 -22q-18 -169 -23 -217q-63 -582 -91 -816.5t-47 -290.5q-60 -188 -201.5 -289.5t-316.5 -130.5l-36 89q87 25 163 80.5 t127 125.5t66 136q29 132 50.5 284t42.5 344h-671l-75 -597l158 -29l-8 -88h-511z" />
<glyph unicode="&#x4c8;" horiz-adv-x="1349" d="M133 0l130 963l-99 59l18 89l248 52l55 -25l-66 -491h550l62 488h184l-116 -933q-38 -306 -160.5 -456t-336.5 -150q-25 0 -57.5 4.5t-45.5 11.5l15 117q16 -2 76 -2q103 0 165.5 47t101.5 161t65 325l32 268h-551l-70 -528h-200z" />
<glyph unicode="&#x4c9;" horiz-adv-x="1538" d="M28 0l10 87l147 30l161 1281l-133 23l12 101h491l-11 -101l-154 -23l-70 -554h649l70 554l-151 23l10 101h495l-12 -101l-138 -23l-161 -1280l152 -31l-9 -87h-3q-76 -114 -262 -336l-107 48q41 65 90 150t73 138h-309l8 88l164 30l74 596h-650l-75 -597l158 -29l-8 -88 h-511z" />
<glyph unicode="&#x4ca;" horiz-adv-x="1303" d="M133 0l130 963l-99 59l18 89l248 52l55 -25l-66 -491h497l61 489h195l-110 -948q-1 -10 -1 -26q0 -50 23 -50q30 0 87 46l31 -53q-2 -101 -67 -211t-165 -195t-201 -115l-44 52q45 28 99.5 86.5t95.5 128t48 128.5q-58 1 -91.5 27t-33.5 80q0 8 2 26l56 416h-498 l-70 -528h-200z" />
<glyph unicode="&#x4cb;" horiz-adv-x="1283" d="M80 1421l12 101h476l-11 -101l-138 -27l-26 -210q-11 -90 -16 -144.5t-5 -97.5q0 -76 20 -119t69 -63t138 -20q67 0 146.5 16.5t123.5 37.5l76 604l-154 23l12 101h491l-11 -101l-134 -23l-161 -1281l139 -30l-9 -87h-345q-20 -54 -51 -170t-40 -172h-133q8 75 25 231.5 t26 227.5h184l70 560q-76 -39 -167 -58.5t-179 -19.5q-113 0 -188 26.5t-117 96t-42 195.5q0 49 8 119l45 361z" />
<glyph unicode="&#x4cc;" horiz-adv-x="1167" d="M83 1023l17 89l249 51l55 -25l-33 -273q-16 -131 -16 -191q0 -67 18.5 -98.5t60.5 -41.5t128 -10q66 0 120 11t88 30l70 571h185l-99 -948q-1 -7 -1 -20q0 -26 8 -41t21 -15q30 0 87 46l31 -53q-10 -17 -45.5 -47.5t-85 -54.5t-99.5 -24q-60 0 -94.5 27t-34.5 83 q0 7 2 25l40 333q-142 -66 -312 -66q-99 0 -159 19.5t-91.5 75.5t-31.5 162q0 48 8 122l23 198zM176 -431q44 18 83.5 56.5t39.5 80.5q0 26 -15 60q-10 24 -14.5 42.5t-4.5 45.5q0 57 47.5 107.5t109 83t95.5 36.5l29 -51q-10 -7 -32 -19q-38 -20 -57 -38t-19 -46 q0 -24 22 -75q14 -34 21.5 -59.5t7.5 -50.5q0 -50 -39 -99.5t-99 -86t-121 -51.5z" />
<glyph unicode="&#x4cd;" horiz-adv-x="1876" d="M-54 0l10 88l160 29l317 1281l-161 23l12 101h447l164 -1044l15 -167l65 167q71 172 233 536q161 361 222 508h424l-11 -101l-165 -23l-25 -1280l154 -30l-9 -88q-76 -114 -262 -336l-107 48q41 65 90 150t73 138h-327l9 88l176 28l37 901l30 403l-137 -355l-471 -1068 l-112 -15l-172 1059l-61 377l-72 -387l-212 -914l187 -29l-9 -88h-512z" />
<glyph unicode="&#x4ce;" horiz-adv-x="1623" d="M-70 8l50 223q7 -6 73 -20t83 -14q68 154 112 327.5t83 377.5q13 69 21 103l-178 29l12 102h454l135 -669l33 -205l76 205l312 669h247l3 -907q3 -43 12 -80t22 -37q31 0 87 46l32 -54q-23 -99 -98 -207.5t-174 -193.5t-190 -118l-43 51q44 27 97.5 85t98.5 128.5 t63 130.5q-55 2 -82.5 32.5t-28.5 98.5l7 578l18 336l-151 -334l-338 -706h-88l-157 702l-68 314l-64 -316q-41 -202 -77 -332.5t-80 -224.5q-34 -73 -84 -108.5t-144 -35.5q-18 0 -50.5 8.5t-35.5 15.5z" />
<glyph unicode="&#x4cf;" horiz-adv-x="708" d="M28 0l9 87l148 30l161 1281l-133 23l12 101h490l-11 -101l-153 -23l-162 -1281l158 -29l-8 -88h-511z" />
<glyph unicode="&#x4d0;" horiz-adv-x="1342" d="M-120 0l9 87l119 29l707 1406h205l253 -1403l156 -32l-7 -87h-515l5 87l156 29l-50 319h-567l-150 -318l160 -30l-6 -87h-475zM408 557h491l-104 676l-11 121zM458 1933q0 26 1.5 43.5t7.5 36.5h178q28 0 28 -46q0 -20 -3 -43q-2 -28 -2 -39q0 -69 38.5 -104t139.5 -35 q70 0 109 23t55.5 63t23.5 102q5 36 15 57.5t31 21.5h147q0 -11 -2 -33q-19 -168 -125 -250.5t-267 -82.5q-105 0 -190 31t-135 95.5t-50 159.5z" />
<glyph unicode="&#x4d1;" horiz-adv-x="1175" d="M82 412q0 163 79.5 339t228 294t342.5 118q46 0 99 -10t100 -25l121 34l-131 -973q-1 -8 -1 -21q0 -27 9 -41t22 -14q15 0 35 10t53 36l31 -54q-9 -17 -42.5 -47t-82 -54t-100.5 -24q-64 0 -98.5 32.5t-30.5 102.5l7 66q-66 -85 -152 -143t-177 -58q-161 0 -236.5 116 t-75.5 316zM293 435q0 -312 142 -312q79 0 163.5 69.5t145.5 156.5l86 660q-49 31 -129 31q-133 0 -225 -95.5t-137.5 -236t-45.5 -273.5zM346 1555q0 26 1.5 43.5t7.5 36.5h177q28 0 28 -46q0 -20 -3 -43q-2 -28 -2 -39q0 -59 39 -89.5t139 -30.5q70 0 109 20.5t55.5 56.5 t23.5 92q5 36 15 57.5t31 21.5h147q0 -11 -2 -33q-19 -158 -125 -236.5t-267 -78.5q-104 0 -189 29.5t-135 89.5t-50 149z" />
<glyph unicode="&#x4d2;" horiz-adv-x="1342" d="M-120 0l9 87l119 29l707 1406h205l253 -1403l156 -32l-7 -87h-515l5 87l156 29l-50 319h-567l-150 -318l160 -30l-6 -87h-475zM408 557h491l-104 676l-11 121zM524 1840q0 39 21.5 73.5t55 55.5t67.5 21q55 0 89 -33t34 -80q0 -40 -21.5 -75t-56.5 -56.5t-75 -21.5 q-46 0 -80 34.5t-34 81.5zM943 1842q0 38 22.5 72.5t56.5 55t67 20.5q55 0 88.5 -32.5t33.5 -79.5q0 -40 -21 -75.5t-56 -57t-76 -21.5q-47 0 -81 34.5t-34 83.5z" />
<glyph unicode="&#x4d3;" horiz-adv-x="1175" d="M82 412q0 163 79.5 339t228 294t342.5 118q46 0 99 -10t100 -25l121 34l-131 -973q-1 -8 -1 -21q0 -27 9 -41t22 -14q15 0 35 10t53 36l31 -54q-9 -17 -42.5 -47t-82 -54t-100.5 -24q-64 0 -98.5 32.5t-30.5 102.5l7 66q-66 -85 -152 -143t-177 -58q-161 0 -236.5 116 t-75.5 316zM293 435q0 -312 142 -312q79 0 163.5 69.5t145.5 156.5l86 660q-49 31 -129 31q-133 0 -225 -95.5t-137.5 -236t-45.5 -273.5zM403 1503q0 39 20.5 73.5t54.5 55.5t71 21q55 0 89.5 -32.5t34.5 -79.5q0 -40 -21 -76t-56.5 -57.5t-76.5 -21.5q-47 0 -81.5 34.5 t-34.5 82.5zM825 1501q0 39 20 74.5t54 56.5t72 21q55 0 89 -32.5t34 -79.5q0 -40 -21 -76t-56 -57.5t-76 -21.5q-47 0 -81.5 34t-34.5 81z" />
<glyph unicode="&#x4d4;" horiz-adv-x="1818" d="M-164 0l14 87l154 29l701 1283l-291 22l14 101h1326l-8 -292h-111l-47 169l-397 15l-73 -567l401 24l-15 -167l-397 17l-73 -604l511 24l97 190l107 -31l-65 -300h-989l10 87l121 29l42 358h-474l-182 -357l189 -30l-6 -87h-559zM456 596h427l94 795l-114 5z" />
<glyph unicode="&#x4d5;" horiz-adv-x="1712" d="M82 411q0 163 80 338.5t229 294t343 118.5q47 0 99.5 -9.5t98.5 -24.5l118 34l-18 -133q72 64 155 98.5t171 34.5t147.5 -34t88.5 -91t29 -128q0 -143 -114 -243t-268 -151t-267 -55q-2 -44 -2 -65q0 -125 41 -199.5t147 -74.5q87 0 180 35.5t177 110.5l47 -84 q-33 -44 -97 -91t-151.5 -79.5t-183.5 -32.5q-159 0 -249.5 81t-114.5 231q-38 -80 -95 -151t-129.5 -116t-151.5 -45q-154 0 -232 113t-78 318zM293 435q0 -156 35.5 -233.5t103.5 -77.5t133 51t114 120.5t81 133.5v1q1 62 12 123l-2 -3l74 451q-50 39 -140 39 q-133 0 -226 -95.5t-139 -236t-46 -273.5zM979 570q86 4 188.5 44.5t174.5 113.5t72 167q-1 76 -32 113t-88 37q-91 0 -158.5 -78.5t-106.5 -188.5t-50 -208z" />
<glyph unicode="&#x4d6;" horiz-adv-x="1233" d="M25 0l11 87l149 29l160 1282l-133 23l12 101h934l-8 -312h-111l-47 189l-437 15l-72 -559l448 8l-13 -159l-447 17l-83 -604l547 24l119 211l109 -30l-88 -322h-1050zM408 1933q0 26 1.5 43.5t7.5 36.5h178q28 0 28 -46q0 -20 -3 -43q-2 -28 -2 -39q0 -69 38.5 -104 t139.5 -35q70 0 109 23t55.5 63t23.5 102q5 36 15 57.5t31 21.5h147q0 -11 -2 -33q-19 -168 -125 -250.5t-267 -82.5q-105 0 -190 31t-135 95.5t-50 159.5z" />
<glyph unicode="&#x4d7;" horiz-adv-x="1052" d="M85 430q5 189 84 358t213 272t295 103q94 0 158.5 -32.5t96 -89t31.5 -128.5q0 -143 -117 -244t-274.5 -153t-271.5 -56q-2 -26 -2 -41q0 -71 22 -139.5t70.5 -114t123.5 -45.5q82 0 170 36t168 111l47 -84q-32 -44 -93.5 -91t-144.5 -79.5t-174 -32.5q-136 0 -227.5 63 t-134.5 165.5t-40 221.5zM305 570q88 4 193.5 45t180.5 114t75 167q-1 75 -34.5 112t-90.5 37q-93 0 -163 -78.5t-110 -189t-51 -207.5zM306 1555q0 26 1.5 43.5t7.5 36.5h177q28 0 28 -46q0 -20 -3 -43q-2 -28 -2 -39q0 -59 39 -89.5t139 -30.5q70 0 109 20.5t55.5 56.5 t23.5 92q5 36 15 57.5t31 21.5h147q0 -11 -2 -33q-19 -158 -125 -236.5t-267 -78.5q-104 0 -189 29.5t-135 89.5t-50 149z" />
<glyph unicode="&#x4d8;" horiz-adv-x="1300" d="M73 479q0 84 11.5 164t28.5 126h915q5 75 5 144q0 166 -48 282t-128 173.5t-176 57.5q-115 0 -195.5 -31t-128.5 -80l-63 -148h-110l47 292q24 1 48.5 6t49.5 11.5t35 8.5q93 25 175.5 39t198.5 14q154 0 265 -76t169.5 -214t58.5 -322q0 -268 -99.5 -485.5t-268 -340.5 t-365.5 -123q-134 0 -229.5 59t-145.5 171.5t-50 271.5zM269 445q0 -87 33.5 -168t100.5 -133t160 -52q110 0 202.5 62.5t158 190t92.5 314.5h-719q-28 -128 -28 -214z" />
<glyph unicode="&#x4d9;" horiz-adv-x="1019" d="M50 230q0 143 117 244t274.5 153t271.5 56q2 28 2 44q0 71 -22 138.5t-70.5 112.5t-123.5 45q-82 0 -169.5 -36t-168.5 -111l-47 84q32 44 93.5 91t144.5 79.5t175 32.5q136 0 227 -63t134 -165.5t40 -221.5q-4 -189 -83.5 -358t-213.5 -272t-295 -103q-94 0 -158 32.5 t-96 89t-32 128.5zM260 247q0 -75 33.5 -112t90.5 -37q93 0 163 78.5t110 188.5t52 208q-88 -4 -194 -45t-180.5 -114t-74.5 -167z" />
<glyph unicode="&#x4da;" horiz-adv-x="1300" d="M73 479q0 84 11.5 164t28.5 126h915q5 75 5 144q0 166 -48 282t-128 173.5t-176 57.5q-115 0 -195.5 -31t-128.5 -80l-63 -148h-110l47 292q24 1 48.5 6t49.5 11.5t35 8.5q93 25 175.5 39t198.5 14q154 0 265 -76t169.5 -214t58.5 -322q0 -268 -99.5 -485.5t-268 -340.5 t-365.5 -123q-134 0 -229.5 59t-145.5 171.5t-50 271.5zM269 445q0 -87 33.5 -168t100.5 -133t160 -52q110 0 202.5 62.5t158 190t92.5 314.5h-719q-28 -128 -28 -214zM473 1840q0 39 21.5 73.5t55 55.5t67.5 21q55 0 89 -33t34 -80q0 -40 -21.5 -75t-56.5 -56.5t-75 -21.5 q-46 0 -80 34.5t-34 81.5zM892 1842q0 38 22.5 72.5t56.5 55t67 20.5q55 0 88.5 -32.5t33.5 -79.5q0 -40 -21 -75.5t-56 -57t-76 -21.5q-47 0 -81 34.5t-34 83.5z" />
<glyph unicode="&#x4db;" horiz-adv-x="1019" d="M50 230q0 143 117 244t274.5 153t271.5 56q2 28 2 44q0 71 -22 138.5t-70.5 112.5t-123.5 45q-82 0 -169.5 -36t-168.5 -111l-47 84q32 44 93.5 91t144.5 79.5t175 32.5q136 0 227 -63t134 -165.5t40 -221.5q-4 -189 -83.5 -358t-213.5 -272t-295 -103q-94 0 -158 32.5 t-96 89t-32 128.5zM241 1503q0 39 20.5 73.5t54.5 55.5t71 21q55 0 89.5 -32.5t34.5 -79.5q0 -40 -21 -76t-56.5 -57.5t-76.5 -21.5q-47 0 -81.5 34.5t-34.5 82.5zM260 247q0 -75 33.5 -112t90.5 -37q93 0 163 78.5t110 188.5t52 208q-88 -4 -194 -45t-180.5 -114 t-74.5 -167zM663 1501q0 39 20 74.5t54 56.5t72 21q55 0 89 -32.5t34 -79.5q0 -40 -21 -76t-56 -57.5t-76 -21.5q-47 0 -81.5 34t-34.5 81z" />
<glyph unicode="&#x4dc;" horiz-adv-x="2018" d="M-30 0l12 87l82 30q34 11 94 77t171 202q134 164 222.5 260t152.5 127l-390 615l-146 24l12 100h464l-12 -100l-151 -25l349 -603h126l76 604l-134 23l12 101h481l-11 -101l-153 -23l-77 -604h146l484 603l-147 24l13 101h462l-13 -100l-149 -26l-526 -611 q54 -27 113.5 -116t146.5 -247q78 -140 125 -212t87 -93l91 -30l-12 -87h-256q-29 0 -63.5 45t-67.5 110.5t-86 179.5q-52 114 -87.5 184t-72 117.5t-68.5 47.5h-134l-71 -567l158 -29l-8 -88h-501l9 87l148 30l71 567h-110q-33 0 -81.5 -48t-100.5 -118t-134 -187 q-79 -113 -127 -177.5t-92.5 -109t-73.5 -44.5h-253zM850 1840q0 39 21.5 73.5t55 55.5t67.5 21q55 0 89 -33t34 -80q0 -40 -21.5 -75t-56.5 -56.5t-75 -21.5q-46 0 -80 34.5t-34 81.5zM1269 1842q0 38 22.5 72.5t56.5 55t67 20.5q55 0 88.5 -32.5t33.5 -79.5 q0 -40 -21 -75.5t-56 -57t-76 -21.5q-47 0 -81 34.5t-34 83.5z" />
<glyph unicode="&#x4dd;" horiz-adv-x="1832" d="M-38 15l70 189l108 -111q51 0 114 72t107 202.5t44 296.5q0 169 -42 249.5t-111 80.5q-50 0 -86.5 -20.5t-97.5 -81.5l-43 53q136 201 287 201q87 0 153 -54t102.5 -155.5t36.5 -240.5q0 -20 -2 -58h214l59 498h200l-59 -498h208q33 139 104 255t171 184.5t214 68.5 q46 0 77 -8.5t53 -26.5l-70 -189l-109 111q-51 0 -113.5 -72t-106.5 -202.5t-44 -296.5q0 -169 41.5 -249.5t111.5 -80.5q50 0 86 20.5t98 81.5l42 -53q-136 -201 -287 -201q-87 0 -153 54t-102.5 155.5t-36.5 240.5q0 58 7 108h-203l-64 -539l-199 1l63 538h-214 q-27 -150 -98 -277.5t-175 -204t-225 -76.5q-46 0 -77 8.5t-53 26.5zM679 1503q0 39 20.5 73.5t54.5 55.5t71 21q55 0 89.5 -32.5t34.5 -79.5q0 -40 -21 -76t-56.5 -57.5t-76.5 -21.5q-47 0 -81.5 34.5t-34.5 82.5zM1101 1501q0 39 20 74.5t54 56.5t72 21q55 0 89 -32.5 t34 -79.5q0 -40 -21 -76t-56 -57.5t-76 -21.5q-47 0 -81.5 34t-34.5 81z" />
<glyph unicode="&#x4de;" horiz-adv-x="1156" d="M10 68l88 331h104v-237q42 -23 113 -36.5t167 -13.5q105 0 186.5 43.5t127.5 129.5t46 208q0 116 -69.5 174.5t-237.5 58.5l-146 -11l14 128h122q82 0 158 40.5t124.5 124.5t48.5 207q0 102 -54.5 154.5t-156.5 52.5q-95 0 -161 -23.5t-90 -66.5l-46 -162h-120l21 301 q22 1 56.5 8.5t70.5 16.5q81 20 139 31t117 11q140 0 238 -35.5t147.5 -100.5t49.5 -155q0 -128 -50.5 -220.5t-128 -145.5t-163.5 -72q173 -4 257 -87t84 -217q0 -156 -87 -273.5t-236 -180.5t-329 -63q-131 0 -234 24.5t-170 55.5zM170 1840q0 39 21.5 73.5t55 55.5 t67.5 21q55 0 89 -33t34 -80q0 -40 -21.5 -75t-56.5 -56.5t-75 -21.5q-46 0 -80 34.5t-34 81.5zM589 1842q0 38 22.5 72.5t56.5 55t67 20.5q55 0 88.5 -32.5t33.5 -79.5q0 -40 -21 -75.5t-56 -57t-76 -21.5q-47 0 -81 34.5t-34 83.5z" />
<glyph unicode="&#x4df;" horiz-adv-x="1033" d="M23 71l72 191l110 -114q43 -31 83 -41t99 -10q164 0 240 69t76 187q0 89 -57.5 138.5t-197.5 49.5l-111 -21l24 133l63 6q100 11 166.5 48.5t98.5 89.5t32 108q0 68 -47.5 105t-159.5 37q-87 0 -136 -18t-72 -42l-63 -178h-113l36 297q39 0 70 5.5t79 17.5 q62 16 114.5 24t130.5 8q172 0 267.5 -63t95.5 -176q0 -59 -42 -120.5t-111 -110.5t-146 -74q139 -6 217.5 -70.5t78.5 -169.5q0 -117 -70.5 -206.5t-189.5 -138t-262 -48.5q-126 0 -214 25t-161 62zM258 1503q0 39 20.5 73.5t54.5 55.5t71 21q55 0 89.5 -32.5t34.5 -79.5 q0 -40 -21 -76t-56.5 -57.5t-76.5 -21.5q-47 0 -81.5 34.5t-34.5 82.5zM680 1501q0 39 20 74.5t54 56.5t72 21q55 0 89 -32.5t34 -79.5q0 -40 -21 -76t-56 -57.5t-76 -21.5q-47 0 -81.5 34t-34.5 81z" />
<glyph unicode="&#x4e0;" horiz-adv-x="1189" d="M51 66l80 333h107l28 -236q15 -12 32.5 -21t66 -19t128.5 -10q135 0 222.5 55.5t127.5 143t40 184.5q0 122 -77 194.5t-223 73.5q-58 0 -129 -12l-30 37l471 575h-463l-67 -195h-119l27 353h877l-13 -102l-520 -587q68 10 128 10q156 0 258 -75.5t102 -247.5 q0 -151 -81.5 -272t-230 -190.5t-343.5 -69.5q-95 0 -179.5 18.5t-174.5 46.5q-40 12 -45 13z" />
<glyph unicode="&#x4e1;" horiz-adv-x="1028" d="M43 -263l16 118q55 -22 101 -32.5t96 -10.5q130 0 225.5 52t146 143t50.5 204q0 99 -51.5 156.5t-168.5 57.5q-43 0 -86 -7l-20 64l390 496h-438l-66 -162h-118l45 319h776l27 -100l-445 -540q30 5 69 5q98 0 166 -41.5t101.5 -110.5t33.5 -150q0 -137 -82 -253.5 t-219.5 -185t-293.5 -68.5q-71 0 -120 10t-108 28z" />
<glyph unicode="&#x4e2;" horiz-adv-x="1599" d="M28 0l10 87l147 30l161 1281l-133 23l12 101h485l-11 -101l-154 -23l-126 -1002l125 165l699 732l13 105l-133 23l12 101h485l-12 -101l-154 -23l-161 -1281l158 -29l-8 -88h-505l9 87l148 30l126 1001l-106 -141l-719 -760l-12 -100l157 -29l-8 -88h-505zM455 1869 l19 152h512l-20 -152h-511z" />
<glyph unicode="&#x4e3;" horiz-adv-x="1210" d="M149 1023l18 89l249 51l48 -24l-69 -550q-3 -24 -5.5 -43t-4.5 -35q-11 -78 -15.5 -126t-4.5 -99q0 -97 35 -132.5t106 -35.5q66 0 136 46t122 114l116 877h199l-125 -964q-3 -19 -3 -34q0 -42 25 -42q17 0 40.5 14t65.5 52l31 -54q-13 -20 -50.5 -55t-90.5 -62.5 t-108 -27.5q-56 0 -86 29t-30 81q0 18 5 45l-1 9q-143 -166 -332 -166q-123 0 -190 63t-67 211q0 58 8.5 135t26.5 208l51 366zM401 1424l19 152h512l-20 -152h-511z" />
<glyph unicode="&#x4e4;" horiz-adv-x="1599" d="M28 0l10 87l147 30l161 1281l-133 23l12 101h485l-11 -101l-154 -23l-126 -1002l125 165l699 732l13 105l-133 23l12 101h485l-12 -101l-154 -23l-161 -1281l158 -29l-8 -88h-505l9 87l148 30l126 1001l-106 -141l-719 -760l-12 -100l157 -29l-8 -88h-505zM424 1840 q0 39 21.5 73.5t55 55.5t67.5 21q55 0 89 -33t34 -80q0 -40 -21.5 -75t-56.5 -56.5t-75 -21.5q-46 0 -80 34.5t-34 81.5zM843 1842q0 38 22.5 72.5t56.5 55t67 20.5q55 0 88.5 -32.5t33.5 -79.5q0 -40 -21 -75.5t-56 -57t-76 -21.5q-47 0 -81 34.5t-34 83.5z" />
<glyph unicode="&#x4e5;" horiz-adv-x="1210" d="M149 1023l18 89l249 51l48 -24l-69 -550q-3 -24 -5.5 -43t-4.5 -35q-11 -78 -15.5 -126t-4.5 -99q0 -97 35 -132.5t106 -35.5q66 0 136 46t122 114l116 877h199l-125 -964q-3 -19 -3 -34q0 -42 25 -42q17 0 40.5 14t65.5 52l31 -54q-13 -20 -50.5 -55t-90.5 -62.5 t-108 -27.5q-56 0 -86 29t-30 81q0 18 5 45l-1 9q-143 -166 -332 -166q-123 0 -190 63t-67 211q0 58 8.5 135t26.5 208l51 366zM354 1503q0 39 20.5 73.5t54.5 55.5t71 21q55 0 89.5 -32.5t34.5 -79.5q0 -40 -21 -76t-56.5 -57.5t-76.5 -21.5q-47 0 -81.5 34.5t-34.5 82.5z M776 1501q0 39 20 74.5t54 56.5t72 21q55 0 89 -32.5t34 -79.5q0 -40 -21 -76t-56 -57.5t-76 -21.5q-47 0 -81.5 34t-34.5 81z" />
<glyph unicode="&#x4e6;" horiz-adv-x="1383" d="M119 642q0 255 90 460.5t248.5 322.5t354.5 117q166 0 279 -87.5t167.5 -235.5t54.5 -331q0 -256 -90 -463.5t-248 -326t-355 -118.5q-166 0 -279 89t-167.5 239t-54.5 334zM327 672q0 -170 36 -299t108 -201t177 -72q127 0 230 97t162 269t59 387q0 172 -36 298.5 t-108 196t-177 69.5q-127 0 -230 -95.5t-162 -265.5t-59 -384zM522 1840q0 39 21.5 73.5t55 55.5t67.5 21q55 0 89 -33t34 -80q0 -40 -21.5 -75t-56.5 -56.5t-75 -21.5q-46 0 -80 34.5t-34 81.5zM941 1842q0 38 22.5 72.5t56.5 55t67 20.5q55 0 88.5 -32.5t33.5 -79.5 q0 -40 -21 -75.5t-56 -57t-76 -21.5q-47 0 -81 34.5t-34 83.5z" />
<glyph unicode="&#x4e7;" horiz-adv-x="1145" d="M85 452q0 181 74 345t204.5 265t291.5 101q193 0 296.5 -124t103.5 -349q0 -181 -74 -345t-204.5 -264.5t-292.5 -100.5q-193 0 -296 123.5t-103 348.5zM299 463q0 -174 55 -267.5t165 -93.5q104 0 177 88.5t108.5 222.5t35.5 270q0 171 -56 264t-165 93 q-104 0 -176 -87.5t-108 -220.5t-36 -269zM341 1503q0 39 20.5 73.5t54.5 55.5t71 21q55 0 89.5 -32.5t34.5 -79.5q0 -40 -21 -76t-56.5 -57.5t-76.5 -21.5q-47 0 -81.5 34.5t-34.5 82.5zM763 1501q0 39 20 74.5t54 56.5t72 21q55 0 89 -32.5t34 -79.5q0 -40 -21 -76 t-56 -57.5t-76 -21.5q-47 0 -81.5 34t-34.5 81z" />
<glyph unicode="&#x4e8;" horiz-adv-x="1383" d="M119 642q0 255 90 460.5t248.5 322.5t354.5 117q166 0 279 -87.5t167.5 -235.5t54.5 -331q0 -256 -90 -463.5t-248 -326t-355 -118.5q-166 0 -279 89t-167.5 239t-54.5 334zM327 668q0 -169 36 -297t108 -199.5t177 -71.5q113 0 207.5 77t156.5 216t80 319h-765v-44z M335 820h763q1 19 1 59q-5 251 -86.5 394.5t-234.5 143.5q-112 0 -206 -75t-156 -210.5t-81 -311.5z" />
<glyph unicode="&#x4e9;" horiz-adv-x="1145" d="M85 452q0 181 74 345t204.5 265t291.5 101q193 0 296.5 -124t103.5 -349q0 -181 -74 -345t-204.5 -264.5t-292.5 -100.5q-193 0 -296 123.5t-103 348.5zM299 465q0 -174 55 -268.5t165 -94.5q86 0 150.5 61t104 159.5t56.5 215.5h-528q-3 -37 -3 -73zM315 646h524 q1 19 1 56q-2 161 -58.5 249.5t-162.5 88.5q-81 0 -143 -54t-102 -143.5t-59 -196.5z" />
<glyph unicode="&#x4ea;" horiz-adv-x="1383" d="M119 642q0 255 90 460.5t248.5 322.5t354.5 117q166 0 279 -87.5t167.5 -235.5t54.5 -331q0 -256 -90 -463.5t-248 -326t-355 -118.5q-166 0 -279 89t-167.5 239t-54.5 334zM327 668q0 -169 36 -297t108 -199.5t177 -71.5q113 0 207.5 77t156.5 216t80 319h-765v-44z M335 820h763q1 19 1 59q-5 251 -86.5 394.5t-234.5 143.5q-112 0 -206 -75t-156 -210.5t-81 -311.5zM522 1840q0 39 21.5 73.5t55 55.5t67.5 21q55 0 89 -33t34 -80q0 -40 -21.5 -75t-56.5 -56.5t-75 -21.5q-46 0 -80 34.5t-34 81.5zM941 1842q0 38 22.5 72.5t56.5 55 t67 20.5q55 0 88.5 -32.5t33.5 -79.5q0 -40 -21 -75.5t-56 -57t-76 -21.5q-47 0 -81 34.5t-34 83.5z" />
<glyph unicode="&#x4eb;" horiz-adv-x="1145" d="M85 452q0 181 74 345t204.5 265t291.5 101q193 0 296.5 -124t103.5 -349q0 -181 -74 -345t-204.5 -264.5t-292.5 -100.5q-193 0 -296 123.5t-103 348.5zM299 465q0 -174 55 -268.5t165 -94.5q86 0 150.5 61t104 159.5t56.5 215.5h-528q-3 -37 -3 -73zM315 646h524 q1 19 1 56q-2 161 -58.5 249.5t-162.5 88.5q-81 0 -143 -54t-102 -143.5t-59 -196.5zM341 1503q0 39 20.5 73.5t54.5 55.5t71 21q55 0 89.5 -32.5t34.5 -79.5q0 -40 -21 -76t-56.5 -57.5t-76.5 -21.5q-47 0 -81.5 34.5t-34.5 82.5zM763 1501q0 39 20 74.5t54 56.5t72 21 q55 0 89 -32.5t34 -79.5q0 -40 -21 -76t-56 -57.5t-76 -21.5q-47 0 -81.5 34t-34.5 81z" />
<glyph unicode="&#x4ec;" horiz-adv-x="1222" d="M45 346l124 11l60 -166q75 -99 271 -99q122 0 229 77t180 222.5t94 342.5q-104 -15 -226 -23t-283 -15l-81 -4l-34 171l631 -20q1 14 1 41q0 151 -38.5 273t-122.5 195t-214 73q-100 0 -162 -29.5t-106 -80.5l-63 -165h-133l50 309q26 1 52.5 8t63.5 19q78 25 148.5 38.5 t175.5 13.5q179 0 308.5 -81t198 -227.5t68.5 -340.5q0 -258 -107.5 -467t-289.5 -327t-396 -118q-82 0 -139.5 13t-121.5 36q-40 15 -66.5 22t-54.5 7zM260 1840q0 39 21.5 73.5t55 55.5t67.5 21q55 0 89 -33t34 -80q0 -40 -21.5 -75t-56.5 -56.5t-75 -21.5q-46 0 -80 34.5 t-34 81.5zM679 1842q0 38 22.5 72.5t56.5 55t67 20.5q55 0 88.5 -32.5t33.5 -79.5q0 -40 -21 -75.5t-56 -57t-76 -21.5q-47 0 -81 34.5t-34 83.5z" />
<glyph unicode="&#x4ed;" horiz-adv-x="1011" d="M24 91l27 202h111q1 -1 7 -80q6 -80 7 -81q98 -38 206 -38q162 0 251.5 125.5t116.5 312.5q-115 -11 -235.5 -17t-139.5 -7q15 0 -83 -4l-34 151h502q1 10 1 29q0 125 -36 210t-97.5 126t-138.5 41q-66 0 -110 -12.5t-80 -39.5l-67 -146h-103l32 260q45 21 149.5 35.5 t201.5 14.5q140 0 243 -55t159.5 -164t56.5 -267q0 -212 -83 -373.5t-219.5 -249t-291.5 -87.5q-122 0 -210 31.5t-143 82.5zM262 1503q0 39 20.5 73.5t54.5 55.5t71 21q55 0 89.5 -32.5t34.5 -79.5q0 -40 -21 -76t-56.5 -57.5t-76.5 -21.5q-47 0 -81.5 34.5t-34.5 82.5z M684 1501q0 39 20 74.5t54 56.5t72 21q55 0 89 -32.5t34 -79.5q0 -40 -21 -76t-56 -57.5t-76 -21.5q-47 0 -81.5 34t-34.5 81z" />
<glyph unicode="&#x4ee;" horiz-adv-x="1218" d="M106 1421l12 101h494l-10 -100l-166 -25l210 -732l37 -183l67 185l333 730l-153 24l12 101h412l-12 -100l-104 -25l-523 -1058q-6 -11 -18 -37q-46 -94 -87.5 -160t-108 -115.5t-154.5 -49.5q-49 0 -92 10.5t-73 27.5l18 157h146q62 0 102 10.5t69 40.5t50 88l-339 1086z M533 1728l19 152h512l-20 -152h-511z" />
<glyph unicode="&#x4ef;" horiz-adv-x="1072" d="M-126 -478l47 160q4 -2 27 -13t61.5 -19.5t81.5 -8.5q49 0 111.5 29.5t127.5 98t116 177.5h-96l-172 1017q-5 30 -14.5 43t-25.5 13q-15 0 -32 -7t-49 -34l-29 60q11 17 44.5 47t79.5 54t94 24q70 0 98.5 -34t36.5 -103l41 -346l46 -387l20 -272l155 310q26 63 59 131 q46 99 72 163.5t43.5 141.5t17.5 161q0 25 -17 63q-9 24 -13 37.5t-4 29.5q0 53 27 78.5t72 25.5q130 0 130 -191q0 -92 -28.5 -190t-68 -183t-103.5 -207l-34 -66q-239 -480 -387 -661q-48 -68 -140.5 -119t-220.5 -51q-32 0 -87.5 9t-86.5 19zM340 1424l19 152h512 l-20 -152h-511z" />
<glyph unicode="&#x4f0;" horiz-adv-x="1218" d="M106 1421l12 101h494l-10 -100l-166 -25l210 -732l37 -183l67 185l333 730l-153 24l12 101h412l-12 -100l-104 -25l-523 -1058q-6 -11 -18 -37q-46 -94 -87.5 -160t-108 -115.5t-154.5 -49.5q-49 0 -92 10.5t-73 27.5l18 157h146q62 0 102 10.5t69 40.5t50 88l-339 1086z M452 1840q0 39 21.5 73.5t55 55.5t67.5 21q55 0 89 -33t34 -80q0 -40 -21.5 -75t-56.5 -56.5t-75 -21.5q-46 0 -80 34.5t-34 81.5zM871 1842q0 38 22.5 72.5t56.5 55t67 20.5q55 0 88.5 -32.5t33.5 -79.5q0 -40 -21 -75.5t-56 -57t-76 -21.5q-47 0 -81 34.5t-34 83.5z" />
<glyph unicode="&#x4f1;" horiz-adv-x="1072" d="M-126 -478l47 160q4 -2 27 -13t61.5 -19.5t81.5 -8.5q49 0 111.5 29.5t127.5 98t116 177.5h-96l-172 1017q-5 30 -14.5 43t-25.5 13q-15 0 -32 -7t-49 -34l-29 60q11 17 44.5 47t79.5 54t94 24q70 0 98.5 -34t36.5 -103l41 -346l46 -387l20 -272l155 310q26 63 59 131 q46 99 72 163.5t43.5 141.5t17.5 161q0 25 -17 63q-9 24 -13 37.5t-4 29.5q0 53 27 78.5t72 25.5q130 0 130 -191q0 -92 -28.5 -190t-68 -183t-103.5 -207l-34 -66q-239 -480 -387 -661q-48 -68 -140.5 -119t-220.5 -51q-32 0 -87.5 9t-86.5 19zM294 1503q0 39 20.5 73.5 t54.5 55.5t71 21q55 0 89.5 -32.5t34.5 -79.5q0 -40 -21 -76t-56.5 -57.5t-76.5 -21.5q-47 0 -81.5 34.5t-34.5 82.5zM716 1501q0 39 20 74.5t54 56.5t72 21q55 0 89 -32.5t34 -79.5q0 -40 -21 -76t-56 -57.5t-76 -21.5q-47 0 -81.5 34t-34.5 81z" />
<glyph unicode="&#x4f2;" horiz-adv-x="1218" d="M106 1421l12 101h494l-10 -100l-166 -25l210 -732l37 -183l67 185l333 730l-153 24l12 101h412l-12 -100l-104 -25l-523 -1058q-6 -11 -18 -37q-46 -94 -87.5 -160t-108 -115.5t-154.5 -49.5q-49 0 -92 10.5t-73 27.5l18 157h146q62 0 102 10.5t69 40.5t50 88l-339 1086z M260 1677l276 324l134 -119q-24 -54 -82.5 -108.5t-126 -98t-116.5 -64.5zM697 1677l276 324l136 -120q-32 -55 -88.5 -110t-118.5 -97.5t-111 -62.5z" />
<glyph unicode="&#x4f3;" horiz-adv-x="1072" d="M-126 -478l47 160q4 -2 27 -13t61.5 -19.5t81.5 -8.5q49 0 111.5 29.5t127.5 98t116 177.5h-96l-172 1017q-5 30 -14.5 43t-25.5 13q-15 0 -32 -7t-49 -34l-29 60q11 17 44.5 47t79.5 54t94 24q70 0 98.5 -34t36.5 -103l41 -346l46 -387l20 -272l155 310q26 63 59 131 q46 99 72 163.5t43.5 141.5t17.5 161q0 25 -17 63q-9 24 -13 37.5t-4 29.5q0 53 27 78.5t72 25.5q130 0 130 -191q0 -92 -28.5 -190t-68 -183t-103.5 -207l-34 -66q-239 -480 -387 -661q-48 -68 -140.5 -119t-220.5 -51q-32 0 -87.5 9t-86.5 19zM326 1296l238 417l146 -107 q-16 -48 -70.5 -121.5t-120 -140t-108.5 -93.5zM744 1306l257 407l150 -108q-16 -49 -77 -123t-131.5 -138t-109.5 -83z" />
<glyph unicode="&#x4f4;" horiz-adv-x="1283" d="M80 1421l12 101h476l-11 -101l-138 -27l-26 -210q-11 -90 -16 -144.5t-5 -97.5q0 -76 20 -119t69 -63t138 -20q67 0 146.5 16.5t123.5 37.5l76 604l-154 23l12 101h491l-11 -101l-134 -23l-161 -1281l139 -30l-9 -87h-512l10 87l168 30l70 560q-76 -39 -167 -58.5 t-179 -19.5q-113 0 -188 26.5t-117 96t-42 195.5q0 49 8 119l45 361zM411 1778q0 39 21.5 73.5t55 55.5t67.5 21q55 0 89 -33t34 -80q0 -40 -21.5 -75t-56.5 -56.5t-75 -21.5q-46 0 -80 34.5t-34 81.5zM830 1780q0 38 22.5 72.5t56.5 55t67 20.5q55 0 88.5 -32.5t33.5 -79.5 q0 -40 -21 -75.5t-56 -57t-76 -21.5q-47 0 -81 34.5t-34 83.5z" />
<glyph unicode="&#x4f5;" horiz-adv-x="1167" d="M83 1023l17 89l249 51l55 -25l-33 -273q-16 -131 -16 -191q0 -67 18.5 -98.5t60.5 -41.5t128 -10q66 0 120 11t88 30l70 571h185l-99 -948q-1 -7 -1 -20q0 -26 8 -41t21 -15q30 0 87 46l31 -53q-10 -17 -45.5 -47.5t-85 -54.5t-99.5 -24q-60 0 -94.5 27t-34.5 83 q0 7 2 25l40 333q-142 -66 -312 -66q-99 0 -159 19.5t-91.5 75.5t-31.5 162q0 48 8 122l23 198zM276 1948q0 39 20.5 73.5t54.5 55.5t71 21q55 0 89.5 -32.5t34.5 -79.5q0 -40 -21 -76t-56.5 -57.5t-76.5 -21.5q-47 0 -81.5 34.5t-34.5 82.5zM698 1946q0 39 20 74.5t54 56.5 t72 21q55 0 89 -32.5t34 -79.5q0 -40 -21 -76t-56 -57.5t-76 -21.5q-47 0 -81.5 34t-34.5 81z" />
<glyph unicode="&#x4f6;" horiz-adv-x="1135" d="M-37 0l12 87l212 29l159 1279l-206 29l12 98h1014l-39 -471h-140l-18 352l-424 9l-160 -1295h344l-117 -472h-128q4 35 12 170.5t10 184.5h-543z" />
<glyph unicode="&#x4f7;" horiz-adv-x="841" d="M40 245q0 89 38.5 155t97 112.5t158.5 110.5q10 7 19 13t16 10q107 70 151 133t44 141q0 46 -29 79t-81 33q-57 0 -111.5 -14t-93 -32t-49.5 -29l-22 99q51 40 131.5 73.5t184.5 33.5q85 0 151 -27t103 -77.5t37 -119.5q0 -88 -40 -156t-96 -115t-145 -106l-59 -40 q-75 -54 -113 -86.5t-61 -72t-23 -91.5q0 -67 40 -111t125 -44q49 0 85.5 9.5t63 23.5t67.5 42q9 6 16 11t13 9l31 -97q-34 -38 -89 -68t-119 -47q-67 -34 -67 -83q0 -13 4.5 -26.5t10 -26t7.5 -16.5q15 -31 22.5 -54t7.5 -49q0 -50 -39 -100t-100 -87t-121 -52l-55 64 q44 18 84.5 57.5t40.5 81.5q0 26 -15 60q-10 23 -15 42t-5 46q0 65 69 125q-77 7 -138.5 44t-96.5 95t-35 124z" />
<glyph unicode="&#x4f8;" horiz-adv-x="1918" d="M28 0l9 87l148 30l161 1281l-133 23l12 101h490l-11 -101l-153 -23l-162 -1281l158 -29l-8 -88h-511zM203 1840q0 39 21.5 73.5t55 55.5t67.5 21q55 0 89 -33t34 -80q0 -40 -21.5 -75t-56.5 -56.5t-75 -21.5q-46 0 -80 34.5t-34 81.5zM622 1842q0 38 22.5 72.5t56.5 55 t67 20.5q55 0 88.5 -32.5t33.5 -79.5q0 -40 -21 -75.5t-56 -57t-76 -21.5q-47 0 -81 34.5t-34 83.5zM736 0l9 87l148 30l161 1280l-133 24l12 101h490l-11 -101l-154 -23l-72 -569l1 1q110 24 221 24q218 0 333.5 -91t115.5 -258q0 -166 -77.5 -284t-210 -177.5 t-296.5 -59.5q-15 0 -111 6q-126 10 -184 10h-242zM1097 115q84 -21 195 -21q109 0 190.5 45t125.5 130.5t44 204.5q0 124 -83 188.5t-225 64.5q-104 0 -171 -15h-1z" />
<glyph unicode="&#x4f9;" horiz-adv-x="1504" d="M111 319q0 82 18 168l95 476l-98 59l18 89l248 52l54 -25l-100 -560q26 35 74 74.5t116.5 68.5t147.5 29q125 0 185.5 -76.5t60.5 -223.5q0 -104 -67 -215t-183 -184.5t-253 -73.5q-147 0 -231.5 86.5t-84.5 255.5zM304 295q0 -92 37.5 -148.5t104.5 -56.5q79 0 142 49 t98 124.5t35 152.5q0 61 -7.5 100.5t-37.5 66.5t-91 27q-43 0 -96 -26t-100 -73.5t-74 -108.5l-3 -19q-8 -50 -8 -88zM479 1503q0 39 20.5 73.5t54.5 55.5t71 21q55 0 89.5 -32.5t34.5 -79.5q0 -40 -21 -76t-56.5 -57.5t-76.5 -21.5q-47 0 -81.5 34.5t-34.5 82.5zM901 1501 q0 39 20 74.5t54 56.5t72 21q55 0 89 -32.5t34 -79.5q0 -40 -21 -76t-56 -57.5t-76 -21.5q-47 0 -81.5 34t-34.5 81zM1044 101q0 24 2 37l128 1017h199l-126 -964q-2 -12 -2 -32q0 -44 25 -44q17 0 40.5 14t65.5 52l31 -54q-12 -20 -50 -55t-91 -62.5t-108 -27.5 q-58 0 -86 31t-28 88z" />
<glyph unicode="&#x2000;" horiz-adv-x="1049" />
<glyph unicode="&#x2001;" horiz-adv-x="2098" />
<glyph unicode="&#x2002;" horiz-adv-x="1049" />
<glyph unicode="&#x2003;" horiz-adv-x="2098" />
<glyph unicode="&#x2004;" horiz-adv-x="699" />
<glyph unicode="&#x2005;" horiz-adv-x="524" />
<glyph unicode="&#x2006;" horiz-adv-x="349" />
<glyph unicode="&#x2007;" horiz-adv-x="349" />
<glyph unicode="&#x2008;" horiz-adv-x="262" />
<glyph unicode="&#x2009;" horiz-adv-x="419" />
<glyph unicode="&#x200a;" horiz-adv-x="116" />
<glyph unicode="&#x2010;" horiz-adv-x="1267" d="M233 692l18 160h837l-18 -160h-837z" />
<glyph unicode="&#x2011;" horiz-adv-x="1267" d="M233 692l18 160h837l-18 -160h-837z" />
<glyph unicode="&#x2012;" horiz-adv-x="1267" d="M233 692l18 160h837l-18 -160h-837z" />
<glyph unicode="&#x2013;" horiz-adv-x="1538" d="M233 693l30 159h1097l-30 -159h-1097z" />
<glyph unicode="&#x2014;" horiz-adv-x="2031" d="M233 693l29 159h1591l-30 -159h-1590z" />
<glyph unicode="&#x2018;" horiz-adv-x="683" d="M216 1213q0 127 57 228.5t145.5 170.5t188.5 110l42 -71l-2 -22q-52 -17 -101 -69t-79.5 -122t-30.5 -138q0 -43 14.5 -81t39.5 -62.5t56 -27.5l-5 -41l-147 -152q-92 25 -135 104t-43 173z" />
<glyph unicode="&#x2019;" horiz-adv-x="683" d="M212 1006l2 22q52 17 101 69t79.5 122t30.5 138q0 43 -14.5 81t-39.5 62.5t-56 27.5l5 41l147 152q92 -25 135 -104t43 -173q0 -127 -57 -228.5t-145.5 -170.5t-188.5 -110z" />
<glyph unicode="&#x201a;" horiz-adv-x="682" d="M29 -433l2 22q52 17 101 69t79.5 122t30.5 138q0 43 -14.5 81t-39.5 62.5t-56 27.5l5 41l147 152q92 -25 135 -104t43 -173q0 -127 -57 -228.5t-145.5 -170.5t-188.5 -110z" />
<glyph unicode="&#x201c;" horiz-adv-x="1162" d="M216 1213q0 127 57 228.5t145.5 170.5t188.5 110l42 -71l-2 -22q-52 -17 -101 -69t-79.5 -122t-30.5 -138q0 -43 14.5 -81t39.5 -62.5t56 -27.5l-5 -41l-147 -152q-92 25 -135 104t-43 173zM695 1213q0 127 57 228.5t145.5 170.5t188.5 110l42 -71l-2 -22 q-52 -17 -101 -69t-79.5 -122t-30.5 -138q0 -43 14.5 -81t39.5 -62.5t56 -27.5l-5 -41l-147 -152q-92 25 -135 104t-43 173z" />
<glyph unicode="&#x201d;" horiz-adv-x="1162" d="M213 1006l2 22q52 17 101 69t79.5 122t30.5 138q0 43 -14.5 81t-39.5 62.5t-56 27.5l5 41l147 152q92 -25 135 -104t43 -173q0 -127 -57 -228.5t-145.5 -170.5t-188.5 -110zM693 1006l2 22q52 17 101 69t79.5 122t30.5 138q0 43 -14.5 81t-39.5 62.5t-56 27.5l5 41 l147 152q92 -25 135 -104t43 -173q0 -127 -57 -228.5t-145.5 -170.5t-188.5 -110z" />
<glyph unicode="&#x201e;" horiz-adv-x="1162" d="M29 -433l2 22q52 17 101 69t79.5 122t30.5 138q0 43 -14.5 81t-39.5 62.5t-56 27.5l5 41l147 152q92 -25 135 -104t43 -173q0 -127 -57 -228.5t-145.5 -170.5t-188.5 -110zM508 -433l2 22q52 17 101 69t79.5 122t30.5 138q0 43 -14.5 81t-39.5 62.5t-56 27.5l5 41 l147 152q92 -25 135 -104t43 -173q0 -127 -57 -228.5t-145.5 -170.5t-188.5 -110z" />
<glyph unicode="&#x2022;" horiz-adv-x="858" d="M231 701q0 69 33 126t91 89.5t128 32.5q50 0 90.5 -25t64 -67t23.5 -91q0 -69 -33 -127t-90.5 -91.5t-128.5 -33.5q-49 0 -90 26t-64.5 69t-23.5 92z" />
<glyph unicode="&#x2026;" horiz-adv-x="1578" d="M84 85q0 46 23 84.5t60 61.5t77 23q61 0 91.5 -29.5t30.5 -77.5q0 -49 -24 -87.5t-63.5 -60t-82.5 -21.5q-50 0 -81 29t-31 78zM610 85q0 46 23 84.5t60 61.5t77 23q61 0 91.5 -29.5t30.5 -77.5q0 -49 -24 -87.5t-63.5 -60t-82.5 -21.5q-50 0 -81 29t-31 78zM1136 85 q0 46 23 84.5t60 61.5t77 23q61 0 91.5 -29.5t30.5 -77.5q0 -49 -24 -87.5t-63.5 -60t-82.5 -21.5q-50 0 -81 29t-31 78z" />
<glyph unicode="&#x202f;" horiz-adv-x="419" />
<glyph unicode="&#x2039;" horiz-adv-x="1190" d="M241 530l22 160l693 396l39 -117l-508 -354l413 -350l-72 -113z" />
<glyph unicode="&#x203a;" horiz-adv-x="1190" d="M126 269l508 354l-413 350l72 113l587 -378l-22 -160l-693 -396z" />
<glyph unicode="&#x205f;" horiz-adv-x="524" />
<glyph unicode="&#x20ac;" horiz-adv-x="1388" d="M26 563l15 132h182q4 104 24 199h-158l19 131h175q56 158 155 274t226.5 177.5t266.5 61.5q72 0 128.5 -8t92 -17.5t93.5 -28.5q46 -13 74 -20l-54 -223h-109l-28 107q-65 71 -250 71q-145 0 -247 -102.5t-153 -291.5h567l-20 -131h-575q-14 -88 -19 -199h547l-13 -132 h-535q7 -219 79.5 -339.5t215.5 -120.5q89 0 168 26t114 77l68 137l121 -1l-46 -272q-45 -3 -130 -26q-86 -28 -160.5 -44t-165.5 -16q-148 0 -249 80.5t-154 211.5t-65 287h-200z" />
<glyph unicode="&#x2122;" horiz-adv-x="2124" d="M133 1293l52 237h688l-32 -235l-64 -5l-8 134l-166 12l-82 -590l130 -16l-11 -78h-428l11 78l126 15l83 589l-173 -11l-60 -129zM854 752l11 78l107 15l112 591l-99 9l12 85h339l97 -428l30 -132l256 560h328l-12 -85l-97 -9l-21 -590l96 -16l-11 -78h-349l11 78l96 16 l20 370l19 223l-31 -70l-298 -625h-108l-138 548l-35 150l-26 -157l-80 -440l93 -15l-11 -78h-311z" />
<glyph unicode="&#x25fc;" horiz-adv-x="1165" d="M0 0v1165h1165v-1165h-1165z" />
</font>
</defs>
</svg>
